%TF.GenerationSoftware,KiCad,Pcbnew,7.0.8*%
%TF.CreationDate,2025-06-05T10:18:11-04:00*%
%TF.ProjectId,happless,68617070-6c65-4737-932e-6b696361645f,rev?*%
%TF.SameCoordinates,Original*%
%TF.FileFunction,Copper,L1,Top*%
%TF.FilePolarity,Positive*%
%FSLAX46Y46*%
G04 Gerber Fmt 4.6, Leading zero omitted, Abs format (unit mm)*
G04 Created by KiCad (PCBNEW 7.0.8) date 2025-06-05 10:18:11*
%MOMM*%
%LPD*%
G01*
G04 APERTURE LIST*
G04 Aperture macros list*
%AMRoundRect*
0 Rectangle with rounded corners*
0 $1 Rounding radius*
0 $2 $3 $4 $5 $6 $7 $8 $9 X,Y pos of 4 corners*
0 Add a 4 corners polygon primitive as box body*
4,1,4,$2,$3,$4,$5,$6,$7,$8,$9,$2,$3,0*
0 Add four circle primitives for the rounded corners*
1,1,$1+$1,$2,$3*
1,1,$1+$1,$4,$5*
1,1,$1+$1,$6,$7*
1,1,$1+$1,$8,$9*
0 Add four rect primitives between the rounded corners*
20,1,$1+$1,$2,$3,$4,$5,0*
20,1,$1+$1,$4,$5,$6,$7,0*
20,1,$1+$1,$6,$7,$8,$9,0*
20,1,$1+$1,$8,$9,$2,$3,0*%
G04 Aperture macros list end*
%TA.AperFunction,SMDPad,CuDef*%
%ADD10RoundRect,0.200000X-0.200000X-0.275000X0.200000X-0.275000X0.200000X0.275000X-0.200000X0.275000X0*%
%TD*%
%TA.AperFunction,SMDPad,CuDef*%
%ADD11RoundRect,0.150000X0.150000X-0.825000X0.150000X0.825000X-0.150000X0.825000X-0.150000X-0.825000X0*%
%TD*%
%TA.AperFunction,SMDPad,CuDef*%
%ADD12RoundRect,0.200000X0.275000X-0.200000X0.275000X0.200000X-0.275000X0.200000X-0.275000X-0.200000X0*%
%TD*%
%TA.AperFunction,SMDPad,CuDef*%
%ADD13RoundRect,0.250000X-0.925000X0.787500X-0.925000X-0.787500X0.925000X-0.787500X0.925000X0.787500X0*%
%TD*%
%TA.AperFunction,SMDPad,CuDef*%
%ADD14RoundRect,0.200000X0.200000X0.275000X-0.200000X0.275000X-0.200000X-0.275000X0.200000X-0.275000X0*%
%TD*%
%TA.AperFunction,SMDPad,CuDef*%
%ADD15RoundRect,0.250000X0.925000X-0.787500X0.925000X0.787500X-0.925000X0.787500X-0.925000X-0.787500X0*%
%TD*%
%TA.AperFunction,ComponentPad*%
%ADD16O,1.200000X1.600000*%
%TD*%
%TA.AperFunction,ComponentPad*%
%ADD17O,1.200000X1.200000*%
%TD*%
%TA.AperFunction,ComponentPad*%
%ADD18R,1.700000X1.700000*%
%TD*%
%TA.AperFunction,ComponentPad*%
%ADD19O,1.700000X1.700000*%
%TD*%
%TA.AperFunction,SMDPad,CuDef*%
%ADD20RoundRect,0.200000X-0.275000X0.200000X-0.275000X-0.200000X0.275000X-0.200000X0.275000X0.200000X0*%
%TD*%
%TA.AperFunction,SMDPad,CuDef*%
%ADD21RoundRect,0.225000X-0.225000X-0.250000X0.225000X-0.250000X0.225000X0.250000X-0.225000X0.250000X0*%
%TD*%
%TA.AperFunction,SMDPad,CuDef*%
%ADD22RoundRect,0.150000X-0.512500X-0.150000X0.512500X-0.150000X0.512500X0.150000X-0.512500X0.150000X0*%
%TD*%
%TA.AperFunction,SMDPad,CuDef*%
%ADD23RoundRect,0.150000X0.150000X-0.512500X0.150000X0.512500X-0.150000X0.512500X-0.150000X-0.512500X0*%
%TD*%
%TA.AperFunction,ViaPad*%
%ADD24C,0.800000*%
%TD*%
%TA.AperFunction,Conductor*%
%ADD25C,1.000000*%
%TD*%
G04 APERTURE END LIST*
D10*
%TO.P,R2,1*%
%TO.N,Net-(Q1-E)*%
X92037400Y-71932800D03*
%TO.P,R2,2*%
%TO.N,GND*%
X93687400Y-71932800D03*
%TD*%
D11*
%TO.P,U1,1,GND*%
%TO.N,GND*%
X121093800Y-77975000D03*
%TO.P,U1,2,+*%
%TO.N,Net-(U1-+)*%
X122363800Y-77975000D03*
%TO.P,U1,3,-*%
%TO.N,OPTO_CIRCUIT_OUT*%
X123633800Y-77975000D03*
%TO.P,U1,4,V-*%
%TO.N,GND*%
X124903800Y-77975000D03*
%TO.P,U1,5,BAL*%
%TO.N,Net-(U1-BAL)*%
X124903800Y-73025000D03*
%TO.P,U1,6,STRB*%
X123633800Y-73025000D03*
%TO.P,U1,7*%
%TO.N,OPTICAL_SIGNAL*%
X122363800Y-73025000D03*
%TO.P,U1,8,V+*%
%TO.N,+5V*%
X121093800Y-73025000D03*
%TD*%
D10*
%TO.P,R3,1*%
%TO.N,Net-(Q2-C)*%
X96507800Y-71932800D03*
%TO.P,R3,2*%
%TO.N,VCC*%
X98157800Y-71932800D03*
%TD*%
D12*
%TO.P,R13,1*%
%TO.N,TRIGGER_SIGNAL*%
X111506000Y-76504800D03*
%TO.P,R13,2*%
%TO.N,+5V*%
X111506000Y-74854800D03*
%TD*%
D10*
%TO.P,R1,1*%
%TO.N,Net-(Q2-B)*%
X91834200Y-83820000D03*
%TO.P,R1,2*%
%TO.N,Net-(Q2-C)*%
X93484200Y-83820000D03*
%TD*%
%TO.P,R9,1*%
%TO.N,VCC*%
X102108000Y-71932800D03*
%TO.P,R9,2*%
%TO.N,Net-(Q3-B)*%
X103758000Y-71932800D03*
%TD*%
D13*
%TO.P,C4,1*%
%TO.N,VCC*%
X116636800Y-72799000D03*
%TO.P,C4,2*%
%TO.N,GND*%
X116636800Y-77724000D03*
%TD*%
D12*
%TO.P,R12,1*%
%TO.N,+5V*%
X108284800Y-76606400D03*
%TO.P,R12,2*%
%TO.N,VCC*%
X108284800Y-74956400D03*
%TD*%
D14*
%TO.P,R8,1*%
%TO.N,OPTO_CIRCUIT_OUT*%
X98056200Y-83870800D03*
%TO.P,R8,2*%
%TO.N,GND*%
X96406200Y-83870800D03*
%TD*%
D15*
%TO.P,C5,1*%
%TO.N,Net-(U1-+)*%
X129286000Y-77849700D03*
%TO.P,C5,2*%
%TO.N,GND*%
X129286000Y-72924700D03*
%TD*%
D16*
%TO.P,Q1,1,C*%
%TO.N,VCC*%
X86817200Y-73761600D03*
D17*
%TO.P,Q1,2,B*%
%TO.N,unconnected-(Q1-B-Pad2)*%
X88087200Y-72491600D03*
%TO.P,Q1,3,E*%
%TO.N,Net-(Q1-E)*%
X86817200Y-71221600D03*
%TD*%
D10*
%TO.P,R5,1*%
%TO.N,VCC*%
X91834200Y-80975200D03*
%TO.P,R5,2*%
%TO.N,Net-(Q2-B)*%
X93484200Y-80975200D03*
%TD*%
D12*
%TO.P,R14,1*%
%TO.N,OPTICAL_SIGNAL*%
X134264400Y-88138000D03*
%TO.P,R14,2*%
%TO.N,+5V*%
X134264400Y-86488000D03*
%TD*%
D18*
%TO.P,J2,1,Pin_1*%
%TO.N,+5V*%
X110185200Y-97078800D03*
D19*
%TO.P,J2,2,Pin_2*%
%TO.N,GND*%
X110185200Y-94538800D03*
%TO.P,J2,3,Pin_3*%
X110185200Y-91998800D03*
%TO.P,J2,4,Pin_4*%
%TO.N,OPTICAL_SIGNAL*%
X110185200Y-89458800D03*
%TO.P,J2,5,Pin_5*%
%TO.N,TRIGGER_SIGNAL*%
X110185200Y-86918800D03*
%TO.P,J2,6,Pin_6*%
X110185200Y-84378800D03*
%TD*%
D18*
%TO.P,J1,1,Pin_1*%
%TO.N,+5V*%
X136804400Y-83718400D03*
D19*
%TO.P,J1,2,Pin_2*%
%TO.N,GND*%
X136804400Y-86258400D03*
%TO.P,J1,3,Pin_3*%
%TO.N,OPTICAL_SIGNAL*%
X136804400Y-88798400D03*
%TO.P,J1,4,Pin_4*%
%TO.N,TRIGGER_SIGNAL*%
X136804400Y-91338400D03*
%TD*%
D20*
%TO.P,R10,1*%
%TO.N,VCC*%
X133502400Y-75883000D03*
%TO.P,R10,2*%
%TO.N,Net-(U1-+)*%
X133502400Y-77533000D03*
%TD*%
D21*
%TO.P,C1,1*%
%TO.N,Net-(Q1-E)*%
X92049600Y-74930000D03*
%TO.P,C1,2*%
%TO.N,Net-(Q2-B)*%
X93599600Y-74930000D03*
%TD*%
D15*
%TO.P,C6,1*%
%TO.N,+5V*%
X105308400Y-96239300D03*
%TO.P,C6,2*%
%TO.N,GND*%
X105308400Y-91314300D03*
%TD*%
D10*
%TO.P,R11,1*%
%TO.N,Net-(U1-+)*%
X128867400Y-81432400D03*
%TO.P,R11,2*%
%TO.N,GND*%
X130517400Y-81432400D03*
%TD*%
D21*
%TO.P,C7,1*%
%TO.N,+5V*%
X102844000Y-85953600D03*
%TO.P,C7,2*%
%TO.N,GND*%
X104394000Y-85953600D03*
%TD*%
%TO.P,C2,1*%
%TO.N,VCC*%
X91871200Y-86766400D03*
%TO.P,C2,2*%
%TO.N,GND*%
X93421200Y-86766400D03*
%TD*%
D22*
%TO.P,Q3,1,B*%
%TO.N,Net-(Q3-B)*%
X101752400Y-78262400D03*
%TO.P,Q3,2,C*%
%TO.N,VCC*%
X101752400Y-80162400D03*
%TO.P,Q3,3,E*%
%TO.N,OPTO_CIRCUIT_OUT*%
X104027400Y-79212400D03*
%TD*%
D14*
%TO.P,R6,1*%
%TO.N,Net-(Q3-B)*%
X98157800Y-81076800D03*
%TO.P,R6,2*%
%TO.N,GND*%
X96507800Y-81076800D03*
%TD*%
D23*
%TO.P,Q2,1,B*%
%TO.N,Net-(Q2-B)*%
X96367600Y-77114400D03*
%TO.P,Q2,2,E*%
%TO.N,GND*%
X98267600Y-77114400D03*
%TO.P,Q2,3,C*%
%TO.N,Net-(Q2-C)*%
X97317600Y-74839400D03*
%TD*%
D21*
%TO.P,C3,1*%
%TO.N,Net-(Q2-C)*%
X102057200Y-74828400D03*
%TO.P,C3,2*%
%TO.N,Net-(Q3-B)*%
X103607200Y-74828400D03*
%TD*%
D14*
%TO.P,R4,1*%
%TO.N,Net-(Q2-B)*%
X93535000Y-78028800D03*
%TO.P,R4,2*%
%TO.N,GND*%
X91885000Y-78028800D03*
%TD*%
D24*
%TO.N,VCC*%
X100888800Y-70104000D03*
X91389200Y-79857600D03*
%TO.N,GND*%
X129286000Y-74879200D03*
X113792000Y-76454000D03*
X124917200Y-76352400D03*
X108000800Y-94335600D03*
X113893600Y-81534000D03*
X109829600Y-72948800D03*
X107950000Y-91998800D03*
X112318800Y-94538800D03*
X95046800Y-71882000D03*
X98196400Y-73304400D03*
X102108000Y-73355200D03*
X99314000Y-76149200D03*
X112217200Y-91998800D03*
X96164400Y-75692000D03*
X114198400Y-72948800D03*
X126949200Y-72948800D03*
X131470400Y-72898000D03*
X125272800Y-85445600D03*
X106121200Y-72898000D03*
%TO.N,Net-(Q2-C)*%
X96469200Y-73355200D03*
X94792800Y-82905600D03*
%TO.N,+5V*%
X102044200Y-89001600D03*
X108254800Y-79908400D03*
%TO.N,OPTICAL_SIGNAL*%
X134366000Y-88239600D03*
X122631200Y-74574400D03*
%TO.N,OPTO_CIRCUIT_OUT*%
X98094800Y-85090000D03*
X104343200Y-78232000D03*
X124409200Y-80264000D03*
%TD*%
D25*
%TO.N,+5V*%
X136804400Y-83718400D02*
X137718800Y-83718400D01*
X111455200Y-98348800D02*
X110185200Y-97078800D01*
X137718800Y-83718400D02*
X138531600Y-84531200D01*
X138531600Y-97536000D02*
X137718800Y-98348800D01*
X137718800Y-98348800D02*
X111455200Y-98348800D01*
X138531600Y-84531200D02*
X138531600Y-97536000D01*
X136804400Y-83718400D02*
X135128000Y-83718400D01*
X135128000Y-83718400D02*
X134416800Y-84429600D01*
X134416800Y-84429600D02*
X134416800Y-86488000D01*
%TO.N,OPTICAL_SIGNAL*%
X134366000Y-88239600D02*
X136245600Y-88239600D01*
X136245600Y-88239600D02*
X136804400Y-88798400D01*
%TO.N,TRIGGER_SIGNAL*%
X136804400Y-91338400D02*
X136093200Y-92049600D01*
X114503200Y-86918800D02*
X110185200Y-86918800D01*
X136093200Y-92049600D02*
X119634000Y-92049600D01*
X119634000Y-92049600D02*
X114503200Y-86918800D01*
%TO.N,Net-(Q1-E)*%
X86847200Y-71191600D02*
X88625678Y-71191600D01*
X86817200Y-71221600D02*
X86847200Y-71191600D01*
X89112878Y-71678800D02*
X91783400Y-71678800D01*
X91783400Y-71678800D02*
X92037400Y-71932800D01*
X88625678Y-71191600D02*
X89112878Y-71678800D01*
X92037400Y-71932800D02*
X92037400Y-74917800D01*
X92037400Y-74917800D02*
X92049600Y-74930000D01*
%TO.N,Net-(Q2-B)*%
X93599600Y-74930000D02*
X93599600Y-76758800D01*
X93599600Y-77964200D02*
X93535000Y-78028800D01*
X93599600Y-76758800D02*
X93599600Y-77964200D01*
X96012000Y-77470000D02*
X96367600Y-77114400D01*
X93535000Y-78028800D02*
X93535000Y-80924400D01*
X93484200Y-81674200D02*
X93484200Y-81000200D01*
X93599600Y-77470000D02*
X96012000Y-77470000D01*
X91834200Y-83324200D02*
X93484200Y-81674200D01*
X93535000Y-80924400D02*
X93484200Y-80975200D01*
X91834200Y-83820000D02*
X91834200Y-83324200D01*
%TO.N,VCC*%
X99822000Y-71932800D02*
X99872800Y-71932800D01*
X116636800Y-72542400D02*
X116636800Y-72799000D01*
X114330000Y-70235600D02*
X116636800Y-72542400D01*
X102209600Y-81330800D02*
X101752400Y-80873600D01*
X105664000Y-81330800D02*
X102209600Y-81330800D01*
X98157800Y-71932800D02*
X99822000Y-71932800D01*
X99822000Y-70967600D02*
X100634800Y-70154800D01*
X91834200Y-80975200D02*
X91834200Y-80500200D01*
X101752400Y-80873600D02*
X101752400Y-80162400D01*
X108284800Y-70235600D02*
X108416400Y-70104000D01*
X132740400Y-75121000D02*
X133502400Y-75883000D01*
X108284800Y-70235600D02*
X108284800Y-74956400D01*
X91834200Y-80987400D02*
X91834200Y-80975200D01*
X132740400Y-70408800D02*
X132740400Y-75121000D01*
X91338400Y-86766400D02*
X90634200Y-86062200D01*
X106375200Y-80619600D02*
X105664000Y-81330800D01*
X99822000Y-71932800D02*
X99822000Y-70967600D01*
X108153200Y-70104000D02*
X108284800Y-70235600D01*
X91871200Y-86766400D02*
X91338400Y-86766400D01*
X114330000Y-70235600D02*
X132567200Y-70235600D01*
X108284800Y-74956400D02*
X106856800Y-74956400D01*
X108102400Y-70154800D02*
X108153200Y-70104000D01*
X106375200Y-75438000D02*
X106375200Y-80619600D01*
X100634800Y-70154800D02*
X100838000Y-70154800D01*
X90634200Y-86062200D02*
X90634200Y-82187400D01*
X100838000Y-70154800D02*
X100888800Y-70104000D01*
X100888800Y-70104000D02*
X100939600Y-70154800D01*
X114198400Y-70104000D02*
X114330000Y-70235600D01*
X132567200Y-70235600D02*
X132740400Y-70408800D01*
X90634200Y-82187400D02*
X91834200Y-80987400D01*
X106856800Y-74956400D02*
X106375200Y-75438000D01*
X100939600Y-70154800D02*
X108102400Y-70154800D01*
X108416400Y-70104000D02*
X114198400Y-70104000D01*
X99872800Y-71932800D02*
X102108000Y-71932800D01*
%TO.N,GND*%
X93687400Y-71457800D02*
X91825600Y-69596000D01*
X99092792Y-83159600D02*
X104851200Y-83159600D01*
X96406200Y-85995800D02*
X95635600Y-86766400D01*
X85090000Y-75692000D02*
X87985600Y-75692000D01*
X105410000Y-85852000D02*
X105410000Y-91212700D01*
X96406200Y-83870800D02*
X96406200Y-85995800D01*
X93421200Y-86766400D02*
X95635600Y-86766400D01*
X84074000Y-70307200D02*
X84074000Y-74676000D01*
X91825600Y-69596000D02*
X84785200Y-69596000D01*
X105410000Y-83718400D02*
X105410000Y-85852000D01*
X84074000Y-74676000D02*
X85090000Y-75692000D01*
X105410000Y-91212700D02*
X105308400Y-91314300D01*
X96507800Y-81076800D02*
X96507800Y-83769200D01*
X88931500Y-76637900D02*
X90494100Y-76637900D01*
X96507800Y-79412600D02*
X96507800Y-81076800D01*
X96507800Y-82499200D02*
X98432392Y-82499200D01*
X104851200Y-83159600D02*
X105410000Y-83718400D01*
X105308400Y-85953600D02*
X105410000Y-85852000D01*
X90494100Y-76637900D02*
X89052400Y-78079600D01*
X89751200Y-88188800D02*
X93167200Y-88188800D01*
X89052400Y-87490000D02*
X89751200Y-88188800D01*
X96507800Y-83769200D02*
X96406200Y-83870800D01*
X93167200Y-88188800D02*
X93421200Y-87934800D01*
X93687400Y-71932800D02*
X93687400Y-71457800D01*
X98267600Y-77652800D02*
X96507800Y-79412600D01*
X84785200Y-69596000D02*
X84074000Y-70307200D01*
X98267600Y-77114400D02*
X98267600Y-77652800D01*
X90494100Y-76637900D02*
X91885000Y-78028800D01*
X87985600Y-75692000D02*
X88931500Y-76637900D01*
X98432392Y-82499200D02*
X99092792Y-83159600D01*
X93421200Y-87934800D02*
X93421200Y-86766400D01*
X104394000Y-85953600D02*
X105308400Y-85953600D01*
X89052400Y-78079600D02*
X89052400Y-87490000D01*
%TO.N,Net-(Q2-C)*%
X96507800Y-74029600D02*
X97317600Y-74839400D01*
X97317600Y-74839400D02*
X102046200Y-74839400D01*
X102046200Y-74839400D02*
X102057200Y-74828400D01*
X93484200Y-83820000D02*
X93878400Y-83820000D01*
X93878400Y-83820000D02*
X94792800Y-82905600D01*
X96507800Y-71932800D02*
X96507800Y-74029600D01*
%TO.N,Net-(Q3-B)*%
X103607200Y-74828400D02*
X103607200Y-76407600D01*
X98157800Y-81076800D02*
X98157800Y-80861400D01*
X98157800Y-80861400D02*
X100756800Y-78262400D01*
X103607200Y-76407600D02*
X101752400Y-78262400D01*
X103758000Y-74677600D02*
X103607200Y-74828400D01*
X100756800Y-78262400D02*
X101752400Y-78262400D01*
X103758000Y-71932800D02*
X103758000Y-74677600D01*
%TO.N,+5V*%
X111506000Y-74854800D02*
X120674400Y-74854800D01*
X108254800Y-79908400D02*
X108153200Y-79908400D01*
X109880400Y-75895200D02*
X109829600Y-75946000D01*
X108284800Y-76606400D02*
X108284800Y-79776800D01*
X109169200Y-76606400D02*
X109829600Y-75946000D01*
X110032800Y-96926400D02*
X110185200Y-97078800D01*
X102044200Y-92975100D02*
X105308400Y-96239300D01*
X108153200Y-79908400D02*
X108254800Y-79806800D01*
X108284800Y-76606400D02*
X109169200Y-76606400D01*
X102044200Y-86753400D02*
X102844000Y-85953600D01*
X109829600Y-75946000D02*
X109880400Y-75946000D01*
X105308400Y-96239300D02*
X105995500Y-96926400D01*
X110158800Y-74854800D02*
X111506000Y-74854800D01*
X105995500Y-96926400D02*
X110032800Y-96926400D01*
X108254800Y-79806800D02*
X108254800Y-79908400D01*
X121093800Y-74435400D02*
X121093800Y-73025000D01*
X109880400Y-75946000D02*
X109880400Y-75895200D01*
X102044200Y-89001600D02*
X102044200Y-86753400D01*
X109829600Y-75184000D02*
X110158800Y-74854800D01*
X120674400Y-74854800D02*
X121093800Y-74435400D01*
X109829600Y-75946000D02*
X109829600Y-75184000D01*
X108284800Y-79776800D02*
X108254800Y-79806800D01*
X102044200Y-89001600D02*
X102044200Y-92975100D01*
%TO.N,OPTICAL_SIGNAL*%
X122363800Y-73025000D02*
X122363800Y-74408600D01*
X122631200Y-74676000D02*
X122478800Y-74523600D01*
X122529600Y-74574400D02*
X122631200Y-74574400D01*
X122631200Y-74574400D02*
X122631200Y-74676000D01*
X134416800Y-88188800D02*
X134366000Y-88239600D01*
X134416800Y-88138000D02*
X134416800Y-88188800D01*
X122363800Y-74408600D02*
X122529600Y-74574400D01*
%TO.N,TRIGGER_SIGNAL*%
X111506000Y-81127600D02*
X110185200Y-82448400D01*
X111506000Y-76504800D02*
X111506000Y-81127600D01*
X110185200Y-82448400D02*
X110185200Y-84378800D01*
X111607600Y-76606400D02*
X111506000Y-76504800D01*
%TO.N,OPTO_CIRCUIT_OUT*%
X98056200Y-85051400D02*
X98056200Y-83870800D01*
X123633800Y-77975000D02*
X123633800Y-79488600D01*
X104343200Y-78232000D02*
X104343200Y-78896600D01*
X104343200Y-78896600D02*
X104027400Y-79212400D01*
X123633800Y-79488600D02*
X124409200Y-80264000D01*
X98094800Y-85090000D02*
X98056200Y-85051400D01*
X124409200Y-80264000D02*
X124358400Y-80213200D01*
%TO.N,Net-(U1-BAL)*%
X123633800Y-73025000D02*
X124903800Y-73025000D01*
%TO.N,Net-(U1-+)*%
X123444000Y-81584800D02*
X128879600Y-81584800D01*
X129286000Y-77849700D02*
X129513300Y-77622400D01*
X122363800Y-77975000D02*
X122363800Y-80504600D01*
X129286000Y-77849700D02*
X128879600Y-78256100D01*
X129513300Y-77622400D02*
X133413000Y-77622400D01*
X128879600Y-80162400D02*
X128879600Y-81420200D01*
X128879600Y-78256100D02*
X128879600Y-80162400D01*
X128879600Y-81420200D02*
X128867400Y-81432400D01*
X128879600Y-81584800D02*
X128879600Y-80162400D01*
X122363800Y-80504600D02*
X123444000Y-81584800D01*
X133413000Y-77622400D02*
X133502400Y-77533000D01*
%TD*%
%TA.AperFunction,Conductor*%
%TO.N,GND*%
G36*
X114104456Y-87938985D02*
G01*
X114125098Y-87955619D01*
X118917547Y-92748067D01*
X118978941Y-92812653D01*
X118978944Y-92812655D01*
X118978947Y-92812658D01*
X119013053Y-92836395D01*
X119029303Y-92847706D01*
X119033044Y-92850526D01*
X119080593Y-92889298D01*
X119111045Y-92905204D01*
X119117758Y-92909272D01*
X119145951Y-92928895D01*
X119202329Y-92953089D01*
X119206578Y-92955107D01*
X119260951Y-92983509D01*
X119288489Y-92991388D01*
X119293974Y-92992958D01*
X119301368Y-92995590D01*
X119332942Y-93009140D01*
X119332945Y-93009140D01*
X119332946Y-93009141D01*
X119393022Y-93021487D01*
X119397600Y-93022610D01*
X119399704Y-93023212D01*
X119456582Y-93039487D01*
X119490839Y-93042095D01*
X119498614Y-93043186D01*
X119532255Y-93050100D01*
X119532259Y-93050100D01*
X119593598Y-93050100D01*
X119598304Y-93050278D01*
X119625595Y-93052357D01*
X119659475Y-93054937D01*
X119659475Y-93054936D01*
X119659476Y-93054937D01*
X119693559Y-93050596D01*
X119701389Y-93050100D01*
X136080484Y-93050100D01*
X136169558Y-93052357D01*
X136169558Y-93052356D01*
X136169563Y-93052357D01*
X136229953Y-93041532D01*
X136234612Y-93040880D01*
X136276807Y-93036588D01*
X136295638Y-93034674D01*
X136328427Y-93024386D01*
X136336040Y-93022518D01*
X136369853Y-93016458D01*
X136426821Y-92993701D01*
X136431253Y-92992124D01*
X136489788Y-92973759D01*
X136519827Y-92957084D01*
X136526908Y-92953722D01*
X136558817Y-92940977D01*
X136610054Y-92907208D01*
X136614051Y-92904787D01*
X136667702Y-92875009D01*
X136693768Y-92852630D01*
X136700043Y-92847900D01*
X136700345Y-92847701D01*
X136728719Y-92829002D01*
X136772117Y-92785602D01*
X136775536Y-92782434D01*
X136822095Y-92742466D01*
X136830362Y-92731784D01*
X136886956Y-92690819D01*
X136917608Y-92684154D01*
X137039808Y-92673463D01*
X137268063Y-92612303D01*
X137354697Y-92571904D01*
X137423772Y-92561413D01*
X137487556Y-92589932D01*
X137525796Y-92648409D01*
X137531100Y-92684287D01*
X137531100Y-94706757D01*
X137511415Y-94773796D01*
X137458611Y-94819551D01*
X137389453Y-94829495D01*
X137325897Y-94800470D01*
X137299713Y-94768757D01*
X137265048Y-94708715D01*
X137188736Y-94613022D01*
X137186498Y-94610035D01*
X137170949Y-94587930D01*
X137170938Y-94587917D01*
X137159967Y-94576517D01*
X137156165Y-94572179D01*
X137132159Y-94542078D01*
X137108472Y-94512375D01*
X137014105Y-94424815D01*
X137011618Y-94422374D01*
X136992860Y-94402883D01*
X136981840Y-94394483D01*
X136977257Y-94390625D01*
X136924386Y-94341567D01*
X136812415Y-94265226D01*
X136809755Y-94263308D01*
X136788612Y-94247192D01*
X136778254Y-94241559D01*
X136772946Y-94238318D01*
X136716899Y-94200106D01*
X136588206Y-94138130D01*
X136585500Y-94136744D01*
X136573939Y-94130457D01*
X136562995Y-94124506D01*
X136553919Y-94121247D01*
X136547970Y-94118754D01*
X136490650Y-94091150D01*
X136490647Y-94091149D01*
X136490645Y-94091148D01*
X136443073Y-94076474D01*
X136346542Y-94046697D01*
X136343861Y-94045803D01*
X136321304Y-94037701D01*
X136321299Y-94037700D01*
X136321297Y-94037699D01*
X136321287Y-94037697D01*
X136313982Y-94036279D01*
X136307518Y-94034660D01*
X136250688Y-94017130D01*
X136250684Y-94017129D01*
X136250680Y-94017128D01*
X136250679Y-94017128D01*
X136192899Y-94008419D01*
X136091573Y-93993146D01*
X136069176Y-93988802D01*
X136069177Y-93988802D01*
X136064005Y-93988604D01*
X136057145Y-93987957D01*
X136002369Y-93979700D01*
X136002361Y-93979700D01*
X135831699Y-93979700D01*
X135812547Y-93978965D01*
X135809734Y-93979291D01*
X135802619Y-93979700D01*
X135751231Y-93979700D01*
X135571417Y-94006803D01*
X135557422Y-94008419D01*
X135557410Y-94008421D01*
X135556964Y-94008544D01*
X135549797Y-94010062D01*
X135502914Y-94017129D01*
X135316635Y-94074589D01*
X135309777Y-94076474D01*
X135306563Y-94077628D01*
X135303889Y-94078521D01*
X135262953Y-94091148D01*
X135036708Y-94200101D01*
X135036707Y-94200102D01*
X134829213Y-94341568D01*
X134645131Y-94512370D01*
X134488555Y-94708711D01*
X134362994Y-94926188D01*
X134271250Y-95159947D01*
X134271245Y-95159964D01*
X134215367Y-95404780D01*
X134196602Y-95655195D01*
X134196602Y-95655204D01*
X134215367Y-95905619D01*
X134237759Y-96003724D01*
X134271248Y-96150447D01*
X134271250Y-96150452D01*
X134362994Y-96384211D01*
X134362993Y-96384211D01*
X134418414Y-96480202D01*
X134488555Y-96601689D01*
X134615017Y-96760267D01*
X134645131Y-96798029D01*
X134763132Y-96907517D01*
X134829214Y-96968832D01*
X135036701Y-97110294D01*
X135036706Y-97110296D01*
X135036707Y-97110297D01*
X135036708Y-97110298D01*
X135041447Y-97112580D01*
X135093307Y-97159402D01*
X135111620Y-97226829D01*
X135090572Y-97293453D01*
X135036846Y-97338122D01*
X134987646Y-97348300D01*
X111920983Y-97348300D01*
X111853944Y-97328615D01*
X111833302Y-97311981D01*
X111572018Y-97050697D01*
X111538533Y-96989374D01*
X111535699Y-96963016D01*
X111535699Y-96180929D01*
X111535698Y-96180923D01*
X111529291Y-96121316D01*
X111478997Y-95986471D01*
X111478993Y-95986464D01*
X111392747Y-95871255D01*
X111392744Y-95871252D01*
X111277535Y-95785006D01*
X111277528Y-95785002D01*
X111145601Y-95735797D01*
X111089667Y-95693926D01*
X111065250Y-95628462D01*
X111080102Y-95560189D01*
X111101253Y-95531933D01*
X111223308Y-95409878D01*
X111358800Y-95216378D01*
X111458629Y-95002292D01*
X111458632Y-95002286D01*
X111515836Y-94788800D01*
X110618886Y-94788800D01*
X110644693Y-94748644D01*
X110685200Y-94610689D01*
X110685200Y-94466911D01*
X110644693Y-94328956D01*
X110618886Y-94288800D01*
X111515836Y-94288800D01*
X111515835Y-94288799D01*
X111458632Y-94075313D01*
X111458629Y-94075307D01*
X111358800Y-93861222D01*
X111358799Y-93861220D01*
X111223313Y-93667726D01*
X111223308Y-93667720D01*
X111056282Y-93500694D01*
X110870168Y-93370375D01*
X110826544Y-93315798D01*
X110819351Y-93246299D01*
X110850873Y-93183945D01*
X110870168Y-93167225D01*
X111056282Y-93036905D01*
X111223305Y-92869882D01*
X111358800Y-92676378D01*
X111458629Y-92462292D01*
X111458632Y-92462286D01*
X111515836Y-92248800D01*
X110618886Y-92248800D01*
X110644693Y-92208644D01*
X110685200Y-92070689D01*
X110685200Y-91926911D01*
X110644693Y-91788956D01*
X110618886Y-91748800D01*
X111515836Y-91748800D01*
X111515835Y-91748799D01*
X111458632Y-91535313D01*
X111458629Y-91535307D01*
X111358800Y-91321222D01*
X111358799Y-91321220D01*
X111223313Y-91127726D01*
X111223308Y-91127720D01*
X111056278Y-90960690D01*
X110870605Y-90830679D01*
X110826980Y-90776102D01*
X110819788Y-90706604D01*
X110851310Y-90644249D01*
X110870606Y-90627530D01*
X111056601Y-90497295D01*
X111223695Y-90330201D01*
X111359235Y-90136630D01*
X111459103Y-89922463D01*
X111520263Y-89694208D01*
X111540859Y-89458800D01*
X111520263Y-89223392D01*
X111459103Y-88995137D01*
X111359235Y-88780971D01*
X111353786Y-88773188D01*
X111223694Y-88587397D01*
X111056602Y-88420306D01*
X111056596Y-88420301D01*
X110871042Y-88290375D01*
X110827417Y-88235798D01*
X110820223Y-88166300D01*
X110851746Y-88103945D01*
X110871042Y-88087225D01*
X110893226Y-88071691D01*
X111056601Y-87957295D01*
X111058277Y-87955619D01*
X111059195Y-87955117D01*
X111060744Y-87953818D01*
X111061005Y-87954129D01*
X111119600Y-87922134D01*
X111145958Y-87919300D01*
X114037417Y-87919300D01*
X114104456Y-87938985D01*
G37*
%TD.AperFunction*%
%TA.AperFunction,Conductor*%
G36*
X139286939Y-68803385D02*
G01*
X139332694Y-68856189D01*
X139343900Y-68907700D01*
X139343900Y-83629217D01*
X139324215Y-83696256D01*
X139271411Y-83742011D01*
X139202253Y-83751955D01*
X139138697Y-83722930D01*
X139132219Y-83716898D01*
X138435252Y-83019932D01*
X138373861Y-82955349D01*
X138373860Y-82955348D01*
X138373859Y-82955347D01*
X138346004Y-82935959D01*
X138323509Y-82920302D01*
X138319746Y-82917464D01*
X138272213Y-82878705D01*
X138241759Y-82862797D01*
X138235044Y-82858729D01*
X138206849Y-82839105D01*
X138206848Y-82839104D01*
X138201688Y-82835513D01*
X138202732Y-82834012D01*
X138159787Y-82790474D01*
X138151318Y-82768141D01*
X138151202Y-82768185D01*
X138098197Y-82626071D01*
X138098193Y-82626064D01*
X138011947Y-82510855D01*
X138011944Y-82510852D01*
X137896735Y-82424606D01*
X137896728Y-82424602D01*
X137761882Y-82374308D01*
X137761883Y-82374308D01*
X137702283Y-82367901D01*
X137702281Y-82367900D01*
X137702273Y-82367900D01*
X137702264Y-82367900D01*
X135906529Y-82367900D01*
X135906523Y-82367901D01*
X135846916Y-82374308D01*
X135712071Y-82424602D01*
X135712064Y-82424606D01*
X135596855Y-82510852D01*
X135596852Y-82510855D01*
X135510606Y-82626064D01*
X135510604Y-82626068D01*
X135510604Y-82626069D01*
X135506439Y-82637234D01*
X135464571Y-82693166D01*
X135399107Y-82717584D01*
X135390259Y-82717900D01*
X135140717Y-82717900D01*
X135051637Y-82715643D01*
X135051628Y-82715643D01*
X134991260Y-82726464D01*
X134986595Y-82727118D01*
X134925563Y-82733325D01*
X134925555Y-82733327D01*
X134892781Y-82743610D01*
X134885154Y-82745482D01*
X134851350Y-82751541D01*
X134794384Y-82774294D01*
X134789948Y-82775873D01*
X134731414Y-82794240D01*
X134731412Y-82794241D01*
X134701385Y-82810906D01*
X134694293Y-82814274D01*
X134662383Y-82827021D01*
X134611154Y-82860783D01*
X134607126Y-82863224D01*
X134553502Y-82892988D01*
X134553499Y-82892990D01*
X134527427Y-82915370D01*
X134521160Y-82920095D01*
X134492482Y-82938998D01*
X134492475Y-82939003D01*
X134449116Y-82982362D01*
X134445661Y-82985564D01*
X134399106Y-83025532D01*
X134399105Y-83025533D01*
X134378076Y-83052700D01*
X134372884Y-83058594D01*
X133718332Y-83713146D01*
X133653746Y-83774542D01*
X133618699Y-83824894D01*
X133615862Y-83828656D01*
X133577102Y-83876192D01*
X133577099Y-83876197D01*
X133561192Y-83906647D01*
X133557124Y-83913361D01*
X133537502Y-83941554D01*
X133513309Y-83997930D01*
X133511288Y-84002184D01*
X133482891Y-84056551D01*
X133482890Y-84056552D01*
X133473440Y-84089575D01*
X133470807Y-84096971D01*
X133457259Y-84128543D01*
X133444913Y-84188619D01*
X133443790Y-84193195D01*
X133426913Y-84252177D01*
X133426913Y-84252179D01*
X133424303Y-84286441D01*
X133423214Y-84294208D01*
X133417780Y-84320652D01*
X133416300Y-84327858D01*
X133416300Y-84389197D01*
X133416121Y-84393906D01*
X133411462Y-84455074D01*
X133413507Y-84471127D01*
X133415803Y-84489160D01*
X133416300Y-84496988D01*
X133416300Y-85847407D01*
X133398417Y-85911557D01*
X133345922Y-85998393D01*
X133295313Y-86160807D01*
X133288900Y-86231386D01*
X133288900Y-86744613D01*
X133295313Y-86815192D01*
X133295313Y-86815194D01*
X133295314Y-86815196D01*
X133345922Y-86977606D01*
X133426067Y-87110182D01*
X133433930Y-87123188D01*
X133536061Y-87225319D01*
X133569546Y-87286642D01*
X133564562Y-87356334D01*
X133536061Y-87400681D01*
X133433931Y-87502810D01*
X133433930Y-87502811D01*
X133345922Y-87648393D01*
X133295313Y-87810807D01*
X133288900Y-87881386D01*
X133288900Y-88394613D01*
X133295313Y-88465192D01*
X133345922Y-88627606D01*
X133433930Y-88773188D01*
X133554211Y-88893469D01*
X133554213Y-88893470D01*
X133554215Y-88893472D01*
X133657977Y-88956198D01*
X133685828Y-88979180D01*
X133691821Y-88985813D01*
X133691824Y-88985815D01*
X133691825Y-88985816D01*
X133693241Y-88986856D01*
X133709724Y-89001373D01*
X133710941Y-89002653D01*
X133784058Y-89053544D01*
X133855833Y-89106249D01*
X133857431Y-89106983D01*
X133876506Y-89117889D01*
X133877951Y-89118895D01*
X133959818Y-89154027D01*
X134040732Y-89191205D01*
X134042437Y-89191600D01*
X134063321Y-89198444D01*
X134064942Y-89199140D01*
X134152168Y-89217065D01*
X134238946Y-89237203D01*
X134240712Y-89237247D01*
X134262546Y-89239748D01*
X134264258Y-89240100D01*
X134264259Y-89240100D01*
X134353284Y-89240100D01*
X134442359Y-89242357D01*
X134442361Y-89242357D01*
X134442361Y-89242356D01*
X134442363Y-89242357D01*
X134443410Y-89242169D01*
X134444105Y-89242045D01*
X134465979Y-89240100D01*
X135441259Y-89240100D01*
X135508298Y-89259785D01*
X135553641Y-89311695D01*
X135630365Y-89476230D01*
X135630367Y-89476234D01*
X135765901Y-89669795D01*
X135765906Y-89669802D01*
X135932997Y-89836893D01*
X135933003Y-89836898D01*
X136118558Y-89966825D01*
X136162183Y-90021402D01*
X136169377Y-90090900D01*
X136137854Y-90153255D01*
X136118558Y-90169975D01*
X135932997Y-90299905D01*
X135765905Y-90466997D01*
X135630365Y-90660569D01*
X135630364Y-90660571D01*
X135530498Y-90874735D01*
X135530494Y-90874744D01*
X135508403Y-90957193D01*
X135472038Y-91016854D01*
X135409191Y-91047383D01*
X135388628Y-91049100D01*
X120099783Y-91049100D01*
X120032744Y-91029415D01*
X120012102Y-91012781D01*
X115219652Y-86220332D01*
X115158261Y-86155749D01*
X115158260Y-86155748D01*
X115158259Y-86155747D01*
X115122730Y-86131018D01*
X115107909Y-86120702D01*
X115104146Y-86117864D01*
X115056613Y-86079105D01*
X115056606Y-86079100D01*
X115026159Y-86063197D01*
X115019451Y-86059134D01*
X114991249Y-86039505D01*
X114991246Y-86039503D01*
X114991245Y-86039503D01*
X114991241Y-86039501D01*
X114934880Y-86015314D01*
X114930624Y-86013293D01*
X114876257Y-85984894D01*
X114876250Y-85984891D01*
X114876249Y-85984891D01*
X114864605Y-85981559D01*
X114843230Y-85975442D01*
X114835830Y-85972808D01*
X114804257Y-85959259D01*
X114804258Y-85959259D01*
X114744166Y-85946909D01*
X114739591Y-85945786D01*
X114680620Y-85928913D01*
X114680625Y-85928913D01*
X114646358Y-85926303D01*
X114638580Y-85925212D01*
X114604942Y-85918300D01*
X114604941Y-85918300D01*
X114543602Y-85918300D01*
X114538895Y-85918121D01*
X114533321Y-85917696D01*
X114477724Y-85913462D01*
X114457789Y-85916001D01*
X114443640Y-85917803D01*
X114435811Y-85918300D01*
X111145958Y-85918300D01*
X111078919Y-85898615D01*
X111058277Y-85881981D01*
X111056602Y-85880306D01*
X111056596Y-85880301D01*
X110871042Y-85750375D01*
X110827417Y-85695798D01*
X110820223Y-85626300D01*
X110851746Y-85563945D01*
X110871042Y-85547225D01*
X110949264Y-85492453D01*
X111056601Y-85417295D01*
X111223695Y-85250201D01*
X111359235Y-85056630D01*
X111459103Y-84842463D01*
X111520263Y-84614208D01*
X111540859Y-84378800D01*
X111520263Y-84143392D01*
X111470239Y-83956698D01*
X111459105Y-83915144D01*
X111459104Y-83915143D01*
X111459103Y-83915137D01*
X111359235Y-83700971D01*
X111305084Y-83623634D01*
X111223694Y-83507397D01*
X111222019Y-83505722D01*
X111221515Y-83504800D01*
X111220214Y-83503249D01*
X111220525Y-83502987D01*
X111188534Y-83444399D01*
X111185700Y-83418041D01*
X111185700Y-82914182D01*
X111205385Y-82847143D01*
X111222014Y-82826505D01*
X112204487Y-81844033D01*
X112269053Y-81782659D01*
X112304097Y-81732309D01*
X112306924Y-81728557D01*
X112345698Y-81681007D01*
X112361607Y-81650548D01*
X112365667Y-81643848D01*
X112385295Y-81615649D01*
X112409492Y-81559260D01*
X112411498Y-81555035D01*
X112439909Y-81500649D01*
X112449357Y-81467622D01*
X112451988Y-81460233D01*
X112465540Y-81428658D01*
X112477895Y-81368530D01*
X112478999Y-81364029D01*
X112495886Y-81305018D01*
X112498494Y-81270757D01*
X112499585Y-81262989D01*
X112506500Y-81229343D01*
X112506500Y-81167998D01*
X112506679Y-81163288D01*
X112506869Y-81160788D01*
X112511337Y-81102124D01*
X112506997Y-81068042D01*
X112506500Y-81060203D01*
X112506500Y-77974000D01*
X114961801Y-77974000D01*
X114961801Y-78561486D01*
X114972294Y-78664197D01*
X115027441Y-78830619D01*
X115027443Y-78830624D01*
X115119484Y-78979845D01*
X115243454Y-79103815D01*
X115392675Y-79195856D01*
X115392680Y-79195858D01*
X115559102Y-79251005D01*
X115559109Y-79251006D01*
X115661819Y-79261499D01*
X116386799Y-79261499D01*
X116386800Y-79261498D01*
X116386800Y-77974000D01*
X116886800Y-77974000D01*
X116886800Y-79261499D01*
X117611772Y-79261499D01*
X117611786Y-79261498D01*
X117714497Y-79251005D01*
X117880919Y-79195858D01*
X117880924Y-79195856D01*
X118030145Y-79103815D01*
X118154115Y-78979845D01*
X118246156Y-78830624D01*
X118246158Y-78830619D01*
X118301305Y-78664197D01*
X118301306Y-78664190D01*
X118311799Y-78561486D01*
X118311800Y-78561473D01*
X118311800Y-78225000D01*
X120293800Y-78225000D01*
X120293800Y-78865644D01*
X120296699Y-78902489D01*
X120296700Y-78902495D01*
X120342516Y-79060193D01*
X120342517Y-79060196D01*
X120426114Y-79201552D01*
X120426121Y-79201561D01*
X120542238Y-79317678D01*
X120542247Y-79317685D01*
X120683601Y-79401281D01*
X120841314Y-79447100D01*
X120841311Y-79447100D01*
X120843798Y-79447295D01*
X120843800Y-79447295D01*
X120843800Y-78225000D01*
X120293800Y-78225000D01*
X118311800Y-78225000D01*
X118311800Y-77974000D01*
X116886800Y-77974000D01*
X116386800Y-77974000D01*
X114961801Y-77974000D01*
X112506500Y-77974000D01*
X112506500Y-77725000D01*
X120293800Y-77725000D01*
X120843800Y-77725000D01*
X120843800Y-76502703D01*
X120841303Y-76502900D01*
X120683606Y-76548716D01*
X120683603Y-76548717D01*
X120542247Y-76632314D01*
X120542238Y-76632321D01*
X120426121Y-76748438D01*
X120426114Y-76748447D01*
X120342517Y-76889803D01*
X120342516Y-76889806D01*
X120296700Y-77047504D01*
X120296699Y-77047510D01*
X120293800Y-77084356D01*
X120293800Y-77725000D01*
X112506500Y-77725000D01*
X112506500Y-77474000D01*
X114961800Y-77474000D01*
X116386800Y-77474000D01*
X116386800Y-76186500D01*
X116886800Y-76186500D01*
X116886800Y-77474000D01*
X118311799Y-77474000D01*
X118311799Y-76886528D01*
X118311798Y-76886513D01*
X118301305Y-76783802D01*
X118246158Y-76617380D01*
X118246156Y-76617375D01*
X118154115Y-76468154D01*
X118030145Y-76344184D01*
X117880924Y-76252143D01*
X117880919Y-76252141D01*
X117714497Y-76196994D01*
X117714490Y-76196993D01*
X117611786Y-76186500D01*
X116886800Y-76186500D01*
X116386800Y-76186500D01*
X115661828Y-76186500D01*
X115661812Y-76186501D01*
X115559102Y-76196994D01*
X115392680Y-76252141D01*
X115392675Y-76252143D01*
X115243454Y-76344184D01*
X115119484Y-76468154D01*
X115027443Y-76617375D01*
X115027441Y-76617380D01*
X114972294Y-76783802D01*
X114972293Y-76783809D01*
X114961800Y-76886513D01*
X114961800Y-77474000D01*
X112506500Y-77474000D01*
X112506500Y-77073498D01*
X112517824Y-77021728D01*
X112559205Y-76931668D01*
X112561023Y-76923837D01*
X112605202Y-76733454D01*
X112610357Y-76530042D01*
X112610356Y-76530041D01*
X112610357Y-76530037D01*
X112577737Y-76348042D01*
X112574459Y-76329751D01*
X112574457Y-76329745D01*
X112571443Y-76322200D01*
X112498977Y-76140783D01*
X112441532Y-76053622D01*
X112426679Y-76022259D01*
X112424783Y-76016171D01*
X112423643Y-75946311D01*
X112460453Y-75886924D01*
X112523527Y-75856866D01*
X112543174Y-75855300D01*
X120661684Y-75855300D01*
X120750758Y-75857557D01*
X120750758Y-75857556D01*
X120750763Y-75857557D01*
X120811153Y-75846732D01*
X120815812Y-75846080D01*
X120858007Y-75841788D01*
X120876838Y-75839874D01*
X120909627Y-75829586D01*
X120917240Y-75827718D01*
X120951053Y-75821658D01*
X121008021Y-75798901D01*
X121012453Y-75797324D01*
X121070988Y-75778959D01*
X121101027Y-75762284D01*
X121108108Y-75758922D01*
X121140017Y-75746177D01*
X121191254Y-75712408D01*
X121195251Y-75709987D01*
X121248902Y-75680209D01*
X121274968Y-75657830D01*
X121281243Y-75653100D01*
X121309919Y-75634202D01*
X121353285Y-75590834D01*
X121356743Y-75587630D01*
X121385371Y-75563052D01*
X121403295Y-75547666D01*
X121424328Y-75520491D01*
X121429498Y-75514621D01*
X121654066Y-75290052D01*
X121715389Y-75256568D01*
X121785081Y-75261552D01*
X121831621Y-75292302D01*
X121874539Y-75337451D01*
X121874540Y-75337452D01*
X121875989Y-75338461D01*
X121892837Y-75352557D01*
X121895180Y-75354900D01*
X121898371Y-75358344D01*
X121938332Y-75404894D01*
X121938333Y-75404895D01*
X122008773Y-75459419D01*
X122077786Y-75515693D01*
X122077789Y-75515694D01*
X122077793Y-75515698D01*
X122079059Y-75516359D01*
X122079355Y-75516514D01*
X122097845Y-75528366D01*
X122099242Y-75529448D01*
X122152979Y-75555807D01*
X122179220Y-75568679D01*
X122221635Y-75590835D01*
X122258151Y-75609909D01*
X122259844Y-75610393D01*
X122280342Y-75618281D01*
X122281929Y-75619060D01*
X122368166Y-75641388D01*
X122453782Y-75665886D01*
X122455536Y-75666019D01*
X122477203Y-75669619D01*
X122478915Y-75670063D01*
X122567871Y-75674574D01*
X122585632Y-75675926D01*
X122656672Y-75681337D01*
X122656673Y-75681336D01*
X122656676Y-75681337D01*
X122658420Y-75681114D01*
X122680367Y-75680279D01*
X122682136Y-75680369D01*
X122770157Y-75666884D01*
X122858528Y-75655630D01*
X122860194Y-75655060D01*
X122881543Y-75649820D01*
X122883271Y-75649556D01*
X122966772Y-75618630D01*
X122992287Y-75609909D01*
X123051067Y-75589818D01*
X123051068Y-75589817D01*
X123051072Y-75589816D01*
X123052586Y-75588924D01*
X123072443Y-75579495D01*
X123074082Y-75578888D01*
X123074083Y-75578887D01*
X123074087Y-75578886D01*
X123074091Y-75578883D01*
X123074094Y-75578882D01*
X123124174Y-75547666D01*
X123149688Y-75531763D01*
X123226427Y-75486590D01*
X123227724Y-75485417D01*
X123245287Y-75472176D01*
X123246771Y-75471252D01*
X123264276Y-75454612D01*
X123311348Y-75409866D01*
X123362295Y-75363837D01*
X123377413Y-75350179D01*
X123378456Y-75348758D01*
X123392971Y-75332277D01*
X123394253Y-75331059D01*
X123445144Y-75257941D01*
X123497849Y-75186167D01*
X123498581Y-75184573D01*
X123509490Y-75165491D01*
X123510495Y-75164049D01*
X123545627Y-75082181D01*
X123582805Y-75001268D01*
X123583201Y-74999559D01*
X123590048Y-74978668D01*
X123590740Y-74977058D01*
X123602103Y-74921761D01*
X123608670Y-74889810D01*
X123623304Y-74826744D01*
X123628802Y-74803054D01*
X123628846Y-74801290D01*
X123631348Y-74779452D01*
X123631371Y-74779343D01*
X123631700Y-74777741D01*
X123631700Y-74688698D01*
X123633407Y-74621358D01*
X123654784Y-74554839D01*
X123708730Y-74510437D01*
X123757367Y-74500500D01*
X123849496Y-74500500D01*
X123867931Y-74499049D01*
X123886369Y-74497598D01*
X123886371Y-74497597D01*
X123886373Y-74497597D01*
X123927991Y-74485505D01*
X124044198Y-74451744D01*
X124185665Y-74368081D01*
X124185670Y-74368075D01*
X124191831Y-74363298D01*
X124193733Y-74365750D01*
X124242379Y-74339155D01*
X124312074Y-74344104D01*
X124344495Y-74364940D01*
X124345769Y-74363298D01*
X124351932Y-74368078D01*
X124351935Y-74368081D01*
X124493402Y-74451744D01*
X124508805Y-74456219D01*
X124651226Y-74497597D01*
X124651229Y-74497597D01*
X124651231Y-74497598D01*
X124663522Y-74498565D01*
X124688104Y-74500500D01*
X124688106Y-74500500D01*
X125119496Y-74500500D01*
X125137931Y-74499049D01*
X125156369Y-74497598D01*
X125156371Y-74497597D01*
X125156373Y-74497597D01*
X125197991Y-74485505D01*
X125314198Y-74451744D01*
X125455665Y-74368081D01*
X125571881Y-74251865D01*
X125655544Y-74110398D01*
X125692417Y-73983482D01*
X125701397Y-73952573D01*
X125701398Y-73952567D01*
X125701558Y-73950542D01*
X125704300Y-73915694D01*
X125704300Y-73667745D01*
X125723985Y-73600706D01*
X125730245Y-73591843D01*
X125757244Y-73556963D01*
X125757243Y-73556963D01*
X125757248Y-73556958D01*
X125846860Y-73374271D01*
X125897863Y-73177285D01*
X125897994Y-73174700D01*
X127611001Y-73174700D01*
X127611001Y-73762186D01*
X127621494Y-73864897D01*
X127676641Y-74031319D01*
X127676643Y-74031324D01*
X127768684Y-74180545D01*
X127892654Y-74304515D01*
X128041875Y-74396556D01*
X128041880Y-74396558D01*
X128208302Y-74451705D01*
X128208309Y-74451706D01*
X128311019Y-74462199D01*
X129035999Y-74462199D01*
X129036000Y-74462198D01*
X129036000Y-73174700D01*
X129536000Y-73174700D01*
X129536000Y-74462199D01*
X130260972Y-74462199D01*
X130260986Y-74462198D01*
X130363697Y-74451705D01*
X130530119Y-74396558D01*
X130530124Y-74396556D01*
X130679345Y-74304515D01*
X130803315Y-74180545D01*
X130895356Y-74031324D01*
X130895358Y-74031319D01*
X130950505Y-73864897D01*
X130950506Y-73864890D01*
X130960999Y-73762186D01*
X130961000Y-73762173D01*
X130961000Y-73174700D01*
X129536000Y-73174700D01*
X129036000Y-73174700D01*
X127611001Y-73174700D01*
X125897994Y-73174700D01*
X125908169Y-72974064D01*
X125877356Y-72772929D01*
X125806686Y-72582113D01*
X125766038Y-72516898D01*
X125723068Y-72447958D01*
X125704300Y-72382367D01*
X125704300Y-72134304D01*
X125701398Y-72097432D01*
X125701397Y-72097426D01*
X125655545Y-71939606D01*
X125655544Y-71939603D01*
X125655544Y-71939602D01*
X125571881Y-71798135D01*
X125571879Y-71798133D01*
X125571876Y-71798129D01*
X125455670Y-71681923D01*
X125455662Y-71681917D01*
X125352419Y-71620860D01*
X125314198Y-71598256D01*
X125314197Y-71598255D01*
X125314196Y-71598255D01*
X125314193Y-71598254D01*
X125156373Y-71552402D01*
X125156367Y-71552401D01*
X125119496Y-71549500D01*
X125119494Y-71549500D01*
X124688106Y-71549500D01*
X124688104Y-71549500D01*
X124651232Y-71552401D01*
X124651226Y-71552402D01*
X124493406Y-71598254D01*
X124493403Y-71598255D01*
X124351937Y-71681917D01*
X124345769Y-71686702D01*
X124343872Y-71684256D01*
X124295158Y-71710857D01*
X124225466Y-71705873D01*
X124193096Y-71685069D01*
X124191831Y-71686702D01*
X124185662Y-71681917D01*
X124082419Y-71620860D01*
X124044198Y-71598256D01*
X124044197Y-71598255D01*
X124044196Y-71598255D01*
X124044193Y-71598254D01*
X123886373Y-71552402D01*
X123886367Y-71552401D01*
X123849496Y-71549500D01*
X123849494Y-71549500D01*
X123418106Y-71549500D01*
X123418104Y-71549500D01*
X123381232Y-71552401D01*
X123381226Y-71552402D01*
X123223406Y-71598254D01*
X123223403Y-71598255D01*
X123081937Y-71681917D01*
X123075769Y-71686702D01*
X123073872Y-71684256D01*
X123025158Y-71710857D01*
X122955466Y-71705873D01*
X122923096Y-71685069D01*
X122921831Y-71686702D01*
X122915662Y-71681917D01*
X122812419Y-71620860D01*
X122774198Y-71598256D01*
X122774197Y-71598255D01*
X122774196Y-71598255D01*
X122774193Y-71598254D01*
X122616373Y-71552402D01*
X122616367Y-71552401D01*
X122579496Y-71549500D01*
X122579494Y-71549500D01*
X122148106Y-71549500D01*
X122148104Y-71549500D01*
X122111232Y-71552401D01*
X122111226Y-71552402D01*
X121953406Y-71598254D01*
X121953403Y-71598255D01*
X121811937Y-71681917D01*
X121805769Y-71686702D01*
X121803872Y-71684256D01*
X121755158Y-71710857D01*
X121685466Y-71705873D01*
X121653096Y-71685069D01*
X121651831Y-71686702D01*
X121645662Y-71681917D01*
X121542419Y-71620860D01*
X121504198Y-71598256D01*
X121504197Y-71598255D01*
X121504196Y-71598255D01*
X121504193Y-71598254D01*
X121346373Y-71552402D01*
X121346367Y-71552401D01*
X121309496Y-71549500D01*
X121309494Y-71549500D01*
X120878106Y-71549500D01*
X120878104Y-71549500D01*
X120841232Y-71552401D01*
X120841226Y-71552402D01*
X120683406Y-71598254D01*
X120683403Y-71598255D01*
X120541937Y-71681917D01*
X120541929Y-71681923D01*
X120425723Y-71798129D01*
X120425717Y-71798137D01*
X120342055Y-71939603D01*
X120342054Y-71939606D01*
X120296202Y-72097426D01*
X120296201Y-72097432D01*
X120293300Y-72134304D01*
X120293300Y-72384836D01*
X120273615Y-72451875D01*
X120271075Y-72455672D01*
X120214507Y-72536947D01*
X120134259Y-72723943D01*
X120093300Y-72923258D01*
X120093300Y-73730300D01*
X120073615Y-73797339D01*
X120020811Y-73843094D01*
X119969300Y-73854300D01*
X118427364Y-73854300D01*
X118360325Y-73834615D01*
X118314570Y-73781811D01*
X118304006Y-73717698D01*
X118312299Y-73636518D01*
X118312299Y-73636516D01*
X118312300Y-73636509D01*
X118312299Y-71961492D01*
X118301799Y-71858703D01*
X118246614Y-71692166D01*
X118154512Y-71542844D01*
X118059449Y-71447781D01*
X118025964Y-71386458D01*
X118030948Y-71316766D01*
X118072820Y-71260833D01*
X118138284Y-71236416D01*
X118147130Y-71236100D01*
X127956035Y-71236100D01*
X128023074Y-71255785D01*
X128068829Y-71308589D01*
X128078773Y-71377747D01*
X128049748Y-71441303D01*
X128021132Y-71465639D01*
X127892654Y-71544884D01*
X127768684Y-71668854D01*
X127676643Y-71818075D01*
X127676641Y-71818080D01*
X127621494Y-71984502D01*
X127621493Y-71984509D01*
X127611000Y-72087213D01*
X127611000Y-72674700D01*
X130960999Y-72674700D01*
X130960999Y-72087228D01*
X130960998Y-72087213D01*
X130950505Y-71984502D01*
X130895358Y-71818080D01*
X130895356Y-71818075D01*
X130803315Y-71668854D01*
X130679345Y-71544884D01*
X130550868Y-71465639D01*
X130504144Y-71413691D01*
X130492921Y-71344728D01*
X130520765Y-71280646D01*
X130578833Y-71241790D01*
X130615965Y-71236100D01*
X131615900Y-71236100D01*
X131682939Y-71255785D01*
X131728694Y-71308589D01*
X131739900Y-71360100D01*
X131739900Y-75108283D01*
X131737643Y-75197362D01*
X131737643Y-75197370D01*
X131748464Y-75257739D01*
X131749118Y-75262404D01*
X131755325Y-75323430D01*
X131755327Y-75323444D01*
X131765608Y-75356213D01*
X131767479Y-75363837D01*
X131773542Y-75397652D01*
X131773542Y-75397655D01*
X131796294Y-75454612D01*
X131797874Y-75459051D01*
X131816241Y-75517588D01*
X131816244Y-75517595D01*
X131832909Y-75547619D01*
X131836279Y-75554714D01*
X131849022Y-75586614D01*
X131849027Y-75586624D01*
X131882777Y-75637833D01*
X131885218Y-75641863D01*
X131914988Y-75695498D01*
X131914989Y-75695499D01*
X131914991Y-75695502D01*
X131937368Y-75721567D01*
X131942093Y-75727835D01*
X131954181Y-75746176D01*
X131960998Y-75756519D01*
X132004378Y-75799899D01*
X132007569Y-75803343D01*
X132044449Y-75846302D01*
X132047534Y-75849895D01*
X132073483Y-75869981D01*
X132074694Y-75870918D01*
X132080590Y-75876111D01*
X132583725Y-76379246D01*
X132602161Y-76402777D01*
X132620885Y-76433750D01*
X132638721Y-76501304D01*
X132617204Y-76567778D01*
X132563163Y-76612066D01*
X132514768Y-76621900D01*
X130883430Y-76621900D01*
X130816391Y-76602215D01*
X130795749Y-76585581D01*
X130679657Y-76469489D01*
X130679656Y-76469488D01*
X130571500Y-76402777D01*
X130530336Y-76377387D01*
X130530331Y-76377385D01*
X130515909Y-76372606D01*
X130363797Y-76322201D01*
X130363795Y-76322200D01*
X130261010Y-76311700D01*
X128310998Y-76311700D01*
X128310981Y-76311701D01*
X128208203Y-76322200D01*
X128208200Y-76322201D01*
X128041668Y-76377385D01*
X128041663Y-76377387D01*
X127892342Y-76469489D01*
X127768289Y-76593542D01*
X127676187Y-76742863D01*
X127676185Y-76742868D01*
X127663666Y-76780649D01*
X127621001Y-76909403D01*
X127621001Y-76909404D01*
X127621000Y-76909404D01*
X127610500Y-77012183D01*
X127610500Y-78687201D01*
X127610501Y-78687218D01*
X127621000Y-78789996D01*
X127621001Y-78789999D01*
X127676185Y-78956531D01*
X127676187Y-78956536D01*
X127700964Y-78996706D01*
X127766280Y-79102601D01*
X127768289Y-79105857D01*
X127842781Y-79180349D01*
X127876266Y-79241672D01*
X127879100Y-79268030D01*
X127879100Y-80460300D01*
X127859415Y-80527339D01*
X127806611Y-80573094D01*
X127755100Y-80584300D01*
X125518028Y-80584300D01*
X125450989Y-80564615D01*
X125405234Y-80511811D01*
X125395290Y-80442653D01*
X125397238Y-80432270D01*
X125406802Y-80391054D01*
X125407888Y-80348198D01*
X125411957Y-80187642D01*
X125411956Y-80187641D01*
X125411957Y-80187637D01*
X125380689Y-80013183D01*
X125376059Y-79987351D01*
X125376057Y-79987345D01*
X125366790Y-79964145D01*
X125300577Y-79798383D01*
X125300572Y-79798376D01*
X125300570Y-79798371D01*
X125188603Y-79628482D01*
X125184626Y-79623604D01*
X125185672Y-79622750D01*
X125155556Y-79567596D01*
X125160540Y-79497904D01*
X125202412Y-79441971D01*
X125242129Y-79422161D01*
X125313996Y-79401282D01*
X125455352Y-79317685D01*
X125455361Y-79317678D01*
X125571478Y-79201561D01*
X125571485Y-79201552D01*
X125655082Y-79060196D01*
X125655083Y-79060193D01*
X125700899Y-78902495D01*
X125700900Y-78902489D01*
X125703800Y-78865644D01*
X125703800Y-78225000D01*
X124777800Y-78225000D01*
X124710761Y-78205315D01*
X124665006Y-78152511D01*
X124653800Y-78101000D01*
X124653800Y-76502703D01*
X125153800Y-76502703D01*
X125153800Y-77725000D01*
X125703800Y-77725000D01*
X125703800Y-77084356D01*
X125700900Y-77047510D01*
X125700899Y-77047504D01*
X125655083Y-76889806D01*
X125655082Y-76889803D01*
X125571485Y-76748447D01*
X125571478Y-76748438D01*
X125455361Y-76632321D01*
X125455352Y-76632314D01*
X125313996Y-76548717D01*
X125313993Y-76548716D01*
X125156294Y-76502900D01*
X125156297Y-76502900D01*
X125153800Y-76502703D01*
X124653800Y-76502703D01*
X124651303Y-76502900D01*
X124493606Y-76548716D01*
X124493603Y-76548717D01*
X124352249Y-76632313D01*
X124346083Y-76637097D01*
X124344189Y-76634655D01*
X124295380Y-76661239D01*
X124225694Y-76656179D01*
X124193027Y-76635159D01*
X124191831Y-76636702D01*
X124185662Y-76631917D01*
X124056836Y-76555730D01*
X124044198Y-76548256D01*
X124044197Y-76548255D01*
X124044196Y-76548255D01*
X124044193Y-76548254D01*
X123886373Y-76502402D01*
X123886367Y-76502401D01*
X123849496Y-76499500D01*
X123849494Y-76499500D01*
X123418106Y-76499500D01*
X123418104Y-76499500D01*
X123381232Y-76502401D01*
X123381226Y-76502402D01*
X123223406Y-76548254D01*
X123223403Y-76548255D01*
X123081937Y-76631917D01*
X123075769Y-76636702D01*
X123073872Y-76634256D01*
X123025158Y-76660857D01*
X122955466Y-76655873D01*
X122923096Y-76635069D01*
X122921831Y-76636702D01*
X122915662Y-76631917D01*
X122786836Y-76555730D01*
X122774198Y-76548256D01*
X122774197Y-76548255D01*
X122774196Y-76548255D01*
X122774193Y-76548254D01*
X122616373Y-76502402D01*
X122616367Y-76502401D01*
X122579496Y-76499500D01*
X122579494Y-76499500D01*
X122148106Y-76499500D01*
X122148104Y-76499500D01*
X122111232Y-76502401D01*
X122111226Y-76502402D01*
X121953406Y-76548254D01*
X121953403Y-76548255D01*
X121811940Y-76631915D01*
X121805774Y-76636699D01*
X121803974Y-76634379D01*
X121754713Y-76661230D01*
X121685025Y-76656193D01*
X121652792Y-76635461D01*
X121651522Y-76637100D01*
X121645352Y-76632314D01*
X121503996Y-76548717D01*
X121503993Y-76548716D01*
X121346294Y-76502900D01*
X121346297Y-76502900D01*
X121343800Y-76502703D01*
X121343800Y-79462488D01*
X121359337Y-79488462D01*
X121363300Y-79519559D01*
X121363300Y-80491883D01*
X121361043Y-80580962D01*
X121361043Y-80580970D01*
X121370180Y-80631945D01*
X121371182Y-80637537D01*
X121371864Y-80641339D01*
X121372518Y-80646004D01*
X121378725Y-80707030D01*
X121378727Y-80707044D01*
X121389008Y-80739813D01*
X121390879Y-80747437D01*
X121396942Y-80781252D01*
X121396942Y-80781255D01*
X121410663Y-80815604D01*
X121417762Y-80833377D01*
X121419694Y-80838212D01*
X121421274Y-80842651D01*
X121439641Y-80901188D01*
X121439644Y-80901195D01*
X121456309Y-80931219D01*
X121459679Y-80938314D01*
X121472422Y-80970214D01*
X121472427Y-80970224D01*
X121487205Y-80992646D01*
X121500399Y-81012667D01*
X121506177Y-81021433D01*
X121508618Y-81025463D01*
X121538388Y-81079098D01*
X121538389Y-81079099D01*
X121538391Y-81079102D01*
X121560768Y-81105167D01*
X121565493Y-81111435D01*
X121568790Y-81116437D01*
X121584398Y-81140119D01*
X121627778Y-81183499D01*
X121630969Y-81186943D01*
X121669181Y-81231453D01*
X121670934Y-81233495D01*
X121690173Y-81248387D01*
X121698094Y-81254518D01*
X121703990Y-81259711D01*
X122727566Y-82283287D01*
X122788941Y-82347853D01*
X122788944Y-82347855D01*
X122788945Y-82347856D01*
X122839295Y-82382901D01*
X122843047Y-82385729D01*
X122890592Y-82424497D01*
X122890595Y-82424498D01*
X122890597Y-82424500D01*
X122921039Y-82440401D01*
X122927753Y-82444468D01*
X122946068Y-82457216D01*
X122955947Y-82464092D01*
X122955953Y-82464096D01*
X123012331Y-82488290D01*
X123016569Y-82490302D01*
X123070951Y-82518709D01*
X123103973Y-82528156D01*
X123111365Y-82530789D01*
X123137732Y-82542104D01*
X123142942Y-82544340D01*
X123203049Y-82556691D01*
X123207595Y-82557806D01*
X123266582Y-82574686D01*
X123300829Y-82577293D01*
X123308600Y-82578382D01*
X123342259Y-82585300D01*
X123403611Y-82585300D01*
X123408317Y-82585478D01*
X123469476Y-82590136D01*
X123497716Y-82586539D01*
X123503549Y-82585797D01*
X123511389Y-82585300D01*
X128852671Y-82585300D01*
X128855811Y-82585380D01*
X128882668Y-82586741D01*
X128930536Y-82589169D01*
X129004495Y-82577838D01*
X129007592Y-82577443D01*
X129082038Y-82569874D01*
X129097411Y-82565050D01*
X129115749Y-82560795D01*
X129120073Y-82560132D01*
X129131671Y-82558356D01*
X129201866Y-82532358D01*
X129204750Y-82531372D01*
X129276188Y-82508959D01*
X129290270Y-82501141D01*
X129307382Y-82493279D01*
X129322487Y-82487686D01*
X129386021Y-82448083D01*
X129388641Y-82446541D01*
X129454102Y-82410209D01*
X129466324Y-82399715D01*
X129481498Y-82388573D01*
X129495171Y-82380052D01*
X129549435Y-82328468D01*
X129551698Y-82326424D01*
X129608495Y-82277666D01*
X129618350Y-82264933D01*
X129630974Y-82250961D01*
X129635700Y-82246468D01*
X129642653Y-82239859D01*
X129647148Y-82233399D01*
X129701600Y-82189622D01*
X129771078Y-82182231D01*
X129833522Y-82213576D01*
X129836605Y-82216555D01*
X129882522Y-82262472D01*
X130028004Y-82350419D01*
X130028003Y-82350419D01*
X130190294Y-82400990D01*
X130190293Y-82400990D01*
X130260808Y-82407398D01*
X130260826Y-82407399D01*
X130267399Y-82407398D01*
X130267400Y-82407398D01*
X130267400Y-81682400D01*
X130767400Y-81682400D01*
X130767400Y-82407399D01*
X130773981Y-82407399D01*
X130844502Y-82400991D01*
X130844507Y-82400990D01*
X131006796Y-82350418D01*
X131152277Y-82262472D01*
X131272472Y-82142277D01*
X131360419Y-81996795D01*
X131410990Y-81834506D01*
X131417400Y-81763972D01*
X131417400Y-81682400D01*
X130767400Y-81682400D01*
X130267400Y-81682400D01*
X130267400Y-80457400D01*
X130767400Y-80457400D01*
X130767400Y-81182400D01*
X131417399Y-81182400D01*
X131417399Y-81100817D01*
X131410991Y-81030297D01*
X131410990Y-81030292D01*
X131360418Y-80868003D01*
X131272472Y-80722522D01*
X131152277Y-80602327D01*
X131006795Y-80514380D01*
X131006796Y-80514380D01*
X130844505Y-80463809D01*
X130844506Y-80463809D01*
X130773972Y-80457400D01*
X130767400Y-80457400D01*
X130267400Y-80457400D01*
X130267399Y-80457399D01*
X130260836Y-80457400D01*
X130260817Y-80457401D01*
X130190297Y-80463808D01*
X130190289Y-80463809D01*
X130040990Y-80510333D01*
X129971130Y-80511485D01*
X129911738Y-80474684D01*
X129881670Y-80411615D01*
X129880100Y-80391948D01*
X129880100Y-79511699D01*
X129899785Y-79444660D01*
X129952589Y-79398905D01*
X130004100Y-79387699D01*
X130261002Y-79387699D01*
X130261008Y-79387699D01*
X130363797Y-79377199D01*
X130530334Y-79322014D01*
X130679656Y-79229912D01*
X130803712Y-79105856D01*
X130895814Y-78956534D01*
X130950999Y-78789997D01*
X130956689Y-78734296D01*
X130983085Y-78669606D01*
X131040265Y-78629455D01*
X131080047Y-78622900D01*
X133400284Y-78622900D01*
X133489358Y-78625157D01*
X133489358Y-78625156D01*
X133489363Y-78625157D01*
X133549753Y-78614332D01*
X133554412Y-78613680D01*
X133596607Y-78609388D01*
X133615438Y-78607474D01*
X133648227Y-78597186D01*
X133655840Y-78595318D01*
X133689653Y-78589258D01*
X133746621Y-78566501D01*
X133751053Y-78564924D01*
X133762052Y-78561473D01*
X133809588Y-78546559D01*
X133839627Y-78529884D01*
X133846708Y-78526522D01*
X133878617Y-78513777D01*
X133929854Y-78480008D01*
X133933851Y-78477587D01*
X133987502Y-78447809D01*
X134013568Y-78425430D01*
X134019843Y-78420700D01*
X134029850Y-78414105D01*
X134048519Y-78401802D01*
X134073645Y-78376674D01*
X134097179Y-78358237D01*
X134212580Y-78288475D01*
X134212579Y-78288475D01*
X134212585Y-78288472D01*
X134332872Y-78168185D01*
X134420878Y-78022606D01*
X134471486Y-77860196D01*
X134477900Y-77789616D01*
X134477900Y-77778088D01*
X134482685Y-77743974D01*
X134484365Y-77738104D01*
X134492287Y-77710418D01*
X134507737Y-77507523D01*
X134507174Y-77503106D01*
X134482031Y-77305678D01*
X134481109Y-77301704D01*
X134478530Y-77279178D01*
X134478028Y-77279201D01*
X134477900Y-77276390D01*
X134477900Y-77276384D01*
X134471486Y-77205804D01*
X134420878Y-77043394D01*
X134332872Y-76897815D01*
X134332870Y-76897813D01*
X134332869Y-76897811D01*
X134230739Y-76795681D01*
X134197254Y-76734358D01*
X134202238Y-76664666D01*
X134230739Y-76620319D01*
X134332868Y-76518189D01*
X134332869Y-76518188D01*
X134332872Y-76518185D01*
X134420878Y-76372606D01*
X134471486Y-76210196D01*
X134477900Y-76139616D01*
X134477900Y-76119498D01*
X134481110Y-76091466D01*
X134482792Y-76084221D01*
X134500003Y-76010054D01*
X134505157Y-75806637D01*
X134482659Y-75681115D01*
X134479845Y-75665413D01*
X134477900Y-75643537D01*
X134477900Y-75626386D01*
X134477900Y-75626384D01*
X134471486Y-75555804D01*
X134420878Y-75393394D01*
X134332872Y-75247815D01*
X134332870Y-75247813D01*
X134332869Y-75247811D01*
X134212589Y-75127531D01*
X134212585Y-75127528D01*
X134097173Y-75057758D01*
X134073643Y-75039323D01*
X133777219Y-74742899D01*
X133743734Y-74681576D01*
X133740900Y-74655218D01*
X133740900Y-71831204D01*
X134005202Y-71831204D01*
X134023967Y-72081619D01*
X134077994Y-72318325D01*
X134079848Y-72326447D01*
X134079850Y-72326452D01*
X134171594Y-72560211D01*
X134171593Y-72560211D01*
X134229798Y-72661023D01*
X134297155Y-72777689D01*
X134408949Y-72917874D01*
X134453731Y-72974029D01*
X134560851Y-73073421D01*
X134637814Y-73144832D01*
X134845301Y-73286294D01*
X134845306Y-73286296D01*
X134845307Y-73286297D01*
X134845308Y-73286298D01*
X134965470Y-73344164D01*
X135071555Y-73395252D01*
X135112549Y-73407897D01*
X135115203Y-73408783D01*
X135118375Y-73409922D01*
X135118389Y-73409929D01*
X135121784Y-73410862D01*
X135125243Y-73411813D01*
X135311523Y-73469273D01*
X135334326Y-73472709D01*
X135358411Y-73476339D01*
X135365595Y-73477862D01*
X135366026Y-73477981D01*
X135366031Y-73477981D01*
X135366033Y-73477982D01*
X135369625Y-73478396D01*
X135380010Y-73479595D01*
X135559839Y-73506700D01*
X135611219Y-73506700D01*
X135618333Y-73507108D01*
X135621149Y-73507434D01*
X135639400Y-73506734D01*
X135640299Y-73506700D01*
X135810961Y-73506700D01*
X135865767Y-73498439D01*
X135872617Y-73497794D01*
X135877777Y-73497597D01*
X135900152Y-73493256D01*
X136059279Y-73469272D01*
X136116133Y-73451734D01*
X136122592Y-73450117D01*
X136129897Y-73448701D01*
X136152537Y-73440569D01*
X136155060Y-73439727D01*
X136299245Y-73395252D01*
X136356598Y-73367632D01*
X136362508Y-73365156D01*
X136371598Y-73361892D01*
X136394139Y-73349634D01*
X136396777Y-73348282D01*
X136525499Y-73286294D01*
X136581555Y-73248075D01*
X136586846Y-73244844D01*
X136597215Y-73239206D01*
X136618373Y-73223077D01*
X136620988Y-73221190D01*
X136732986Y-73144832D01*
X136785884Y-73095749D01*
X136790423Y-73091929D01*
X136801460Y-73083517D01*
X136820233Y-73064010D01*
X136822689Y-73061599D01*
X136917072Y-72974025D01*
X136920304Y-72969973D01*
X136946464Y-72937169D01*
X136964772Y-72914210D01*
X136968565Y-72909883D01*
X136979546Y-72898474D01*
X136995119Y-72876333D01*
X136997307Y-72873413D01*
X137073645Y-72777689D01*
X137114157Y-72707520D01*
X137117091Y-72702926D01*
X137127298Y-72688416D01*
X137139144Y-72664489D01*
X137140986Y-72661050D01*
X137199206Y-72560211D01*
X137230478Y-72480529D01*
X137232603Y-72475732D01*
X137241252Y-72458265D01*
X137249100Y-72433464D01*
X137250482Y-72429561D01*
X137290952Y-72326447D01*
X137311047Y-72238401D01*
X137312367Y-72233552D01*
X137318740Y-72213416D01*
X137322574Y-72188590D01*
X137323386Y-72184342D01*
X137346832Y-72081621D01*
X137353944Y-71986704D01*
X137354486Y-71981978D01*
X137357942Y-71959609D01*
X137358584Y-71926067D01*
X137358743Y-71922666D01*
X137365598Y-71831200D01*
X137365587Y-71831059D01*
X137360641Y-71765054D01*
X137358744Y-71739738D01*
X137358584Y-71736330D01*
X137357942Y-71702791D01*
X137354488Y-71680433D01*
X137353942Y-71675670D01*
X137346832Y-71580779D01*
X137323392Y-71478084D01*
X137322567Y-71473763D01*
X137321312Y-71465639D01*
X137318740Y-71448984D01*
X137312371Y-71428859D01*
X137311040Y-71423965D01*
X137298311Y-71368193D01*
X137290955Y-71335963D01*
X137290953Y-71335957D01*
X137290952Y-71335953D01*
X137250482Y-71232838D01*
X137249101Y-71228937D01*
X137241252Y-71204135D01*
X137232607Y-71186676D01*
X137230473Y-71181856D01*
X137199206Y-71102189D01*
X137140991Y-71001358D01*
X137139134Y-70997889D01*
X137127298Y-70973984D01*
X137117108Y-70959497D01*
X137114126Y-70954826D01*
X137073646Y-70884713D01*
X137073645Y-70884711D01*
X137020220Y-70817718D01*
X136997336Y-70789022D01*
X136995098Y-70786035D01*
X136979549Y-70763930D01*
X136979538Y-70763917D01*
X136968567Y-70752517D01*
X136964765Y-70748179D01*
X136931476Y-70706437D01*
X136917072Y-70688375D01*
X136822705Y-70600815D01*
X136820218Y-70598374D01*
X136801460Y-70578883D01*
X136790440Y-70570483D01*
X136785857Y-70566625D01*
X136732986Y-70517567D01*
X136621015Y-70441226D01*
X136618355Y-70439308D01*
X136597212Y-70423192D01*
X136586854Y-70417559D01*
X136581546Y-70414318D01*
X136525499Y-70376106D01*
X136396806Y-70314130D01*
X136394100Y-70312744D01*
X136382539Y-70306457D01*
X136371595Y-70300506D01*
X136362519Y-70297247D01*
X136356570Y-70294754D01*
X136299250Y-70267150D01*
X136299247Y-70267149D01*
X136299245Y-70267148D01*
X136245562Y-70250589D01*
X136155142Y-70222697D01*
X136152461Y-70221803D01*
X136129904Y-70213701D01*
X136129899Y-70213700D01*
X136129897Y-70213699D01*
X136129887Y-70213697D01*
X136122582Y-70212279D01*
X136116118Y-70210660D01*
X136059288Y-70193130D01*
X136059284Y-70193129D01*
X136059280Y-70193128D01*
X136059279Y-70193128D01*
X136001499Y-70184419D01*
X135900173Y-70169146D01*
X135877776Y-70164802D01*
X135877777Y-70164802D01*
X135872605Y-70164604D01*
X135865745Y-70163957D01*
X135810969Y-70155700D01*
X135810961Y-70155700D01*
X135640299Y-70155700D01*
X135621147Y-70154965D01*
X135618334Y-70155291D01*
X135611219Y-70155700D01*
X135559831Y-70155700D01*
X135380017Y-70182803D01*
X135366022Y-70184419D01*
X135366010Y-70184421D01*
X135365564Y-70184544D01*
X135358397Y-70186062D01*
X135311514Y-70193129D01*
X135125235Y-70250589D01*
X135118377Y-70252474D01*
X135115163Y-70253628D01*
X135112489Y-70254521D01*
X135071553Y-70267148D01*
X134845308Y-70376101D01*
X134845307Y-70376102D01*
X134637813Y-70517568D01*
X134453731Y-70688370D01*
X134297155Y-70884711D01*
X134171594Y-71102188D01*
X134087378Y-71316766D01*
X134079849Y-71335952D01*
X134079845Y-71335964D01*
X134023967Y-71580780D01*
X134005202Y-71831195D01*
X134005202Y-71831204D01*
X133740900Y-71831204D01*
X133740900Y-70421515D01*
X133743157Y-70332441D01*
X133743156Y-70332440D01*
X133743157Y-70332437D01*
X133732333Y-70272049D01*
X133731680Y-70267387D01*
X133725474Y-70206363D01*
X133723196Y-70199103D01*
X133715184Y-70173568D01*
X133713317Y-70165955D01*
X133713110Y-70164802D01*
X133707258Y-70132147D01*
X133684495Y-70075161D01*
X133682927Y-70070755D01*
X133673767Y-70041560D01*
X133664561Y-70012216D01*
X133664560Y-70012214D01*
X133647892Y-69982185D01*
X133644524Y-69975095D01*
X133631778Y-69943183D01*
X133598012Y-69891950D01*
X133595583Y-69887942D01*
X133565809Y-69834298D01*
X133543434Y-69808234D01*
X133538706Y-69801963D01*
X133519804Y-69773284D01*
X133519799Y-69773278D01*
X133498115Y-69751595D01*
X133476419Y-69729899D01*
X133473228Y-69726455D01*
X133433265Y-69679904D01*
X133406094Y-69658872D01*
X133400199Y-69653679D01*
X133283652Y-69537132D01*
X133222261Y-69472549D01*
X133222260Y-69472548D01*
X133222259Y-69472547D01*
X133194404Y-69453159D01*
X133171909Y-69437502D01*
X133168146Y-69434664D01*
X133120613Y-69395905D01*
X133120606Y-69395900D01*
X133090159Y-69379997D01*
X133083451Y-69375934D01*
X133055249Y-69356305D01*
X133055246Y-69356303D01*
X133055245Y-69356303D01*
X133055241Y-69356301D01*
X132998880Y-69332114D01*
X132994624Y-69330093D01*
X132940257Y-69301694D01*
X132940250Y-69301691D01*
X132940249Y-69301691D01*
X132934208Y-69299962D01*
X132907230Y-69292242D01*
X132899830Y-69289608D01*
X132868257Y-69276059D01*
X132868258Y-69276059D01*
X132808166Y-69263709D01*
X132803591Y-69262586D01*
X132744620Y-69245713D01*
X132744625Y-69245713D01*
X132710358Y-69243103D01*
X132702580Y-69242012D01*
X132668942Y-69235100D01*
X132668941Y-69235100D01*
X132607602Y-69235100D01*
X132602895Y-69234921D01*
X132597321Y-69234496D01*
X132541724Y-69230262D01*
X132521789Y-69232801D01*
X132507640Y-69234603D01*
X132499811Y-69235100D01*
X114736156Y-69235100D01*
X114687256Y-69225051D01*
X114653802Y-69210695D01*
X114630072Y-69200511D01*
X114625823Y-69198493D01*
X114590438Y-69180010D01*
X114571449Y-69170091D01*
X114565408Y-69168362D01*
X114538430Y-69160642D01*
X114531030Y-69158008D01*
X114499457Y-69144459D01*
X114499458Y-69144459D01*
X114439366Y-69132109D01*
X114434791Y-69130986D01*
X114375820Y-69114113D01*
X114375825Y-69114113D01*
X114341558Y-69111503D01*
X114333780Y-69110412D01*
X114300142Y-69103500D01*
X114300141Y-69103500D01*
X114238802Y-69103500D01*
X114234095Y-69103321D01*
X114228521Y-69102896D01*
X114172924Y-69098662D01*
X114152989Y-69101201D01*
X114138840Y-69103003D01*
X114131011Y-69103500D01*
X108429117Y-69103500D01*
X108340040Y-69101243D01*
X108340039Y-69101243D01*
X108340037Y-69101243D01*
X108317082Y-69105357D01*
X108286550Y-69106130D01*
X108286540Y-69106557D01*
X108205457Y-69104501D01*
X108202321Y-69104342D01*
X108134469Y-69099176D01*
X108127724Y-69098663D01*
X108127723Y-69098663D01*
X108111737Y-69100698D01*
X108092946Y-69101650D01*
X108076844Y-69101242D01*
X108076831Y-69101243D01*
X108003187Y-69114442D01*
X108000083Y-69114918D01*
X107925873Y-69124369D01*
X107925872Y-69124369D01*
X107910625Y-69129581D01*
X107892406Y-69134299D01*
X107876549Y-69137141D01*
X107876543Y-69137143D01*
X107855741Y-69145453D01*
X107809744Y-69154300D01*
X101236478Y-69154300D01*
X101208448Y-69151090D01*
X101141205Y-69135486D01*
X101138164Y-69134699D01*
X101066218Y-69114113D01*
X101050145Y-69112888D01*
X101031543Y-69110038D01*
X101025557Y-69108649D01*
X101015851Y-69106397D01*
X100941057Y-69104501D01*
X100937921Y-69104342D01*
X100870069Y-69099176D01*
X100863324Y-69098663D01*
X100863323Y-69098663D01*
X100847337Y-69100698D01*
X100828546Y-69101650D01*
X100812444Y-69101242D01*
X100812431Y-69101243D01*
X100738787Y-69114442D01*
X100735683Y-69114918D01*
X100661473Y-69124369D01*
X100661472Y-69124369D01*
X100646225Y-69129581D01*
X100628006Y-69134299D01*
X100617918Y-69136107D01*
X100612147Y-69137142D01*
X100596339Y-69143455D01*
X100564603Y-69150820D01*
X100564624Y-69150934D01*
X100562382Y-69151335D01*
X100559770Y-69151942D01*
X100558441Y-69152043D01*
X100558437Y-69152043D01*
X100558432Y-69152043D01*
X100558430Y-69152044D01*
X100526353Y-69157792D01*
X100498054Y-69162864D01*
X100493395Y-69163518D01*
X100432364Y-69169725D01*
X100432362Y-69169726D01*
X100399580Y-69180010D01*
X100391956Y-69181881D01*
X100384108Y-69183288D01*
X100358149Y-69187941D01*
X100358141Y-69187943D01*
X100301182Y-69210695D01*
X100296746Y-69212274D01*
X100238215Y-69230640D01*
X100238212Y-69230641D01*
X100238210Y-69230642D01*
X100238203Y-69230645D01*
X100208184Y-69247307D01*
X100201090Y-69250676D01*
X100169190Y-69263419D01*
X100169188Y-69263419D01*
X100169183Y-69263422D01*
X100169177Y-69263426D01*
X100117954Y-69297183D01*
X100113926Y-69299624D01*
X100060302Y-69329388D01*
X100060299Y-69329390D01*
X100034227Y-69351770D01*
X100027960Y-69356495D01*
X99999282Y-69375398D01*
X99999275Y-69375403D01*
X99955916Y-69418762D01*
X99952461Y-69421964D01*
X99905906Y-69461932D01*
X99905905Y-69461933D01*
X99884876Y-69489100D01*
X99879684Y-69494994D01*
X99123532Y-70251146D01*
X99065347Y-70306457D01*
X99059200Y-70312301D01*
X99058946Y-70312542D01*
X99023899Y-70362894D01*
X99021062Y-70366656D01*
X98982302Y-70414192D01*
X98982299Y-70414197D01*
X98966392Y-70444647D01*
X98962324Y-70451361D01*
X98942702Y-70479554D01*
X98918509Y-70535930D01*
X98916488Y-70540184D01*
X98888091Y-70594551D01*
X98888090Y-70594552D01*
X98878640Y-70627575D01*
X98876007Y-70634971D01*
X98862459Y-70666543D01*
X98850113Y-70726619D01*
X98848990Y-70731195D01*
X98832113Y-70790177D01*
X98832113Y-70790178D01*
X98830016Y-70817718D01*
X98805296Y-70883069D01*
X98749170Y-70924681D01*
X98706374Y-70932300D01*
X98107057Y-70932300D01*
X97955363Y-70947725D01*
X97946724Y-70950435D01*
X97942972Y-70951613D01*
X97905852Y-70957300D01*
X97901184Y-70957300D01*
X97881945Y-70959048D01*
X97830607Y-70963713D01*
X97668193Y-71014322D01*
X97522611Y-71102330D01*
X97522610Y-71102331D01*
X97420481Y-71204461D01*
X97359158Y-71237946D01*
X97289466Y-71232962D01*
X97245119Y-71204461D01*
X97142988Y-71102330D01*
X96997406Y-71014322D01*
X96955873Y-71001380D01*
X96834996Y-70963714D01*
X96834994Y-70963713D01*
X96834992Y-70963713D01*
X96785578Y-70959223D01*
X96764416Y-70957300D01*
X96764413Y-70957300D01*
X96747574Y-70957300D01*
X96716494Y-70953342D01*
X96660087Y-70938737D01*
X96524604Y-70931866D01*
X96456864Y-70928431D01*
X96456863Y-70928431D01*
X96456861Y-70928431D01*
X96330914Y-70947726D01*
X96277752Y-70955870D01*
X96258977Y-70957300D01*
X96251184Y-70957300D01*
X96231945Y-70959048D01*
X96180607Y-70963713D01*
X96018193Y-71014322D01*
X95872611Y-71102330D01*
X95752330Y-71222611D01*
X95664322Y-71368194D01*
X95655849Y-71395384D01*
X95639242Y-71429323D01*
X95628506Y-71444748D01*
X95628505Y-71444750D01*
X95548259Y-71631743D01*
X95507300Y-71831058D01*
X95507300Y-74016883D01*
X95505043Y-74105962D01*
X95505043Y-74105970D01*
X95515864Y-74166339D01*
X95516518Y-74171004D01*
X95522725Y-74232030D01*
X95522727Y-74232044D01*
X95533008Y-74264813D01*
X95534879Y-74272437D01*
X95538711Y-74293808D01*
X95540630Y-74304515D01*
X95540942Y-74306252D01*
X95540942Y-74306255D01*
X95563694Y-74363212D01*
X95565274Y-74367651D01*
X95583641Y-74426188D01*
X95583644Y-74426195D01*
X95600309Y-74456219D01*
X95603679Y-74463314D01*
X95616422Y-74495214D01*
X95616427Y-74495224D01*
X95650177Y-74546433D01*
X95652618Y-74550463D01*
X95682388Y-74604098D01*
X95682389Y-74604099D01*
X95682391Y-74604102D01*
X95704768Y-74630167D01*
X95709493Y-74636435D01*
X95728399Y-74665120D01*
X95728400Y-74665122D01*
X95771765Y-74708487D01*
X95774968Y-74711943D01*
X95814933Y-74758494D01*
X95842099Y-74779523D01*
X95847986Y-74784707D01*
X96183510Y-75120230D01*
X96498411Y-75435131D01*
X96529806Y-75488217D01*
X96565853Y-75612293D01*
X96565855Y-75612296D01*
X96565856Y-75612298D01*
X96574188Y-75626386D01*
X96653490Y-75760480D01*
X96651671Y-75761555D01*
X96673219Y-75816432D01*
X96659541Y-75884950D01*
X96610991Y-75935196D01*
X96549705Y-75951400D01*
X96151904Y-75951400D01*
X96115032Y-75954301D01*
X96115026Y-75954302D01*
X95957206Y-76000154D01*
X95957203Y-76000155D01*
X95815737Y-76083817D01*
X95815729Y-76083823D01*
X95699523Y-76200029D01*
X95699517Y-76200037D01*
X95615855Y-76341503D01*
X95615854Y-76341506D01*
X95604643Y-76380095D01*
X95567037Y-76438981D01*
X95503564Y-76468187D01*
X95485567Y-76469500D01*
X94724100Y-76469500D01*
X94657061Y-76449815D01*
X94611306Y-76397011D01*
X94600100Y-76345500D01*
X94600100Y-74879256D01*
X94584674Y-74727562D01*
X94572480Y-74688698D01*
X94551698Y-74622463D01*
X94546655Y-74597947D01*
X94539949Y-74532292D01*
X94539948Y-74532289D01*
X94527663Y-74495214D01*
X94486603Y-74371303D01*
X94486599Y-74371297D01*
X94486598Y-74371294D01*
X94397570Y-74226959D01*
X94397567Y-74226955D01*
X94277644Y-74107032D01*
X94277640Y-74107029D01*
X94133305Y-74018001D01*
X94133299Y-74017998D01*
X94133297Y-74017997D01*
X94121283Y-74014016D01*
X93972309Y-73964651D01*
X93872952Y-73954500D01*
X93872945Y-73954500D01*
X93839374Y-73954500D01*
X93808294Y-73950542D01*
X93751887Y-73935937D01*
X93616404Y-73929066D01*
X93548664Y-73925631D01*
X93548663Y-73925631D01*
X93548659Y-73925631D01*
X93369544Y-73953070D01*
X93350772Y-73954500D01*
X93326264Y-73954500D01*
X93326243Y-73954501D01*
X93226892Y-73964650D01*
X93226885Y-73964652D01*
X93200903Y-73973262D01*
X93131075Y-73975663D01*
X93071033Y-73939931D01*
X93039841Y-73877411D01*
X93037900Y-73855556D01*
X93037900Y-72969449D01*
X93057585Y-72902410D01*
X93110389Y-72856655D01*
X93179547Y-72846711D01*
X93198790Y-72851064D01*
X93360294Y-72901390D01*
X93360293Y-72901390D01*
X93430808Y-72907798D01*
X93430826Y-72907799D01*
X93437399Y-72907798D01*
X93437400Y-72907798D01*
X93437400Y-72182800D01*
X93937400Y-72182800D01*
X93937400Y-72907799D01*
X93943981Y-72907799D01*
X94014502Y-72901391D01*
X94014507Y-72901390D01*
X94176796Y-72850818D01*
X94322277Y-72762872D01*
X94442472Y-72642677D01*
X94530419Y-72497195D01*
X94580990Y-72334906D01*
X94587400Y-72264372D01*
X94587400Y-72182800D01*
X93937400Y-72182800D01*
X93437400Y-72182800D01*
X93437400Y-70957800D01*
X93937400Y-70957800D01*
X93937400Y-71682800D01*
X94587399Y-71682800D01*
X94587399Y-71601217D01*
X94580991Y-71530697D01*
X94580990Y-71530692D01*
X94530418Y-71368403D01*
X94442472Y-71222922D01*
X94322277Y-71102727D01*
X94176795Y-71014780D01*
X94176796Y-71014780D01*
X94014505Y-70964209D01*
X94014506Y-70964209D01*
X93943972Y-70957800D01*
X93937400Y-70957800D01*
X93437400Y-70957800D01*
X93437399Y-70957799D01*
X93430836Y-70957800D01*
X93430817Y-70957801D01*
X93360297Y-70964208D01*
X93360292Y-70964209D01*
X93198003Y-71014781D01*
X93052522Y-71102727D01*
X93052521Y-71102728D01*
X92950435Y-71204815D01*
X92889112Y-71238300D01*
X92819420Y-71233316D01*
X92775073Y-71204815D01*
X92672588Y-71102330D01*
X92672353Y-71102188D01*
X92557170Y-71032556D01*
X92533647Y-71014126D01*
X92499849Y-70980329D01*
X92476599Y-70955870D01*
X92438461Y-70915749D01*
X92438460Y-70915748D01*
X92388109Y-70880702D01*
X92384344Y-70877864D01*
X92336808Y-70839102D01*
X92336806Y-70839100D01*
X92306359Y-70823197D01*
X92299651Y-70819134D01*
X92271449Y-70799505D01*
X92271446Y-70799503D01*
X92271445Y-70799503D01*
X92271441Y-70799501D01*
X92215080Y-70775314D01*
X92210824Y-70773293D01*
X92156457Y-70744894D01*
X92156450Y-70744891D01*
X92156449Y-70744891D01*
X92150408Y-70743162D01*
X92123430Y-70735442D01*
X92116030Y-70732808D01*
X92084457Y-70719259D01*
X92084458Y-70719259D01*
X92024366Y-70706909D01*
X92019791Y-70705786D01*
X91960820Y-70688913D01*
X91960825Y-70688913D01*
X91926558Y-70686303D01*
X91918780Y-70685212D01*
X91885142Y-70678300D01*
X91885141Y-70678300D01*
X91823802Y-70678300D01*
X91819095Y-70678121D01*
X91813521Y-70677696D01*
X91757924Y-70673462D01*
X91737989Y-70676001D01*
X91723840Y-70677803D01*
X91716011Y-70678300D01*
X89578660Y-70678300D01*
X89511621Y-70658615D01*
X89490983Y-70641985D01*
X89342130Y-70493132D01*
X89326812Y-70477018D01*
X89280739Y-70428549D01*
X89280738Y-70428548D01*
X89280737Y-70428547D01*
X89252882Y-70409159D01*
X89230387Y-70393502D01*
X89226624Y-70390664D01*
X89179091Y-70351905D01*
X89179084Y-70351900D01*
X89148637Y-70335997D01*
X89141929Y-70331934D01*
X89113727Y-70312305D01*
X89113724Y-70312303D01*
X89113723Y-70312303D01*
X89113719Y-70312301D01*
X89057358Y-70288114D01*
X89053102Y-70286093D01*
X88998735Y-70257694D01*
X88998728Y-70257691D01*
X88998727Y-70257691D01*
X88987649Y-70254521D01*
X88965708Y-70248242D01*
X88958308Y-70245608D01*
X88926735Y-70232059D01*
X88926736Y-70232059D01*
X88866644Y-70219709D01*
X88862069Y-70218586D01*
X88803098Y-70201713D01*
X88803103Y-70201713D01*
X88768836Y-70199103D01*
X88761058Y-70198012D01*
X88727420Y-70191100D01*
X88727419Y-70191100D01*
X88666080Y-70191100D01*
X88661373Y-70190921D01*
X88655799Y-70190496D01*
X88600202Y-70186262D01*
X88580267Y-70188801D01*
X88566118Y-70190603D01*
X88558289Y-70191100D01*
X87226792Y-70191100D01*
X87181999Y-70182727D01*
X87119661Y-70158577D01*
X87119656Y-70158576D01*
X86919176Y-70121100D01*
X86715224Y-70121100D01*
X86514744Y-70158576D01*
X86514741Y-70158576D01*
X86514741Y-70158577D01*
X86324564Y-70232251D01*
X86324557Y-70232255D01*
X86151160Y-70339617D01*
X86151158Y-70339619D01*
X86000437Y-70477018D01*
X85877527Y-70639778D01*
X85786622Y-70822339D01*
X85786617Y-70822352D01*
X85730802Y-71018517D01*
X85711985Y-71221599D01*
X85711985Y-71221600D01*
X85730802Y-71424682D01*
X85786617Y-71620847D01*
X85786622Y-71620860D01*
X85877527Y-71803421D01*
X86000437Y-71966181D01*
X86151158Y-72103580D01*
X86151160Y-72103582D01*
X86250341Y-72164992D01*
X86324563Y-72210948D01*
X86491843Y-72275752D01*
X86547244Y-72318325D01*
X86570835Y-72384092D01*
X86555124Y-72452172D01*
X86505100Y-72500951D01*
X86476285Y-72511883D01*
X86455627Y-72516894D01*
X86455617Y-72516898D01*
X86264456Y-72604198D01*
X86264451Y-72604201D01*
X86093246Y-72726115D01*
X86093240Y-72726120D01*
X85948214Y-72878220D01*
X85834588Y-73055025D01*
X85756474Y-73250144D01*
X85719942Y-73439693D01*
X85716700Y-73456515D01*
X85716700Y-74014025D01*
X85731672Y-74170818D01*
X85760374Y-74268569D01*
X85789467Y-74367651D01*
X85790884Y-74372475D01*
X85855389Y-74497598D01*
X85887191Y-74559286D01*
X86017105Y-74724483D01*
X86017109Y-74724487D01*
X86175946Y-74862121D01*
X86357950Y-74967201D01*
X86357952Y-74967201D01*
X86357956Y-74967204D01*
X86556567Y-75035944D01*
X86764598Y-75065854D01*
X86974530Y-75055854D01*
X87178776Y-75006304D01*
X87302165Y-74949954D01*
X87369943Y-74919001D01*
X87369946Y-74918999D01*
X87369953Y-74918996D01*
X87541152Y-74797086D01*
X87554639Y-74782942D01*
X87686185Y-74644979D01*
X87695708Y-74630161D01*
X87799813Y-74468172D01*
X87877925Y-74273057D01*
X87917700Y-74066685D01*
X87917700Y-73716100D01*
X87937385Y-73649061D01*
X87990189Y-73603306D01*
X88041700Y-73592100D01*
X88189174Y-73592100D01*
X88189176Y-73592100D01*
X88389656Y-73554624D01*
X88579837Y-73480948D01*
X88753241Y-73373581D01*
X88903964Y-73236179D01*
X89026873Y-73073421D01*
X89117782Y-72890850D01*
X89149979Y-72777691D01*
X89152348Y-72769365D01*
X89189628Y-72710272D01*
X89252937Y-72680715D01*
X89271614Y-72679300D01*
X90912900Y-72679300D01*
X90979939Y-72698985D01*
X91025694Y-72751789D01*
X91036900Y-72803300D01*
X91036900Y-74905083D01*
X91034643Y-74994162D01*
X91034643Y-74994170D01*
X91045464Y-75054539D01*
X91046118Y-75059204D01*
X91052325Y-75120230D01*
X91052327Y-75120244D01*
X91062608Y-75153013D01*
X91064479Y-75160637D01*
X91070542Y-75194452D01*
X91070542Y-75194455D01*
X91093294Y-75251413D01*
X91094875Y-75255854D01*
X91101541Y-75277100D01*
X91106585Y-75301615D01*
X91109251Y-75327709D01*
X91162596Y-75488694D01*
X91162601Y-75488705D01*
X91251629Y-75633040D01*
X91251632Y-75633044D01*
X91371555Y-75752967D01*
X91371559Y-75752970D01*
X91515894Y-75841998D01*
X91515897Y-75841999D01*
X91515903Y-75842003D01*
X91676892Y-75895349D01*
X91776255Y-75905500D01*
X91804512Y-75905499D01*
X91838624Y-75910283D01*
X91872182Y-75919886D01*
X92059624Y-75934160D01*
X92075075Y-75935337D01*
X92075076Y-75935337D01*
X92075077Y-75935337D01*
X92163246Y-75924108D01*
X92276927Y-75909630D01*
X92276931Y-75909628D01*
X92280902Y-75908708D01*
X92308929Y-75905499D01*
X92322938Y-75905499D01*
X92322944Y-75905499D01*
X92322952Y-75905498D01*
X92322955Y-75905498D01*
X92377360Y-75899940D01*
X92422308Y-75895349D01*
X92433094Y-75891774D01*
X92436094Y-75890781D01*
X92505922Y-75888378D01*
X92565965Y-75924108D01*
X92597158Y-75986628D01*
X92599100Y-76008486D01*
X92599100Y-77026761D01*
X92579415Y-77093800D01*
X92526611Y-77139555D01*
X92457453Y-77149499D01*
X92410951Y-77132878D01*
X92374400Y-77110782D01*
X92374396Y-77110780D01*
X92212105Y-77060209D01*
X92212106Y-77060209D01*
X92141572Y-77053800D01*
X92135000Y-77053800D01*
X92135000Y-78154800D01*
X92115315Y-78221839D01*
X92062511Y-78267594D01*
X92011000Y-78278800D01*
X90985001Y-78278800D01*
X90985001Y-78360382D01*
X90991408Y-78430902D01*
X90991409Y-78430907D01*
X91041981Y-78593196D01*
X91129927Y-78738677D01*
X91177431Y-78786181D01*
X91210916Y-78847504D01*
X91205932Y-78917196D01*
X91164060Y-78973129D01*
X91115531Y-78995152D01*
X91109397Y-78996455D01*
X91109392Y-78996457D01*
X90936470Y-79073448D01*
X90936465Y-79073451D01*
X90783329Y-79184711D01*
X90656666Y-79325385D01*
X90562021Y-79489315D01*
X90562018Y-79489322D01*
X90503527Y-79669340D01*
X90503526Y-79669344D01*
X90483740Y-79857600D01*
X90503526Y-80045856D01*
X90503527Y-80045859D01*
X90562018Y-80225877D01*
X90562021Y-80225884D01*
X90656667Y-80389816D01*
X90745389Y-80488351D01*
X90748589Y-80491905D01*
X90778819Y-80554896D01*
X90770194Y-80624231D01*
X90744120Y-80662558D01*
X89935738Y-81470941D01*
X89871149Y-81532338D01*
X89871146Y-81532342D01*
X89836099Y-81582694D01*
X89833262Y-81586456D01*
X89794502Y-81633992D01*
X89794499Y-81633997D01*
X89778592Y-81664447D01*
X89774524Y-81671161D01*
X89754902Y-81699354D01*
X89730709Y-81755730D01*
X89728688Y-81759984D01*
X89700291Y-81814351D01*
X89700290Y-81814352D01*
X89690840Y-81847375D01*
X89688207Y-81854771D01*
X89674659Y-81886343D01*
X89662313Y-81946419D01*
X89661190Y-81950995D01*
X89644313Y-82009977D01*
X89644313Y-82009979D01*
X89641703Y-82044241D01*
X89640614Y-82052008D01*
X89636332Y-82072849D01*
X89633700Y-82085658D01*
X89633700Y-82146997D01*
X89633521Y-82151706D01*
X89628862Y-82212874D01*
X89630907Y-82228927D01*
X89633203Y-82246960D01*
X89633700Y-82254788D01*
X89633700Y-86049483D01*
X89631443Y-86138562D01*
X89631443Y-86138570D01*
X89642264Y-86198939D01*
X89642918Y-86203604D01*
X89649125Y-86264630D01*
X89649127Y-86264644D01*
X89659408Y-86297413D01*
X89661279Y-86305037D01*
X89667342Y-86338852D01*
X89667342Y-86338855D01*
X89690094Y-86395812D01*
X89691674Y-86400251D01*
X89710041Y-86458788D01*
X89710044Y-86458795D01*
X89726709Y-86488819D01*
X89730079Y-86495914D01*
X89742822Y-86527814D01*
X89742827Y-86527824D01*
X89776577Y-86579033D01*
X89779018Y-86583063D01*
X89808788Y-86636698D01*
X89808789Y-86636699D01*
X89808791Y-86636702D01*
X89831168Y-86662767D01*
X89835893Y-86669035D01*
X89854799Y-86697720D01*
X89854800Y-86697722D01*
X89898165Y-86741087D01*
X89901368Y-86744543D01*
X89941333Y-86791094D01*
X89968499Y-86812123D01*
X89974386Y-86817307D01*
X90621948Y-87464868D01*
X90683341Y-87529453D01*
X90683344Y-87529455D01*
X90683347Y-87529458D01*
X90714636Y-87551235D01*
X90733703Y-87564506D01*
X90737444Y-87567326D01*
X90784993Y-87606098D01*
X90815445Y-87622004D01*
X90822156Y-87626071D01*
X90850351Y-87645695D01*
X90906732Y-87669890D01*
X90910967Y-87671901D01*
X90965351Y-87700309D01*
X90998373Y-87709756D01*
X91005765Y-87712389D01*
X91037340Y-87725939D01*
X91037341Y-87725940D01*
X91050454Y-87728634D01*
X91097455Y-87738292D01*
X91101995Y-87739406D01*
X91160982Y-87756286D01*
X91195241Y-87758894D01*
X91203009Y-87759985D01*
X91236655Y-87766900D01*
X91236659Y-87766900D01*
X91298001Y-87766900D01*
X91302708Y-87767078D01*
X91339051Y-87769846D01*
X91363875Y-87771737D01*
X91363875Y-87771736D01*
X91363876Y-87771737D01*
X91397959Y-87767396D01*
X91405789Y-87766900D01*
X91921943Y-87766900D01*
X92000681Y-87758893D01*
X92073638Y-87751474D01*
X92086030Y-87747586D01*
X92123152Y-87741899D01*
X92144538Y-87741899D01*
X92144544Y-87741899D01*
X92144552Y-87741898D01*
X92144555Y-87741898D01*
X92198960Y-87736340D01*
X92243908Y-87731749D01*
X92404897Y-87678403D01*
X92549244Y-87589368D01*
X92558868Y-87579743D01*
X92620187Y-87546256D01*
X92689879Y-87551235D01*
X92734234Y-87579739D01*
X92743467Y-87588972D01*
X92743471Y-87588975D01*
X92887707Y-87677942D01*
X92887718Y-87677947D01*
X93048593Y-87731255D01*
X93147883Y-87741399D01*
X93171200Y-87741398D01*
X93171200Y-87016400D01*
X93671200Y-87016400D01*
X93671200Y-87741399D01*
X93694508Y-87741399D01*
X93694522Y-87741398D01*
X93793807Y-87731255D01*
X93954681Y-87677947D01*
X93954692Y-87677942D01*
X94098928Y-87588975D01*
X94098932Y-87588972D01*
X94218772Y-87469132D01*
X94218775Y-87469128D01*
X94307742Y-87324892D01*
X94307747Y-87324881D01*
X94361055Y-87164006D01*
X94371199Y-87064722D01*
X94371200Y-87064709D01*
X94371200Y-87016400D01*
X93671200Y-87016400D01*
X93171200Y-87016400D01*
X93171200Y-85791400D01*
X93671200Y-85791400D01*
X93671200Y-86516400D01*
X94371199Y-86516400D01*
X94371199Y-86468092D01*
X94371198Y-86468077D01*
X94361055Y-86368792D01*
X94307747Y-86207918D01*
X94307742Y-86207907D01*
X94218775Y-86063671D01*
X94218772Y-86063667D01*
X94098932Y-85943827D01*
X94098928Y-85943824D01*
X93954692Y-85854857D01*
X93954681Y-85854852D01*
X93793806Y-85801544D01*
X93694522Y-85791400D01*
X93671200Y-85791400D01*
X93171200Y-85791400D01*
X93171200Y-85791399D01*
X93147893Y-85791400D01*
X93147874Y-85791401D01*
X93048592Y-85801544D01*
X92887718Y-85854852D01*
X92887707Y-85854857D01*
X92743471Y-85943824D01*
X92743465Y-85943828D01*
X92734231Y-85953063D01*
X92672907Y-85986546D01*
X92603215Y-85981559D01*
X92558872Y-85953060D01*
X92549244Y-85943432D01*
X92549240Y-85943429D01*
X92404905Y-85854401D01*
X92404899Y-85854398D01*
X92404897Y-85854397D01*
X92404894Y-85854396D01*
X92243909Y-85801051D01*
X92144552Y-85790900D01*
X92144545Y-85790900D01*
X92107205Y-85790900D01*
X92082244Y-85788362D01*
X91972941Y-85765900D01*
X91804183Y-85765900D01*
X91737144Y-85746215D01*
X91716502Y-85729581D01*
X91671019Y-85684098D01*
X91637534Y-85622775D01*
X91634700Y-85596417D01*
X91634700Y-84942116D01*
X91654385Y-84875077D01*
X91707189Y-84829322D01*
X91764977Y-84818275D01*
X91885136Y-84824369D01*
X92064247Y-84796929D01*
X92083023Y-84795500D01*
X92090813Y-84795500D01*
X92090816Y-84795500D01*
X92161396Y-84789086D01*
X92323806Y-84738478D01*
X92469385Y-84650472D01*
X92505654Y-84614203D01*
X92571519Y-84548339D01*
X92632842Y-84514854D01*
X92702534Y-84519838D01*
X92746881Y-84548339D01*
X92849011Y-84650469D01*
X92849013Y-84650470D01*
X92849015Y-84650472D01*
X92994594Y-84738478D01*
X93157004Y-84789086D01*
X93227584Y-84795500D01*
X93248195Y-84795500D01*
X93273156Y-84798038D01*
X93347661Y-84813349D01*
X93382459Y-84820500D01*
X93865684Y-84820500D01*
X93954758Y-84822757D01*
X93954758Y-84822756D01*
X93954763Y-84822757D01*
X94015153Y-84811932D01*
X94019812Y-84811280D01*
X94062007Y-84806988D01*
X94080838Y-84805074D01*
X94113627Y-84794786D01*
X94121240Y-84792918D01*
X94155053Y-84786858D01*
X94212021Y-84764101D01*
X94216453Y-84762524D01*
X94274988Y-84744159D01*
X94305027Y-84727484D01*
X94312108Y-84724122D01*
X94344017Y-84711377D01*
X94395254Y-84677608D01*
X94399251Y-84675187D01*
X94452902Y-84645409D01*
X94478968Y-84623030D01*
X94485243Y-84618300D01*
X94513919Y-84599402D01*
X94557323Y-84555995D01*
X94560727Y-84552841D01*
X94607295Y-84512866D01*
X94628328Y-84485691D01*
X94633498Y-84479821D01*
X94992519Y-84120800D01*
X95506201Y-84120800D01*
X95506201Y-84202382D01*
X95512608Y-84272902D01*
X95512609Y-84272907D01*
X95563181Y-84435196D01*
X95651127Y-84580677D01*
X95771322Y-84700872D01*
X95916804Y-84788819D01*
X95916803Y-84788819D01*
X96079094Y-84839390D01*
X96079093Y-84839390D01*
X96149608Y-84845798D01*
X96149626Y-84845799D01*
X96656200Y-84845799D01*
X96662781Y-84845799D01*
X96733302Y-84839391D01*
X96733307Y-84839390D01*
X96894809Y-84789064D01*
X96964669Y-84787912D01*
X97024062Y-84824713D01*
X97054130Y-84887781D01*
X97055700Y-84907449D01*
X97055700Y-85038683D01*
X97053443Y-85127762D01*
X97053443Y-85127770D01*
X97064264Y-85188139D01*
X97064918Y-85192804D01*
X97071125Y-85253830D01*
X97071127Y-85253844D01*
X97081408Y-85286613D01*
X97083279Y-85294237D01*
X97089342Y-85328052D01*
X97089342Y-85328055D01*
X97112094Y-85385012D01*
X97113674Y-85389451D01*
X97132041Y-85447988D01*
X97132044Y-85447995D01*
X97148709Y-85478019D01*
X97152079Y-85485114D01*
X97164822Y-85517014D01*
X97164827Y-85517024D01*
X97198577Y-85568233D01*
X97201018Y-85572263D01*
X97230788Y-85625898D01*
X97230789Y-85625899D01*
X97230791Y-85625902D01*
X97253168Y-85651967D01*
X97257893Y-85658235D01*
X97266504Y-85671300D01*
X97276798Y-85686919D01*
X97320178Y-85730299D01*
X97323369Y-85733743D01*
X97363331Y-85780292D01*
X97363334Y-85780295D01*
X97377681Y-85791400D01*
X97390494Y-85801318D01*
X97396390Y-85806511D01*
X97423220Y-85833341D01*
X97541393Y-85929698D01*
X97721751Y-86023909D01*
X97917382Y-86079887D01*
X97985013Y-86085037D01*
X98120275Y-86095337D01*
X98120277Y-86095337D01*
X98120278Y-86095337D01*
X98322121Y-86069631D01*
X98322121Y-86069630D01*
X98322128Y-86069630D01*
X98514672Y-86003816D01*
X98690027Y-85900591D01*
X98841014Y-85764179D01*
X98956284Y-85607201D01*
X98961447Y-85600170D01*
X98961447Y-85600169D01*
X98961449Y-85600167D01*
X99046405Y-85415269D01*
X99092403Y-85217054D01*
X99096837Y-85042052D01*
X99097557Y-85013641D01*
X99097556Y-85013640D01*
X99097557Y-85013637D01*
X99061658Y-84813348D01*
X99061657Y-84813345D01*
X99061486Y-84812746D01*
X99061253Y-84811088D01*
X99060549Y-84807158D01*
X99060698Y-84807131D01*
X99056700Y-84778629D01*
X99056700Y-83820056D01*
X99041274Y-83668360D01*
X98980362Y-83474220D01*
X98980360Y-83474217D01*
X98980359Y-83474212D01*
X98921950Y-83368979D01*
X98911990Y-83345707D01*
X98899678Y-83306194D01*
X98811672Y-83160615D01*
X98811670Y-83160613D01*
X98811669Y-83160611D01*
X98691388Y-83040330D01*
X98680963Y-83034028D01*
X98545806Y-82952322D01*
X98383396Y-82901714D01*
X98383394Y-82901713D01*
X98383392Y-82901713D01*
X98333978Y-82897223D01*
X98312816Y-82895300D01*
X98312813Y-82895300D01*
X98295974Y-82895300D01*
X98264894Y-82891342D01*
X98208487Y-82876737D01*
X98073004Y-82869866D01*
X98005264Y-82866431D01*
X98005263Y-82866431D01*
X98005261Y-82866431D01*
X97853735Y-82889644D01*
X97826152Y-82893870D01*
X97807377Y-82895300D01*
X97799584Y-82895300D01*
X97780345Y-82897048D01*
X97729007Y-82901713D01*
X97566593Y-82952322D01*
X97421011Y-83040330D01*
X97421010Y-83040331D01*
X97318527Y-83142815D01*
X97257204Y-83176300D01*
X97187512Y-83171316D01*
X97143165Y-83142815D01*
X97041077Y-83040727D01*
X96895595Y-82952780D01*
X96895596Y-82952780D01*
X96733305Y-82902209D01*
X96733306Y-82902209D01*
X96662772Y-82895800D01*
X96656200Y-82895800D01*
X96656200Y-84845799D01*
X96149626Y-84845799D01*
X96156199Y-84845798D01*
X96156200Y-84845798D01*
X96156200Y-84120800D01*
X95506201Y-84120800D01*
X94992519Y-84120800D01*
X95456202Y-83657117D01*
X95517523Y-83623634D01*
X95543881Y-83620800D01*
X96156200Y-83620800D01*
X96156200Y-82895800D01*
X96156199Y-82895799D01*
X96149636Y-82895800D01*
X96149617Y-82895801D01*
X96079097Y-82902208D01*
X96079089Y-82902209D01*
X95952777Y-82941570D01*
X95882917Y-82942722D01*
X95823525Y-82905921D01*
X95793457Y-82842852D01*
X95792881Y-82838851D01*
X95772431Y-82678278D01*
X95772430Y-82678276D01*
X95772430Y-82678272D01*
X95706616Y-82485728D01*
X95693882Y-82464096D01*
X95603392Y-82310374D01*
X95603390Y-82310372D01*
X95466980Y-82159387D01*
X95466978Y-82159386D01*
X95302971Y-82038953D01*
X95302964Y-82038949D01*
X95118074Y-81953997D01*
X95118062Y-81953993D01*
X94919854Y-81907996D01*
X94716440Y-81902842D01*
X94628948Y-81918523D01*
X94559487Y-81910974D01*
X94505135Y-81867070D01*
X94483147Y-81800750D01*
X94484706Y-81782267D01*
X94484064Y-81782202D01*
X94484700Y-81775945D01*
X94484700Y-81714598D01*
X94484879Y-81709888D01*
X94485681Y-81699354D01*
X94489537Y-81648724D01*
X94485325Y-81615649D01*
X94485197Y-81614642D01*
X94484700Y-81606803D01*
X94484700Y-81326800D01*
X95607801Y-81326800D01*
X95607801Y-81408382D01*
X95614208Y-81478902D01*
X95614209Y-81478907D01*
X95664781Y-81641196D01*
X95752727Y-81786677D01*
X95872922Y-81906872D01*
X96018404Y-81994819D01*
X96018403Y-81994819D01*
X96180694Y-82045390D01*
X96180693Y-82045390D01*
X96251208Y-82051798D01*
X96251226Y-82051799D01*
X96257799Y-82051798D01*
X96257800Y-82051798D01*
X96257800Y-81326800D01*
X95607801Y-81326800D01*
X94484700Y-81326800D01*
X94484700Y-81273869D01*
X94493372Y-81231676D01*
X94492659Y-81231453D01*
X94494540Y-81225457D01*
X94497377Y-81211651D01*
X94506893Y-81165340D01*
X94508006Y-81160812D01*
X94524887Y-81101818D01*
X94527495Y-81067555D01*
X94528587Y-81059776D01*
X94530263Y-81051624D01*
X94535500Y-81026141D01*
X94535500Y-80964801D01*
X94535679Y-80960092D01*
X94540337Y-80898926D01*
X94535997Y-80864842D01*
X94535500Y-80857003D01*
X94535500Y-80826800D01*
X95607800Y-80826800D01*
X96257800Y-80826800D01*
X96257800Y-80101800D01*
X96257799Y-80101799D01*
X96251236Y-80101800D01*
X96251217Y-80101801D01*
X96180697Y-80108208D01*
X96180692Y-80108209D01*
X96018403Y-80158781D01*
X95872922Y-80246727D01*
X95752727Y-80366922D01*
X95664780Y-80512404D01*
X95614209Y-80674693D01*
X95607800Y-80745227D01*
X95607800Y-80826800D01*
X94535500Y-80826800D01*
X94535500Y-78594500D01*
X94555185Y-78527461D01*
X94607989Y-78481706D01*
X94659500Y-78470500D01*
X95999284Y-78470500D01*
X96088358Y-78472757D01*
X96088358Y-78472756D01*
X96088363Y-78472757D01*
X96148753Y-78461932D01*
X96153412Y-78461280D01*
X96195607Y-78456988D01*
X96214438Y-78455074D01*
X96247227Y-78444786D01*
X96254840Y-78442918D01*
X96288653Y-78436858D01*
X96345621Y-78414101D01*
X96350053Y-78412524D01*
X96408588Y-78394159D01*
X96438627Y-78377484D01*
X96445708Y-78374122D01*
X96477617Y-78361377D01*
X96528854Y-78327608D01*
X96532851Y-78325187D01*
X96586502Y-78295409D01*
X96586515Y-78295397D01*
X96591668Y-78291813D01*
X96592201Y-78292579D01*
X96631892Y-78271092D01*
X96643932Y-78267594D01*
X96777998Y-78228644D01*
X96919465Y-78144981D01*
X97035681Y-78028765D01*
X97119344Y-77887298D01*
X97119345Y-77887294D01*
X97119346Y-77887293D01*
X97162690Y-77738104D01*
X97185665Y-77694337D01*
X97187127Y-77692544D01*
X97207298Y-77667807D01*
X97233691Y-77617279D01*
X97282178Y-77566972D01*
X97350165Y-77550865D01*
X97416068Y-77574071D01*
X97458963Y-77629224D01*
X97467600Y-77674691D01*
X97467600Y-77692544D01*
X97470499Y-77729389D01*
X97470500Y-77729395D01*
X97516316Y-77887093D01*
X97516317Y-77887096D01*
X97599914Y-78028452D01*
X97599921Y-78028461D01*
X97716038Y-78144578D01*
X97716047Y-78144585D01*
X97857401Y-78228181D01*
X98015114Y-78274000D01*
X98015111Y-78274000D01*
X98017598Y-78274195D01*
X98017600Y-78274195D01*
X98017600Y-77364400D01*
X98517600Y-77364400D01*
X98517600Y-78274195D01*
X98517601Y-78274195D01*
X98520086Y-78274000D01*
X98677798Y-78228181D01*
X98819152Y-78144585D01*
X98819161Y-78144578D01*
X98935278Y-78028461D01*
X98935285Y-78028452D01*
X99018882Y-77887096D01*
X99018883Y-77887093D01*
X99064699Y-77729395D01*
X99064700Y-77729389D01*
X99067600Y-77692544D01*
X99067600Y-77364400D01*
X98517600Y-77364400D01*
X98017600Y-77364400D01*
X98017600Y-76988400D01*
X98037285Y-76921361D01*
X98090089Y-76875606D01*
X98141600Y-76864400D01*
X99067600Y-76864400D01*
X99067600Y-76536256D01*
X99064700Y-76499410D01*
X99064699Y-76499404D01*
X99018883Y-76341706D01*
X99018882Y-76341703D01*
X98935285Y-76200347D01*
X98935278Y-76200338D01*
X98819161Y-76084221D01*
X98819149Y-76084212D01*
X98796186Y-76070632D01*
X98748502Y-76019564D01*
X98735998Y-75950822D01*
X98762643Y-75886232D01*
X98819978Y-75846302D01*
X98859306Y-75839900D01*
X102033484Y-75839900D01*
X102122558Y-75842157D01*
X102122558Y-75842156D01*
X102122563Y-75842157D01*
X102182953Y-75831332D01*
X102187612Y-75830680D01*
X102229807Y-75826388D01*
X102248638Y-75824474D01*
X102281427Y-75814185D01*
X102289028Y-75812320D01*
X102322853Y-75806258D01*
X102322852Y-75806258D01*
X102329048Y-75805148D01*
X102329066Y-75805251D01*
X102342341Y-75802693D01*
X102429908Y-75793749D01*
X102440694Y-75790174D01*
X102443694Y-75789181D01*
X102513522Y-75786778D01*
X102573565Y-75822508D01*
X102604758Y-75885028D01*
X102606700Y-75906886D01*
X102606700Y-75941817D01*
X102587015Y-76008856D01*
X102570381Y-76029498D01*
X101374299Y-77225581D01*
X101312976Y-77259066D01*
X101286618Y-77261900D01*
X100769499Y-77261900D01*
X100680439Y-77259642D01*
X100680435Y-77259642D01*
X100628623Y-77268929D01*
X100620054Y-77270464D01*
X100615395Y-77271118D01*
X100554364Y-77277325D01*
X100554362Y-77277326D01*
X100521580Y-77287610D01*
X100513956Y-77289481D01*
X100506108Y-77290888D01*
X100480149Y-77295541D01*
X100423181Y-77318295D01*
X100418745Y-77319874D01*
X100360214Y-77338240D01*
X100360210Y-77338242D01*
X100330178Y-77354910D01*
X100323084Y-77358279D01*
X100291182Y-77371023D01*
X100291177Y-77371025D01*
X100239956Y-77404781D01*
X100235928Y-77407222D01*
X100182301Y-77436988D01*
X100156234Y-77459365D01*
X100149965Y-77464092D01*
X100121284Y-77482995D01*
X100121278Y-77483000D01*
X100077909Y-77526368D01*
X100074455Y-77529569D01*
X100027902Y-77569536D01*
X100006876Y-77596698D01*
X100001685Y-77602592D01*
X97459332Y-80144946D01*
X97394746Y-80206342D01*
X97359701Y-80256692D01*
X97356868Y-80260448D01*
X97353569Y-80264496D01*
X97295953Y-80304019D01*
X97226115Y-80306119D01*
X97169777Y-80273827D01*
X97142677Y-80246727D01*
X96997195Y-80158780D01*
X96997196Y-80158780D01*
X96834905Y-80108209D01*
X96834906Y-80108209D01*
X96764372Y-80101800D01*
X96757800Y-80101800D01*
X96757800Y-82051799D01*
X96764381Y-82051799D01*
X96834902Y-82045391D01*
X96834907Y-82045390D01*
X96997196Y-81994818D01*
X97142677Y-81906872D01*
X97142678Y-81906871D01*
X97244763Y-81804785D01*
X97306086Y-81771299D01*
X97375777Y-81776283D01*
X97420126Y-81804784D01*
X97522611Y-81907269D01*
X97522613Y-81907270D01*
X97522615Y-81907272D01*
X97668194Y-81995278D01*
X97830604Y-82045886D01*
X97901184Y-82052300D01*
X97918026Y-82052300D01*
X97949106Y-82056258D01*
X97976197Y-82063272D01*
X98005515Y-82070863D01*
X98208736Y-82081169D01*
X98387847Y-82053729D01*
X98406623Y-82052300D01*
X98414413Y-82052300D01*
X98414416Y-82052300D01*
X98484996Y-82045886D01*
X98647406Y-81995278D01*
X98792985Y-81907272D01*
X98913272Y-81786985D01*
X99001278Y-81641406D01*
X99009749Y-81614218D01*
X99026359Y-81580272D01*
X99037095Y-81564849D01*
X99117340Y-81377858D01*
X99125652Y-81337405D01*
X99158425Y-81275704D01*
X99159340Y-81274778D01*
X100377719Y-80056400D01*
X100439042Y-80022915D01*
X100508734Y-80027899D01*
X100564667Y-80069771D01*
X100589084Y-80135235D01*
X100589400Y-80144081D01*
X100589400Y-80378096D01*
X100592301Y-80414967D01*
X100592302Y-80414973D01*
X100638154Y-80572793D01*
X100638155Y-80572796D01*
X100638156Y-80572798D01*
X100644958Y-80584300D01*
X100721817Y-80714263D01*
X100725879Y-80719499D01*
X100751414Y-80784536D01*
X100751900Y-80795500D01*
X100751900Y-80860883D01*
X100749643Y-80949962D01*
X100749643Y-80949970D01*
X100760464Y-81010339D01*
X100761118Y-81015004D01*
X100767325Y-81076030D01*
X100767327Y-81076044D01*
X100777608Y-81108813D01*
X100779479Y-81116437D01*
X100785542Y-81150252D01*
X100785542Y-81150255D01*
X100808294Y-81207212D01*
X100809874Y-81211651D01*
X100828241Y-81270188D01*
X100828244Y-81270195D01*
X100844909Y-81300219D01*
X100848279Y-81307314D01*
X100861022Y-81339214D01*
X100861027Y-81339224D01*
X100894777Y-81390433D01*
X100897218Y-81394463D01*
X100926988Y-81448098D01*
X100926989Y-81448099D01*
X100926991Y-81448102D01*
X100949368Y-81474167D01*
X100954093Y-81480435D01*
X100966663Y-81499506D01*
X100972998Y-81509119D01*
X101016378Y-81552499D01*
X101019569Y-81555943D01*
X101053927Y-81595964D01*
X101059534Y-81602495D01*
X101076528Y-81615649D01*
X101086694Y-81623518D01*
X101092590Y-81628711D01*
X101493166Y-82029287D01*
X101554541Y-82093853D01*
X101554544Y-82093855D01*
X101554545Y-82093856D01*
X101604895Y-82128901D01*
X101608647Y-82131729D01*
X101656192Y-82170497D01*
X101656195Y-82170498D01*
X101656197Y-82170500D01*
X101686639Y-82186401D01*
X101693353Y-82190468D01*
X101721547Y-82210092D01*
X101721553Y-82210096D01*
X101777931Y-82234290D01*
X101782169Y-82236302D01*
X101836551Y-82264709D01*
X101869573Y-82274156D01*
X101876965Y-82276789D01*
X101908540Y-82290339D01*
X101908541Y-82290340D01*
X101921654Y-82293034D01*
X101968655Y-82302692D01*
X101973195Y-82303806D01*
X102032182Y-82320686D01*
X102066441Y-82323294D01*
X102074209Y-82324385D01*
X102107855Y-82331300D01*
X102107859Y-82331300D01*
X102169201Y-82331300D01*
X102173908Y-82331478D01*
X102201197Y-82333557D01*
X102235075Y-82336137D01*
X102235075Y-82336136D01*
X102235076Y-82336137D01*
X102269159Y-82331796D01*
X102276989Y-82331300D01*
X105651284Y-82331300D01*
X105740358Y-82333557D01*
X105740358Y-82333556D01*
X105740363Y-82333557D01*
X105800753Y-82322732D01*
X105805412Y-82322080D01*
X105847607Y-82317788D01*
X105866438Y-82315874D01*
X105899227Y-82305586D01*
X105906840Y-82303718D01*
X105940653Y-82297658D01*
X105997621Y-82274901D01*
X106002053Y-82273324D01*
X106060588Y-82254959D01*
X106090627Y-82238284D01*
X106097708Y-82234922D01*
X106129617Y-82222177D01*
X106180854Y-82188408D01*
X106184851Y-82185987D01*
X106238502Y-82156209D01*
X106264568Y-82133830D01*
X106270843Y-82129100D01*
X106271145Y-82128901D01*
X106299519Y-82110202D01*
X106342917Y-82066802D01*
X106346336Y-82063634D01*
X106392895Y-82023666D01*
X106413931Y-81996488D01*
X106419101Y-81990618D01*
X107073687Y-81336033D01*
X107138253Y-81274659D01*
X107173312Y-81224286D01*
X107176125Y-81220557D01*
X107214898Y-81173007D01*
X107230807Y-81142548D01*
X107234867Y-81135848D01*
X107254495Y-81107649D01*
X107278692Y-81051260D01*
X107280698Y-81047035D01*
X107309109Y-80992649D01*
X107318560Y-80959615D01*
X107321191Y-80952228D01*
X107322163Y-80949963D01*
X107334740Y-80920658D01*
X107347093Y-80860540D01*
X107348206Y-80856012D01*
X107365087Y-80797018D01*
X107365087Y-80797008D01*
X107365725Y-80793455D01*
X107366618Y-80791663D01*
X107366818Y-80790968D01*
X107366947Y-80791005D01*
X107396923Y-80730937D01*
X107456968Y-80695211D01*
X107526796Y-80697618D01*
X107558616Y-80713545D01*
X107571258Y-80722344D01*
X107643033Y-80775049D01*
X107644631Y-80775783D01*
X107663706Y-80786689D01*
X107665151Y-80787695D01*
X107747018Y-80822827D01*
X107827932Y-80860005D01*
X107829637Y-80860400D01*
X107850521Y-80867244D01*
X107852142Y-80867940D01*
X107939368Y-80885865D01*
X108026146Y-80906003D01*
X108027912Y-80906047D01*
X108049746Y-80908548D01*
X108051458Y-80908900D01*
X108051459Y-80908900D01*
X108140484Y-80908900D01*
X108229563Y-80911157D01*
X108235831Y-80910680D01*
X108235873Y-80911243D01*
X108253531Y-80910121D01*
X108305736Y-80912769D01*
X108379695Y-80901438D01*
X108382792Y-80901043D01*
X108457238Y-80893474D01*
X108472611Y-80888650D01*
X108490949Y-80884395D01*
X108495273Y-80883732D01*
X108506871Y-80881956D01*
X108577066Y-80855958D01*
X108579950Y-80854972D01*
X108651388Y-80832559D01*
X108665470Y-80824741D01*
X108682582Y-80816879D01*
X108697687Y-80811286D01*
X108761221Y-80771683D01*
X108763841Y-80770141D01*
X108829302Y-80733809D01*
X108841524Y-80723315D01*
X108856698Y-80712173D01*
X108870371Y-80703652D01*
X108924635Y-80652068D01*
X108926898Y-80650024D01*
X108983695Y-80601266D01*
X108993550Y-80588533D01*
X109006174Y-80574561D01*
X109014039Y-80567084D01*
X109017853Y-80563459D01*
X109060617Y-80502016D01*
X109062400Y-80499586D01*
X109108248Y-80440358D01*
X109115349Y-80425879D01*
X109124892Y-80409669D01*
X109134095Y-80396449D01*
X109163622Y-80327641D01*
X109164885Y-80324893D01*
X109197860Y-80257671D01*
X109201898Y-80242072D01*
X109207991Y-80224251D01*
X109214338Y-80209462D01*
X109214340Y-80209458D01*
X109229407Y-80136130D01*
X109230101Y-80133141D01*
X109248863Y-80060685D01*
X109248863Y-80060673D01*
X109249815Y-80054466D01*
X109249884Y-80054476D01*
X109251087Y-80045020D01*
X109256689Y-80017761D01*
X109257806Y-80013204D01*
X109274686Y-79954218D01*
X109277294Y-79919957D01*
X109278385Y-79912189D01*
X109285300Y-79878543D01*
X109285300Y-79817198D01*
X109285479Y-79812488D01*
X109286554Y-79798371D01*
X109290137Y-79751324D01*
X109285797Y-79717242D01*
X109285300Y-79709403D01*
X109285300Y-77709617D01*
X109304985Y-77642578D01*
X109357789Y-77596823D01*
X109372164Y-77591308D01*
X109404420Y-77581188D01*
X109412028Y-77579320D01*
X109445853Y-77573258D01*
X109502821Y-77550501D01*
X109507253Y-77548924D01*
X109515964Y-77546191D01*
X109565788Y-77530559D01*
X109595827Y-77513884D01*
X109602908Y-77510522D01*
X109634817Y-77497777D01*
X109686054Y-77464008D01*
X109690051Y-77461587D01*
X109743702Y-77431809D01*
X109769768Y-77409430D01*
X109776043Y-77404700D01*
X109782419Y-77400498D01*
X109804719Y-77385802D01*
X109848117Y-77342402D01*
X109851536Y-77339234D01*
X109898095Y-77299266D01*
X109919131Y-77272088D01*
X109924301Y-77266218D01*
X110293819Y-76896701D01*
X110355142Y-76863216D01*
X110424834Y-76868200D01*
X110480767Y-76910072D01*
X110505184Y-76975536D01*
X110505500Y-76984382D01*
X110505500Y-80661816D01*
X110485815Y-80728855D01*
X110469181Y-80749497D01*
X109486731Y-81731947D01*
X109422146Y-81793342D01*
X109387099Y-81843694D01*
X109384262Y-81847456D01*
X109345502Y-81894992D01*
X109345499Y-81894997D01*
X109329592Y-81925447D01*
X109325524Y-81932161D01*
X109305902Y-81960354D01*
X109281709Y-82016730D01*
X109279688Y-82020984D01*
X109251291Y-82075351D01*
X109251290Y-82075352D01*
X109241840Y-82108375D01*
X109239207Y-82115771D01*
X109225659Y-82147343D01*
X109213313Y-82207419D01*
X109212190Y-82211995D01*
X109195313Y-82270977D01*
X109195313Y-82270979D01*
X109192703Y-82305241D01*
X109191614Y-82313008D01*
X109188432Y-82328499D01*
X109184700Y-82346658D01*
X109184700Y-82407997D01*
X109184521Y-82412706D01*
X109179862Y-82473874D01*
X109180264Y-82477028D01*
X109184203Y-82507960D01*
X109184700Y-82515788D01*
X109184700Y-83418041D01*
X109165015Y-83485080D01*
X109148381Y-83505722D01*
X109146705Y-83507397D01*
X109011165Y-83700969D01*
X109011164Y-83700971D01*
X108911298Y-83915135D01*
X108911294Y-83915144D01*
X108850138Y-84143386D01*
X108850136Y-84143396D01*
X108829541Y-84378799D01*
X108829541Y-84378800D01*
X108850136Y-84614203D01*
X108850138Y-84614213D01*
X108911294Y-84842455D01*
X108911296Y-84842459D01*
X108911297Y-84842463D01*
X109011165Y-85056630D01*
X109011167Y-85056634D01*
X109146701Y-85250195D01*
X109146706Y-85250202D01*
X109313797Y-85417293D01*
X109313803Y-85417298D01*
X109499358Y-85547225D01*
X109542983Y-85601802D01*
X109550177Y-85671300D01*
X109518654Y-85733655D01*
X109499358Y-85750375D01*
X109313797Y-85880305D01*
X109146705Y-86047397D01*
X109011165Y-86240969D01*
X109011164Y-86240971D01*
X108911298Y-86455135D01*
X108911294Y-86455144D01*
X108850138Y-86683386D01*
X108850136Y-86683396D01*
X108829541Y-86918799D01*
X108829541Y-86918800D01*
X108850136Y-87154203D01*
X108850138Y-87154213D01*
X108911294Y-87382455D01*
X108911296Y-87382459D01*
X108911297Y-87382463D01*
X108967418Y-87502815D01*
X109011165Y-87596630D01*
X109011167Y-87596634D01*
X109116866Y-87747586D01*
X109130737Y-87767397D01*
X109146701Y-87790195D01*
X109146706Y-87790202D01*
X109313797Y-87957293D01*
X109313803Y-87957298D01*
X109499358Y-88087225D01*
X109542983Y-88141802D01*
X109550177Y-88211300D01*
X109518654Y-88273655D01*
X109499358Y-88290375D01*
X109313797Y-88420305D01*
X109146705Y-88587397D01*
X109011165Y-88780969D01*
X109011164Y-88780971D01*
X108925052Y-88965640D01*
X108915644Y-88985816D01*
X108911298Y-88995135D01*
X108911294Y-88995144D01*
X108850138Y-89223386D01*
X108850136Y-89223396D01*
X108829541Y-89458799D01*
X108829541Y-89458800D01*
X108850136Y-89694203D01*
X108850138Y-89694213D01*
X108911294Y-89922455D01*
X108911296Y-89922459D01*
X108911297Y-89922463D01*
X108957433Y-90021402D01*
X109011165Y-90136630D01*
X109011167Y-90136634D01*
X109119481Y-90291321D01*
X109125491Y-90299905D01*
X109146701Y-90330195D01*
X109146706Y-90330202D01*
X109313797Y-90497293D01*
X109313803Y-90497298D01*
X109499794Y-90627530D01*
X109543419Y-90682107D01*
X109550613Y-90751605D01*
X109519090Y-90813960D01*
X109499795Y-90830680D01*
X109314122Y-90960690D01*
X109314120Y-90960691D01*
X109147091Y-91127720D01*
X109147086Y-91127726D01*
X109011600Y-91321220D01*
X109011599Y-91321222D01*
X108911770Y-91535307D01*
X108911767Y-91535313D01*
X108854564Y-91748799D01*
X108854564Y-91748800D01*
X109751514Y-91748800D01*
X109725707Y-91788956D01*
X109685200Y-91926911D01*
X109685200Y-92070689D01*
X109725707Y-92208644D01*
X109751514Y-92248800D01*
X108854564Y-92248800D01*
X108911767Y-92462286D01*
X108911770Y-92462292D01*
X109011599Y-92676378D01*
X109147094Y-92869882D01*
X109314117Y-93036905D01*
X109500231Y-93167225D01*
X109543856Y-93221803D01*
X109551048Y-93291301D01*
X109519526Y-93353656D01*
X109500231Y-93370375D01*
X109314122Y-93500690D01*
X109314120Y-93500691D01*
X109147091Y-93667720D01*
X109147086Y-93667726D01*
X109011600Y-93861220D01*
X109011599Y-93861222D01*
X108911770Y-94075307D01*
X108911767Y-94075313D01*
X108854564Y-94288799D01*
X108854564Y-94288800D01*
X109751514Y-94288800D01*
X109725707Y-94328956D01*
X109685200Y-94466911D01*
X109685200Y-94610689D01*
X109725707Y-94748644D01*
X109751514Y-94788800D01*
X108854564Y-94788800D01*
X108911767Y-95002286D01*
X108911770Y-95002292D01*
X109011599Y-95216378D01*
X109147094Y-95409882D01*
X109269146Y-95531934D01*
X109302631Y-95593257D01*
X109297647Y-95662949D01*
X109255775Y-95718882D01*
X109224798Y-95735797D01*
X109092871Y-95785002D01*
X109092864Y-95785006D01*
X108977655Y-95871252D01*
X108977654Y-95871253D01*
X108973944Y-95876210D01*
X108918011Y-95918082D01*
X108874677Y-95925900D01*
X107107899Y-95925900D01*
X107040860Y-95906215D01*
X106995105Y-95853411D01*
X106983899Y-95801900D01*
X106983899Y-95401798D01*
X106983898Y-95401781D01*
X106973399Y-95299003D01*
X106973398Y-95299000D01*
X106918214Y-95132466D01*
X106826112Y-94983144D01*
X106702056Y-94859088D01*
X106563775Y-94773796D01*
X106552736Y-94766987D01*
X106552731Y-94766985D01*
X106551262Y-94766498D01*
X106386197Y-94711801D01*
X106386195Y-94711800D01*
X106283416Y-94701300D01*
X106283409Y-94701300D01*
X105236683Y-94701300D01*
X105169644Y-94681615D01*
X105149002Y-94664981D01*
X103081019Y-92596998D01*
X103047534Y-92535675D01*
X103044700Y-92509317D01*
X103044700Y-91564300D01*
X103633401Y-91564300D01*
X103633401Y-92151786D01*
X103643894Y-92254497D01*
X103699041Y-92420919D01*
X103699043Y-92420924D01*
X103791084Y-92570145D01*
X103915054Y-92694115D01*
X104064275Y-92786156D01*
X104064280Y-92786158D01*
X104230702Y-92841305D01*
X104230709Y-92841306D01*
X104333419Y-92851799D01*
X105058399Y-92851799D01*
X105058400Y-92851798D01*
X105058400Y-91564300D01*
X105558400Y-91564300D01*
X105558400Y-92851799D01*
X106283372Y-92851799D01*
X106283386Y-92851798D01*
X106386097Y-92841305D01*
X106552519Y-92786158D01*
X106552524Y-92786156D01*
X106701745Y-92694115D01*
X106825715Y-92570145D01*
X106917756Y-92420924D01*
X106917758Y-92420919D01*
X106972905Y-92254497D01*
X106972906Y-92254490D01*
X106983399Y-92151786D01*
X106983400Y-92151773D01*
X106983400Y-91564300D01*
X105558400Y-91564300D01*
X105058400Y-91564300D01*
X103633401Y-91564300D01*
X103044700Y-91564300D01*
X103044700Y-91064300D01*
X103633400Y-91064300D01*
X105058400Y-91064300D01*
X105058400Y-89776800D01*
X105558400Y-89776800D01*
X105558400Y-91064300D01*
X106983399Y-91064300D01*
X106983399Y-90476828D01*
X106983398Y-90476813D01*
X106972905Y-90374102D01*
X106917758Y-90207680D01*
X106917756Y-90207675D01*
X106825715Y-90058454D01*
X106701745Y-89934484D01*
X106552524Y-89842443D01*
X106552519Y-89842441D01*
X106386097Y-89787294D01*
X106386090Y-89787293D01*
X106283386Y-89776800D01*
X105558400Y-89776800D01*
X105058400Y-89776800D01*
X104333428Y-89776800D01*
X104333412Y-89776801D01*
X104230702Y-89787294D01*
X104064280Y-89842441D01*
X104064275Y-89842443D01*
X103915054Y-89934484D01*
X103791084Y-90058454D01*
X103699043Y-90207675D01*
X103699041Y-90207680D01*
X103643894Y-90374102D01*
X103643893Y-90374109D01*
X103633400Y-90476813D01*
X103633400Y-91064300D01*
X103044700Y-91064300D01*
X103044700Y-87219181D01*
X103064385Y-87152142D01*
X103081015Y-87131504D01*
X103310882Y-86901636D01*
X103359558Y-86871612D01*
X103377697Y-86865603D01*
X103522044Y-86776568D01*
X103531668Y-86766943D01*
X103592987Y-86733456D01*
X103662679Y-86738435D01*
X103707034Y-86766939D01*
X103716267Y-86776172D01*
X103716271Y-86776175D01*
X103860507Y-86865142D01*
X103860518Y-86865147D01*
X104021393Y-86918455D01*
X104120683Y-86928599D01*
X104144000Y-86928598D01*
X104144000Y-86203600D01*
X104644000Y-86203600D01*
X104644000Y-86928599D01*
X104667308Y-86928599D01*
X104667322Y-86928598D01*
X104766607Y-86918455D01*
X104927481Y-86865147D01*
X104927492Y-86865142D01*
X105071728Y-86776175D01*
X105071732Y-86776172D01*
X105191572Y-86656332D01*
X105191575Y-86656328D01*
X105280542Y-86512092D01*
X105280547Y-86512081D01*
X105333855Y-86351206D01*
X105343999Y-86251922D01*
X105344000Y-86251909D01*
X105344000Y-86203600D01*
X104644000Y-86203600D01*
X104144000Y-86203600D01*
X104144000Y-84978600D01*
X104644000Y-84978600D01*
X104644000Y-85703600D01*
X105343999Y-85703600D01*
X105343999Y-85655292D01*
X105343998Y-85655277D01*
X105333855Y-85555992D01*
X105280547Y-85395118D01*
X105280542Y-85395107D01*
X105191575Y-85250871D01*
X105191572Y-85250867D01*
X105071732Y-85131027D01*
X105071728Y-85131024D01*
X104927492Y-85042057D01*
X104927481Y-85042052D01*
X104766606Y-84988744D01*
X104667322Y-84978600D01*
X104644000Y-84978600D01*
X104144000Y-84978600D01*
X104144000Y-84978599D01*
X104120693Y-84978600D01*
X104120674Y-84978601D01*
X104021392Y-84988744D01*
X103860518Y-85042052D01*
X103860507Y-85042057D01*
X103716271Y-85131024D01*
X103716265Y-85131028D01*
X103707031Y-85140263D01*
X103645707Y-85173746D01*
X103576015Y-85168759D01*
X103531672Y-85140260D01*
X103522044Y-85130632D01*
X103522040Y-85130629D01*
X103377705Y-85041601D01*
X103377699Y-85041598D01*
X103377697Y-85041597D01*
X103288967Y-85012195D01*
X103216709Y-84988251D01*
X103117352Y-84978100D01*
X103117345Y-84978100D01*
X103080499Y-84978100D01*
X103052468Y-84974890D01*
X102971054Y-84955996D01*
X102767639Y-84950843D01*
X102767634Y-84950843D01*
X102626406Y-84976155D01*
X102604534Y-84978100D01*
X102570663Y-84978100D01*
X102570643Y-84978101D01*
X102471292Y-84988250D01*
X102471289Y-84988251D01*
X102310305Y-85041596D01*
X102310294Y-85041601D01*
X102165959Y-85130629D01*
X102165955Y-85130632D01*
X102046031Y-85250556D01*
X101956999Y-85394897D01*
X101956995Y-85394906D01*
X101950986Y-85413041D01*
X101920962Y-85461715D01*
X101345731Y-86036947D01*
X101281146Y-86098342D01*
X101246099Y-86148694D01*
X101243262Y-86152456D01*
X101204502Y-86199992D01*
X101204499Y-86199997D01*
X101188592Y-86230447D01*
X101184524Y-86237161D01*
X101164902Y-86265354D01*
X101140709Y-86321730D01*
X101138688Y-86325984D01*
X101110291Y-86380351D01*
X101110290Y-86380352D01*
X101100840Y-86413375D01*
X101098207Y-86420771D01*
X101084659Y-86452343D01*
X101072313Y-86512419D01*
X101071190Y-86516995D01*
X101054313Y-86575977D01*
X101054313Y-86575979D01*
X101051703Y-86610241D01*
X101050614Y-86618008D01*
X101045180Y-86644452D01*
X101043700Y-86651658D01*
X101043700Y-86712997D01*
X101043521Y-86717706D01*
X101038862Y-86778874D01*
X101040419Y-86791094D01*
X101043203Y-86812960D01*
X101043700Y-86820788D01*
X101043700Y-89059574D01*
X101024015Y-89126613D01*
X100971211Y-89172368D01*
X100902053Y-89182312D01*
X100838497Y-89153287D01*
X100832042Y-89147279D01*
X100821826Y-89137068D01*
X100819551Y-89135551D01*
X100787200Y-89103200D01*
X83436500Y-89103200D01*
X83369461Y-89083515D01*
X83323706Y-89030711D01*
X83312500Y-88979200D01*
X83312500Y-81655204D01*
X85371157Y-81655204D01*
X85373411Y-81682400D01*
X85378829Y-81747789D01*
X85379150Y-81751656D01*
X85379362Y-81756779D01*
X85379362Y-81779281D01*
X85383065Y-81801482D01*
X85383699Y-81806565D01*
X85391691Y-81903016D01*
X85391691Y-81903018D01*
X85415454Y-81996857D01*
X85416505Y-82001872D01*
X85420207Y-82024054D01*
X85420209Y-82024062D01*
X85427514Y-82045341D01*
X85428976Y-82050253D01*
X85452735Y-82144074D01*
X85452739Y-82144087D01*
X85491615Y-82232715D01*
X85493477Y-82237486D01*
X85494292Y-82239860D01*
X85499475Y-82254959D01*
X85500786Y-82258776D01*
X85500788Y-82258779D01*
X85511498Y-82278571D01*
X85513748Y-82283175D01*
X85552627Y-82371808D01*
X85605564Y-82452834D01*
X85608188Y-82457238D01*
X85618895Y-82477023D01*
X85618898Y-82477028D01*
X85632726Y-82494795D01*
X85635703Y-82498965D01*
X85657528Y-82532371D01*
X85688636Y-82579985D01*
X85693694Y-82585479D01*
X85754193Y-82651200D01*
X85757506Y-82655111D01*
X85771322Y-82672862D01*
X85787880Y-82688105D01*
X85791494Y-82691719D01*
X85857056Y-82762938D01*
X85933451Y-82822399D01*
X85937347Y-82825699D01*
X85938783Y-82827021D01*
X85953899Y-82840937D01*
X85972736Y-82853244D01*
X85976902Y-82856218D01*
X86053291Y-82915674D01*
X86053298Y-82915677D01*
X86053300Y-82915679D01*
X86059354Y-82918955D01*
X86138440Y-82961754D01*
X86142801Y-82964353D01*
X86161655Y-82976671D01*
X86182294Y-82985724D01*
X86186833Y-82987943D01*
X86271990Y-83034028D01*
X86363554Y-83065462D01*
X86368289Y-83067309D01*
X86388916Y-83076357D01*
X86410732Y-83081881D01*
X86415616Y-83083335D01*
X86486889Y-83107803D01*
X86507185Y-83114771D01*
X86540989Y-83120411D01*
X86602666Y-83130703D01*
X86607679Y-83131755D01*
X86629476Y-83137275D01*
X86629478Y-83137275D01*
X86629485Y-83137277D01*
X86651925Y-83139136D01*
X86656969Y-83139764D01*
X86752465Y-83155700D01*
X86752466Y-83155700D01*
X86849248Y-83155700D01*
X86854361Y-83155911D01*
X86870215Y-83157225D01*
X86876798Y-83157771D01*
X86876800Y-83157771D01*
X86876802Y-83157771D01*
X86883384Y-83157225D01*
X86899238Y-83155911D01*
X86904352Y-83155700D01*
X87001130Y-83155700D01*
X87001135Y-83155700D01*
X87096651Y-83139761D01*
X87101662Y-83139137D01*
X87124115Y-83137277D01*
X87145953Y-83131746D01*
X87150905Y-83130708D01*
X87246414Y-83114771D01*
X87337998Y-83083329D01*
X87342842Y-83081888D01*
X87364684Y-83076357D01*
X87385300Y-83067313D01*
X87390034Y-83065465D01*
X87481610Y-83034028D01*
X87566775Y-82987938D01*
X87571305Y-82985724D01*
X87591945Y-82976671D01*
X87610808Y-82964346D01*
X87615137Y-82961766D01*
X87700309Y-82915674D01*
X87776731Y-82856192D01*
X87780818Y-82853273D01*
X87799698Y-82840939D01*
X87816266Y-82825687D01*
X87820141Y-82822404D01*
X87896544Y-82762938D01*
X87962113Y-82691710D01*
X87965697Y-82688125D01*
X87982277Y-82672863D01*
X87996120Y-82655076D01*
X87999381Y-82651226D01*
X88064964Y-82579985D01*
X88117927Y-82498918D01*
X88120853Y-82494820D01*
X88134702Y-82477028D01*
X88145423Y-82457216D01*
X88148033Y-82452836D01*
X88200973Y-82371807D01*
X88239861Y-82283150D01*
X88242099Y-82278575D01*
X88242591Y-82277666D01*
X88252814Y-82258776D01*
X88260136Y-82237446D01*
X88261962Y-82232764D01*
X88300863Y-82144081D01*
X88324626Y-82050241D01*
X88326078Y-82045362D01*
X88333392Y-82024059D01*
X88337096Y-82001858D01*
X88338140Y-81996877D01*
X88361908Y-81903021D01*
X88369904Y-81806521D01*
X88370533Y-81801482D01*
X88374238Y-81779281D01*
X88374888Y-81747789D01*
X88375083Y-81744012D01*
X88382443Y-81655200D01*
X88381906Y-81648724D01*
X88379818Y-81623518D01*
X88375084Y-81566390D01*
X88374888Y-81562607D01*
X88374238Y-81531119D01*
X88370533Y-81508914D01*
X88369903Y-81503866D01*
X88361908Y-81407379D01*
X88338141Y-81313527D01*
X88337095Y-81308534D01*
X88336891Y-81307314D01*
X88333392Y-81286341D01*
X88326083Y-81265050D01*
X88324625Y-81260152D01*
X88311774Y-81209406D01*
X88300863Y-81166319D01*
X88300446Y-81165369D01*
X88283854Y-81127542D01*
X88261974Y-81077661D01*
X88260129Y-81072934D01*
X88252814Y-81051624D01*
X88242098Y-81031822D01*
X88239852Y-81027229D01*
X88211435Y-80962444D01*
X88200973Y-80938592D01*
X88148031Y-80857558D01*
X88145407Y-80853154D01*
X88139723Y-80842651D01*
X88134702Y-80833372D01*
X88127987Y-80824745D01*
X88120880Y-80815613D01*
X88117902Y-80811442D01*
X88064966Y-80730418D01*
X88064965Y-80730417D01*
X88064964Y-80730415D01*
X88034772Y-80697618D01*
X87999406Y-80659199D01*
X87996095Y-80655290D01*
X87982277Y-80637537D01*
X87982273Y-80637532D01*
X87965719Y-80622293D01*
X87962101Y-80618676D01*
X87896544Y-80547462D01*
X87820152Y-80488004D01*
X87816244Y-80484693D01*
X87799698Y-80469461D01*
X87780863Y-80457155D01*
X87776697Y-80454181D01*
X87700309Y-80394726D01*
X87700308Y-80394725D01*
X87700305Y-80394723D01*
X87700303Y-80394722D01*
X87615185Y-80348659D01*
X87610781Y-80346035D01*
X87591945Y-80333729D01*
X87571347Y-80324694D01*
X87566740Y-80322442D01*
X87481611Y-80276372D01*
X87481602Y-80276369D01*
X87390059Y-80244942D01*
X87385284Y-80243079D01*
X87381682Y-80241499D01*
X87364684Y-80234043D01*
X87364680Y-80234042D01*
X87364678Y-80234041D01*
X87342876Y-80228519D01*
X87337966Y-80227058D01*
X87246414Y-80195629D01*
X87150938Y-80179696D01*
X87145923Y-80178644D01*
X87124112Y-80173122D01*
X87124116Y-80173122D01*
X87101695Y-80171265D01*
X87096610Y-80170631D01*
X87001136Y-80154700D01*
X87001135Y-80154700D01*
X86904341Y-80154700D01*
X86899227Y-80154488D01*
X86883355Y-80153173D01*
X86876802Y-80152630D01*
X86876798Y-80152630D01*
X86870244Y-80153173D01*
X86854372Y-80154488D01*
X86849259Y-80154700D01*
X86752465Y-80154700D01*
X86656988Y-80170631D01*
X86651903Y-80171265D01*
X86629488Y-80173122D01*
X86629483Y-80173123D01*
X86607680Y-80178644D01*
X86602666Y-80179695D01*
X86507182Y-80195629D01*
X86415634Y-80227056D01*
X86410727Y-80228517D01*
X86388926Y-80234039D01*
X86388916Y-80234043D01*
X86368310Y-80243081D01*
X86363538Y-80244942D01*
X86271994Y-80276370D01*
X86271983Y-80276375D01*
X86186862Y-80322440D01*
X86182258Y-80324691D01*
X86161654Y-80333729D01*
X86161645Y-80333734D01*
X86142823Y-80346031D01*
X86138421Y-80348655D01*
X86053292Y-80394724D01*
X86053289Y-80394727D01*
X85976906Y-80454177D01*
X85972738Y-80457154D01*
X85953899Y-80469463D01*
X85937342Y-80484703D01*
X85933435Y-80488012D01*
X85857055Y-80547462D01*
X85791497Y-80618676D01*
X85787875Y-80622298D01*
X85771329Y-80637530D01*
X85771314Y-80637546D01*
X85757499Y-80655294D01*
X85754190Y-80659201D01*
X85688636Y-80730415D01*
X85635701Y-80811436D01*
X85632725Y-80815604D01*
X85618899Y-80833370D01*
X85618894Y-80833377D01*
X85608186Y-80853164D01*
X85605563Y-80857565D01*
X85552628Y-80938590D01*
X85513753Y-81027215D01*
X85511504Y-81031815D01*
X85500785Y-81051624D01*
X85493476Y-81072914D01*
X85491614Y-81077687D01*
X85479563Y-81105161D01*
X85452739Y-81166316D01*
X85452736Y-81166322D01*
X85428977Y-81260142D01*
X85427516Y-81265050D01*
X85420208Y-81286340D01*
X85416505Y-81308527D01*
X85415454Y-81313542D01*
X85391691Y-81407378D01*
X85391691Y-81407382D01*
X85383698Y-81503834D01*
X85383065Y-81508914D01*
X85379362Y-81531119D01*
X85379362Y-81553619D01*
X85379150Y-81558735D01*
X85377165Y-81582694D01*
X85371157Y-81655194D01*
X85371157Y-81655204D01*
X83312500Y-81655204D01*
X83312500Y-77778800D01*
X90985000Y-77778800D01*
X91635000Y-77778800D01*
X91635000Y-77053800D01*
X91634999Y-77053799D01*
X91628436Y-77053800D01*
X91628417Y-77053801D01*
X91557897Y-77060208D01*
X91557892Y-77060209D01*
X91395603Y-77110781D01*
X91250122Y-77198727D01*
X91129927Y-77318922D01*
X91041980Y-77464404D01*
X90991409Y-77626693D01*
X90985000Y-77697227D01*
X90985000Y-77778800D01*
X83312500Y-77778800D01*
X83312500Y-68907700D01*
X83332185Y-68840661D01*
X83384989Y-68794906D01*
X83436500Y-68783700D01*
X139219900Y-68783700D01*
X139286939Y-68803385D01*
G37*
%TD.AperFunction*%
%TA.AperFunction,Conductor*%
G36*
X110435200Y-94103298D02*
G01*
X110327515Y-94054120D01*
X110220963Y-94038800D01*
X110149437Y-94038800D01*
X110042885Y-94054120D01*
X109935200Y-94103298D01*
X109935200Y-92434301D01*
X110042885Y-92483480D01*
X110149437Y-92498800D01*
X110220963Y-92498800D01*
X110327515Y-92483480D01*
X110435200Y-92434301D01*
X110435200Y-94103298D01*
G37*
%TD.AperFunction*%
%TA.AperFunction,Conductor*%
G36*
X107227339Y-71174985D02*
G01*
X107273094Y-71227789D01*
X107284300Y-71279300D01*
X107284300Y-73831900D01*
X107264615Y-73898939D01*
X107211811Y-73944694D01*
X107160300Y-73955900D01*
X106869477Y-73955900D01*
X106780437Y-73953644D01*
X106780426Y-73953645D01*
X106720071Y-73964462D01*
X106715407Y-73965116D01*
X106654363Y-73971325D01*
X106654355Y-73971327D01*
X106621581Y-73981610D01*
X106613953Y-73983482D01*
X106580149Y-73989541D01*
X106523181Y-74012295D01*
X106518745Y-74013874D01*
X106460214Y-74032240D01*
X106460210Y-74032242D01*
X106430178Y-74048910D01*
X106423084Y-74052279D01*
X106391182Y-74065023D01*
X106391177Y-74065025D01*
X106339956Y-74098781D01*
X106335928Y-74101222D01*
X106282301Y-74130988D01*
X106256234Y-74153365D01*
X106249965Y-74158092D01*
X106221284Y-74176995D01*
X106221278Y-74177000D01*
X106177910Y-74220367D01*
X106174456Y-74223568D01*
X106127902Y-74263536D01*
X106106876Y-74290698D01*
X106101685Y-74296592D01*
X105676730Y-74721548D01*
X105612149Y-74782938D01*
X105612146Y-74782942D01*
X105577099Y-74833294D01*
X105574262Y-74837056D01*
X105535502Y-74884592D01*
X105535499Y-74884597D01*
X105519592Y-74915047D01*
X105515524Y-74921761D01*
X105495902Y-74949954D01*
X105471709Y-75006330D01*
X105469688Y-75010584D01*
X105441291Y-75064951D01*
X105441290Y-75064952D01*
X105431840Y-75097975D01*
X105429207Y-75105371D01*
X105415659Y-75136943D01*
X105403313Y-75197019D01*
X105402190Y-75201595D01*
X105385313Y-75260577D01*
X105385313Y-75260579D01*
X105382703Y-75294841D01*
X105381614Y-75302608D01*
X105377333Y-75323444D01*
X105374700Y-75336258D01*
X105374700Y-75397597D01*
X105374521Y-75402306D01*
X105369862Y-75463474D01*
X105370853Y-75471249D01*
X105374203Y-75497560D01*
X105374700Y-75505388D01*
X105374700Y-77562755D01*
X105355015Y-77629794D01*
X105302211Y-77675549D01*
X105233053Y-77685493D01*
X105169497Y-77656468D01*
X105156614Y-77643525D01*
X105036067Y-77503106D01*
X105036065Y-77503104D01*
X104875162Y-77378554D01*
X104875159Y-77378553D01*
X104875158Y-77378552D01*
X104692471Y-77288940D01*
X104495485Y-77237937D01*
X104495487Y-77237937D01*
X104491850Y-77237752D01*
X104479800Y-77237141D01*
X104413845Y-77214087D01*
X104370824Y-77159033D01*
X104364397Y-77089459D01*
X104384306Y-77042466D01*
X104405298Y-77012306D01*
X104408128Y-77008553D01*
X104446898Y-76961007D01*
X104462807Y-76930548D01*
X104466867Y-76923848D01*
X104486495Y-76895649D01*
X104510692Y-76839260D01*
X104512698Y-76835035D01*
X104541109Y-76780649D01*
X104550557Y-76747622D01*
X104553188Y-76740233D01*
X104566740Y-76708658D01*
X104579095Y-76648530D01*
X104580199Y-76644029D01*
X104597086Y-76585018D01*
X104599694Y-76550757D01*
X104600785Y-76542989D01*
X104607700Y-76509343D01*
X104607700Y-76447998D01*
X104607879Y-76443288D01*
X104608605Y-76433750D01*
X104612537Y-76382124D01*
X104608197Y-76348042D01*
X104607700Y-76340203D01*
X104607700Y-75247074D01*
X104627385Y-75180035D01*
X104629929Y-75176232D01*
X104637290Y-75165656D01*
X104637289Y-75165656D01*
X104637295Y-75165649D01*
X104661491Y-75109262D01*
X104663497Y-75105037D01*
X104691909Y-75050649D01*
X104701357Y-75017622D01*
X104703988Y-75010233D01*
X104717540Y-74978658D01*
X104729896Y-74918528D01*
X104730999Y-74914029D01*
X104747886Y-74855018D01*
X104750494Y-74820757D01*
X104751585Y-74812989D01*
X104758500Y-74779343D01*
X104758500Y-74717998D01*
X104758679Y-74713288D01*
X104763337Y-74652124D01*
X104760473Y-74629638D01*
X104758997Y-74618042D01*
X104758500Y-74610203D01*
X104758500Y-71882056D01*
X104743074Y-71730360D01*
X104682162Y-71536220D01*
X104682160Y-71536217D01*
X104682159Y-71536212D01*
X104623750Y-71430979D01*
X104613790Y-71407707D01*
X104601478Y-71368194D01*
X104586519Y-71343450D01*
X104568683Y-71275896D01*
X104590200Y-71209422D01*
X104644240Y-71165134D01*
X104692636Y-71155300D01*
X107160300Y-71155300D01*
X107227339Y-71174985D01*
G37*
%TD.AperFunction*%
%TA.AperFunction,Conductor*%
G36*
X113799656Y-71124185D02*
G01*
X113820298Y-71140819D01*
X114924981Y-72245501D01*
X114958466Y-72306824D01*
X114961300Y-72333182D01*
X114961300Y-73636501D01*
X114961301Y-73636516D01*
X114966674Y-73689106D01*
X114969431Y-73716100D01*
X114969595Y-73717698D01*
X114956825Y-73786391D01*
X114908945Y-73837275D01*
X114846237Y-73854300D01*
X110171499Y-73854300D01*
X110082439Y-73852042D01*
X110082435Y-73852042D01*
X110030623Y-73861329D01*
X110022054Y-73862864D01*
X110017395Y-73863518D01*
X109956364Y-73869725D01*
X109956362Y-73869726D01*
X109923580Y-73880010D01*
X109915956Y-73881881D01*
X109908108Y-73883288D01*
X109882149Y-73887941D01*
X109825181Y-73910695D01*
X109820745Y-73912274D01*
X109762214Y-73930640D01*
X109762210Y-73930642D01*
X109732178Y-73947310D01*
X109725084Y-73950679D01*
X109693182Y-73963423D01*
X109693177Y-73963425D01*
X109641956Y-73997181D01*
X109637928Y-73999622D01*
X109584301Y-74029388D01*
X109558234Y-74051765D01*
X109551965Y-74056492D01*
X109523284Y-74075395D01*
X109523283Y-74075395D01*
X109506676Y-74092002D01*
X109496978Y-74101699D01*
X109435656Y-74135183D01*
X109365965Y-74130197D01*
X109310032Y-74088325D01*
X109285616Y-74022860D01*
X109285300Y-74014016D01*
X109285300Y-71228500D01*
X109304985Y-71161461D01*
X109357789Y-71115706D01*
X109409300Y-71104500D01*
X113732617Y-71104500D01*
X113799656Y-71124185D01*
G37*
%TD.AperFunction*%
%TA.AperFunction,Conductor*%
G36*
X97669174Y-72851583D02*
G01*
X97830604Y-72901886D01*
X97901184Y-72908300D01*
X97921795Y-72908300D01*
X97946756Y-72910838D01*
X97963204Y-72914218D01*
X98056059Y-72933300D01*
X99720259Y-72933300D01*
X99771059Y-72933300D01*
X99795071Y-72933300D01*
X99798211Y-72933380D01*
X99824842Y-72934730D01*
X99872936Y-72937169D01*
X99888857Y-72934730D01*
X99907633Y-72933300D01*
X102158743Y-72933300D01*
X102209307Y-72928158D01*
X102310438Y-72917874D01*
X102322827Y-72913986D01*
X102359948Y-72908300D01*
X102364613Y-72908300D01*
X102364616Y-72908300D01*
X102435196Y-72901886D01*
X102596614Y-72851586D01*
X102666470Y-72850437D01*
X102725863Y-72887238D01*
X102755931Y-72950306D01*
X102757500Y-72969973D01*
X102757500Y-73799884D01*
X102737815Y-73866923D01*
X102685011Y-73912678D01*
X102615853Y-73922622D01*
X102594496Y-73917590D01*
X102590898Y-73916397D01*
X102590897Y-73916397D01*
X102486737Y-73881882D01*
X102429909Y-73863051D01*
X102330552Y-73852900D01*
X102330545Y-73852900D01*
X102293694Y-73852900D01*
X102265665Y-73849690D01*
X102219167Y-73838900D01*
X102184250Y-73830797D01*
X102184253Y-73830797D01*
X101980838Y-73825644D01*
X101980833Y-73825644D01*
X101917727Y-73836955D01*
X101895852Y-73838900D01*
X97950700Y-73838900D01*
X97883661Y-73819215D01*
X97874699Y-73812879D01*
X97869463Y-73808817D01*
X97727996Y-73725155D01*
X97727995Y-73725154D01*
X97603917Y-73689106D01*
X97550832Y-73657711D01*
X97544619Y-73651498D01*
X97511134Y-73590175D01*
X97508300Y-73563817D01*
X97508300Y-72969973D01*
X97527985Y-72902934D01*
X97580789Y-72857179D01*
X97649947Y-72847235D01*
X97669174Y-72851583D01*
G37*
%TD.AperFunction*%
%TD*%
M02*
