%TF.GenerationSoftware,KiCad,Pcbnew,7.0.8*%
%TF.CreationDate,2025-06-05T10:18:12-04:00*%
%TF.ProjectId,happless,68617070-6c65-4737-932e-6b696361645f,rev?*%
%TF.SameCoordinates,Original*%
%TF.FileFunction,Legend,Bot*%
%TF.FilePolarity,Positive*%
%FSLAX46Y46*%
G04 Gerber Fmt 4.6, Leading zero omitted, Abs format (unit mm)*
G04 Created by KiCad (PCBNEW 7.0.8) date 2025-06-05 10:18:12*
%MOMM*%
%LPD*%
G01*
G04 APERTURE LIST*
%ADD10C,0.150000*%
G04 APERTURE END LIST*
D10*
X133876820Y-94897019D02*
X133876820Y-93897019D01*
X133448249Y-94897019D02*
X133448249Y-94373209D01*
X133448249Y-94373209D02*
X133495868Y-94277971D01*
X133495868Y-94277971D02*
X133591106Y-94230352D01*
X133591106Y-94230352D02*
X133733963Y-94230352D01*
X133733963Y-94230352D02*
X133829201Y-94277971D01*
X133829201Y-94277971D02*
X133876820Y-94325590D01*
X132543487Y-94897019D02*
X132543487Y-94373209D01*
X132543487Y-94373209D02*
X132591106Y-94277971D01*
X132591106Y-94277971D02*
X132686344Y-94230352D01*
X132686344Y-94230352D02*
X132876820Y-94230352D01*
X132876820Y-94230352D02*
X132972058Y-94277971D01*
X132543487Y-94849400D02*
X132638725Y-94897019D01*
X132638725Y-94897019D02*
X132876820Y-94897019D01*
X132876820Y-94897019D02*
X132972058Y-94849400D01*
X132972058Y-94849400D02*
X133019677Y-94754161D01*
X133019677Y-94754161D02*
X133019677Y-94658923D01*
X133019677Y-94658923D02*
X132972058Y-94563685D01*
X132972058Y-94563685D02*
X132876820Y-94516066D01*
X132876820Y-94516066D02*
X132638725Y-94516066D01*
X132638725Y-94516066D02*
X132543487Y-94468447D01*
X132067296Y-94230352D02*
X132067296Y-95230352D01*
X132067296Y-94277971D02*
X131972058Y-94230352D01*
X131972058Y-94230352D02*
X131781582Y-94230352D01*
X131781582Y-94230352D02*
X131686344Y-94277971D01*
X131686344Y-94277971D02*
X131638725Y-94325590D01*
X131638725Y-94325590D02*
X131591106Y-94420828D01*
X131591106Y-94420828D02*
X131591106Y-94706542D01*
X131591106Y-94706542D02*
X131638725Y-94801780D01*
X131638725Y-94801780D02*
X131686344Y-94849400D01*
X131686344Y-94849400D02*
X131781582Y-94897019D01*
X131781582Y-94897019D02*
X131972058Y-94897019D01*
X131972058Y-94897019D02*
X132067296Y-94849400D01*
X131162534Y-94230352D02*
X131162534Y-95230352D01*
X131162534Y-94277971D02*
X131067296Y-94230352D01*
X131067296Y-94230352D02*
X130876820Y-94230352D01*
X130876820Y-94230352D02*
X130781582Y-94277971D01*
X130781582Y-94277971D02*
X130733963Y-94325590D01*
X130733963Y-94325590D02*
X130686344Y-94420828D01*
X130686344Y-94420828D02*
X130686344Y-94706542D01*
X130686344Y-94706542D02*
X130733963Y-94801780D01*
X130733963Y-94801780D02*
X130781582Y-94849400D01*
X130781582Y-94849400D02*
X130876820Y-94897019D01*
X130876820Y-94897019D02*
X131067296Y-94897019D01*
X131067296Y-94897019D02*
X131162534Y-94849400D01*
X130114915Y-94897019D02*
X130210153Y-94849400D01*
X130210153Y-94849400D02*
X130257772Y-94754161D01*
X130257772Y-94754161D02*
X130257772Y-93897019D01*
X129353010Y-94849400D02*
X129448248Y-94897019D01*
X129448248Y-94897019D02*
X129638724Y-94897019D01*
X129638724Y-94897019D02*
X129733962Y-94849400D01*
X129733962Y-94849400D02*
X129781581Y-94754161D01*
X129781581Y-94754161D02*
X129781581Y-94373209D01*
X129781581Y-94373209D02*
X129733962Y-94277971D01*
X129733962Y-94277971D02*
X129638724Y-94230352D01*
X129638724Y-94230352D02*
X129448248Y-94230352D01*
X129448248Y-94230352D02*
X129353010Y-94277971D01*
X129353010Y-94277971D02*
X129305391Y-94373209D01*
X129305391Y-94373209D02*
X129305391Y-94468447D01*
X129305391Y-94468447D02*
X129781581Y-94563685D01*
X128924438Y-94849400D02*
X128829200Y-94897019D01*
X128829200Y-94897019D02*
X128638724Y-94897019D01*
X128638724Y-94897019D02*
X128543486Y-94849400D01*
X128543486Y-94849400D02*
X128495867Y-94754161D01*
X128495867Y-94754161D02*
X128495867Y-94706542D01*
X128495867Y-94706542D02*
X128543486Y-94611304D01*
X128543486Y-94611304D02*
X128638724Y-94563685D01*
X128638724Y-94563685D02*
X128781581Y-94563685D01*
X128781581Y-94563685D02*
X128876819Y-94516066D01*
X128876819Y-94516066D02*
X128924438Y-94420828D01*
X128924438Y-94420828D02*
X128924438Y-94373209D01*
X128924438Y-94373209D02*
X128876819Y-94277971D01*
X128876819Y-94277971D02*
X128781581Y-94230352D01*
X128781581Y-94230352D02*
X128638724Y-94230352D01*
X128638724Y-94230352D02*
X128543486Y-94277971D01*
X128114914Y-94849400D02*
X128019676Y-94897019D01*
X128019676Y-94897019D02*
X127829200Y-94897019D01*
X127829200Y-94897019D02*
X127733962Y-94849400D01*
X127733962Y-94849400D02*
X127686343Y-94754161D01*
X127686343Y-94754161D02*
X127686343Y-94706542D01*
X127686343Y-94706542D02*
X127733962Y-94611304D01*
X127733962Y-94611304D02*
X127829200Y-94563685D01*
X127829200Y-94563685D02*
X127972057Y-94563685D01*
X127972057Y-94563685D02*
X128067295Y-94516066D01*
X128067295Y-94516066D02*
X128114914Y-94420828D01*
X128114914Y-94420828D02*
X128114914Y-94373209D01*
X128114914Y-94373209D02*
X128067295Y-94277971D01*
X128067295Y-94277971D02*
X127972057Y-94230352D01*
X127972057Y-94230352D02*
X127829200Y-94230352D01*
X127829200Y-94230352D02*
X127733962Y-94277971D01*
X126591104Y-94230352D02*
X126353009Y-94897019D01*
X126353009Y-94897019D02*
X126114914Y-94230352D01*
X125210152Y-94897019D02*
X125781580Y-94897019D01*
X125495866Y-94897019D02*
X125495866Y-93897019D01*
X125495866Y-93897019D02*
X125591104Y-94039876D01*
X125591104Y-94039876D02*
X125686342Y-94135114D01*
X125686342Y-94135114D02*
X125781580Y-94182733D01*
X133305392Y-96507019D02*
X133638725Y-96030828D01*
X133876820Y-96507019D02*
X133876820Y-95507019D01*
X133876820Y-95507019D02*
X133495868Y-95507019D01*
X133495868Y-95507019D02*
X133400630Y-95554638D01*
X133400630Y-95554638D02*
X133353011Y-95602257D01*
X133353011Y-95602257D02*
X133305392Y-95697495D01*
X133305392Y-95697495D02*
X133305392Y-95840352D01*
X133305392Y-95840352D02*
X133353011Y-95935590D01*
X133353011Y-95935590D02*
X133400630Y-95983209D01*
X133400630Y-95983209D02*
X133495868Y-96030828D01*
X133495868Y-96030828D02*
X133876820Y-96030828D01*
X132495868Y-96459400D02*
X132591106Y-96507019D01*
X132591106Y-96507019D02*
X132781582Y-96507019D01*
X132781582Y-96507019D02*
X132876820Y-96459400D01*
X132876820Y-96459400D02*
X132924439Y-96364161D01*
X132924439Y-96364161D02*
X132924439Y-95983209D01*
X132924439Y-95983209D02*
X132876820Y-95887971D01*
X132876820Y-95887971D02*
X132781582Y-95840352D01*
X132781582Y-95840352D02*
X132591106Y-95840352D01*
X132591106Y-95840352D02*
X132495868Y-95887971D01*
X132495868Y-95887971D02*
X132448249Y-95983209D01*
X132448249Y-95983209D02*
X132448249Y-96078447D01*
X132448249Y-96078447D02*
X132924439Y-96173685D01*
X132019677Y-95840352D02*
X132019677Y-96840352D01*
X132019677Y-95887971D02*
X131924439Y-95840352D01*
X131924439Y-95840352D02*
X131733963Y-95840352D01*
X131733963Y-95840352D02*
X131638725Y-95887971D01*
X131638725Y-95887971D02*
X131591106Y-95935590D01*
X131591106Y-95935590D02*
X131543487Y-96030828D01*
X131543487Y-96030828D02*
X131543487Y-96316542D01*
X131543487Y-96316542D02*
X131591106Y-96411780D01*
X131591106Y-96411780D02*
X131638725Y-96459400D01*
X131638725Y-96459400D02*
X131733963Y-96507019D01*
X131733963Y-96507019D02*
X131924439Y-96507019D01*
X131924439Y-96507019D02*
X132019677Y-96459400D01*
X130972058Y-96507019D02*
X131067296Y-96459400D01*
X131067296Y-96459400D02*
X131114915Y-96364161D01*
X131114915Y-96364161D02*
X131114915Y-95507019D01*
X130162534Y-96507019D02*
X130162534Y-95983209D01*
X130162534Y-95983209D02*
X130210153Y-95887971D01*
X130210153Y-95887971D02*
X130305391Y-95840352D01*
X130305391Y-95840352D02*
X130495867Y-95840352D01*
X130495867Y-95840352D02*
X130591105Y-95887971D01*
X130162534Y-96459400D02*
X130257772Y-96507019D01*
X130257772Y-96507019D02*
X130495867Y-96507019D01*
X130495867Y-96507019D02*
X130591105Y-96459400D01*
X130591105Y-96459400D02*
X130638724Y-96364161D01*
X130638724Y-96364161D02*
X130638724Y-96268923D01*
X130638724Y-96268923D02*
X130591105Y-96173685D01*
X130591105Y-96173685D02*
X130495867Y-96126066D01*
X130495867Y-96126066D02*
X130257772Y-96126066D01*
X130257772Y-96126066D02*
X130162534Y-96078447D01*
X129257772Y-96459400D02*
X129353010Y-96507019D01*
X129353010Y-96507019D02*
X129543486Y-96507019D01*
X129543486Y-96507019D02*
X129638724Y-96459400D01*
X129638724Y-96459400D02*
X129686343Y-96411780D01*
X129686343Y-96411780D02*
X129733962Y-96316542D01*
X129733962Y-96316542D02*
X129733962Y-96030828D01*
X129733962Y-96030828D02*
X129686343Y-95935590D01*
X129686343Y-95935590D02*
X129638724Y-95887971D01*
X129638724Y-95887971D02*
X129543486Y-95840352D01*
X129543486Y-95840352D02*
X129353010Y-95840352D01*
X129353010Y-95840352D02*
X129257772Y-95887971D01*
X128448248Y-96459400D02*
X128543486Y-96507019D01*
X128543486Y-96507019D02*
X128733962Y-96507019D01*
X128733962Y-96507019D02*
X128829200Y-96459400D01*
X128829200Y-96459400D02*
X128876819Y-96364161D01*
X128876819Y-96364161D02*
X128876819Y-95983209D01*
X128876819Y-95983209D02*
X128829200Y-95887971D01*
X128829200Y-95887971D02*
X128733962Y-95840352D01*
X128733962Y-95840352D02*
X128543486Y-95840352D01*
X128543486Y-95840352D02*
X128448248Y-95887971D01*
X128448248Y-95887971D02*
X128400629Y-95983209D01*
X128400629Y-95983209D02*
X128400629Y-96078447D01*
X128400629Y-96078447D02*
X128876819Y-96173685D01*
X128019676Y-96459400D02*
X127924438Y-96507019D01*
X127924438Y-96507019D02*
X127733962Y-96507019D01*
X127733962Y-96507019D02*
X127638724Y-96459400D01*
X127638724Y-96459400D02*
X127591105Y-96364161D01*
X127591105Y-96364161D02*
X127591105Y-96316542D01*
X127591105Y-96316542D02*
X127638724Y-96221304D01*
X127638724Y-96221304D02*
X127733962Y-96173685D01*
X127733962Y-96173685D02*
X127876819Y-96173685D01*
X127876819Y-96173685D02*
X127972057Y-96126066D01*
X127972057Y-96126066D02*
X128019676Y-96030828D01*
X128019676Y-96030828D02*
X128019676Y-95983209D01*
X128019676Y-95983209D02*
X127972057Y-95887971D01*
X127972057Y-95887971D02*
X127876819Y-95840352D01*
X127876819Y-95840352D02*
X127733962Y-95840352D01*
X127733962Y-95840352D02*
X127638724Y-95887971D01*
X126400628Y-96507019D02*
X126400628Y-95507019D01*
X126400628Y-95983209D02*
X125829200Y-95983209D01*
X125829200Y-96507019D02*
X125829200Y-95507019D01*
X124924438Y-96507019D02*
X124924438Y-95983209D01*
X124924438Y-95983209D02*
X124972057Y-95887971D01*
X124972057Y-95887971D02*
X125067295Y-95840352D01*
X125067295Y-95840352D02*
X125257771Y-95840352D01*
X125257771Y-95840352D02*
X125353009Y-95887971D01*
X124924438Y-96459400D02*
X125019676Y-96507019D01*
X125019676Y-96507019D02*
X125257771Y-96507019D01*
X125257771Y-96507019D02*
X125353009Y-96459400D01*
X125353009Y-96459400D02*
X125400628Y-96364161D01*
X125400628Y-96364161D02*
X125400628Y-96268923D01*
X125400628Y-96268923D02*
X125353009Y-96173685D01*
X125353009Y-96173685D02*
X125257771Y-96126066D01*
X125257771Y-96126066D02*
X125019676Y-96126066D01*
X125019676Y-96126066D02*
X124924438Y-96078447D01*
X124448247Y-95840352D02*
X124448247Y-96840352D01*
X124448247Y-95887971D02*
X124353009Y-95840352D01*
X124353009Y-95840352D02*
X124162533Y-95840352D01*
X124162533Y-95840352D02*
X124067295Y-95887971D01*
X124067295Y-95887971D02*
X124019676Y-95935590D01*
X124019676Y-95935590D02*
X123972057Y-96030828D01*
X123972057Y-96030828D02*
X123972057Y-96316542D01*
X123972057Y-96316542D02*
X124019676Y-96411780D01*
X124019676Y-96411780D02*
X124067295Y-96459400D01*
X124067295Y-96459400D02*
X124162533Y-96507019D01*
X124162533Y-96507019D02*
X124353009Y-96507019D01*
X124353009Y-96507019D02*
X124448247Y-96459400D01*
X123543485Y-95840352D02*
X123543485Y-96840352D01*
X123543485Y-95887971D02*
X123448247Y-95840352D01*
X123448247Y-95840352D02*
X123257771Y-95840352D01*
X123257771Y-95840352D02*
X123162533Y-95887971D01*
X123162533Y-95887971D02*
X123114914Y-95935590D01*
X123114914Y-95935590D02*
X123067295Y-96030828D01*
X123067295Y-96030828D02*
X123067295Y-96316542D01*
X123067295Y-96316542D02*
X123114914Y-96411780D01*
X123114914Y-96411780D02*
X123162533Y-96459400D01*
X123162533Y-96459400D02*
X123257771Y-96507019D01*
X123257771Y-96507019D02*
X123448247Y-96507019D01*
X123448247Y-96507019D02*
X123543485Y-96459400D01*
X121876818Y-95840352D02*
X121876818Y-96840352D01*
X121876818Y-95887971D02*
X121781580Y-95840352D01*
X121781580Y-95840352D02*
X121591104Y-95840352D01*
X121591104Y-95840352D02*
X121495866Y-95887971D01*
X121495866Y-95887971D02*
X121448247Y-95935590D01*
X121448247Y-95935590D02*
X121400628Y-96030828D01*
X121400628Y-96030828D02*
X121400628Y-96316542D01*
X121400628Y-96316542D02*
X121448247Y-96411780D01*
X121448247Y-96411780D02*
X121495866Y-96459400D01*
X121495866Y-96459400D02*
X121591104Y-96507019D01*
X121591104Y-96507019D02*
X121781580Y-96507019D01*
X121781580Y-96507019D02*
X121876818Y-96459400D01*
X120543485Y-96507019D02*
X120543485Y-95983209D01*
X120543485Y-95983209D02*
X120591104Y-95887971D01*
X120591104Y-95887971D02*
X120686342Y-95840352D01*
X120686342Y-95840352D02*
X120876818Y-95840352D01*
X120876818Y-95840352D02*
X120972056Y-95887971D01*
X120543485Y-96459400D02*
X120638723Y-96507019D01*
X120638723Y-96507019D02*
X120876818Y-96507019D01*
X120876818Y-96507019D02*
X120972056Y-96459400D01*
X120972056Y-96459400D02*
X121019675Y-96364161D01*
X121019675Y-96364161D02*
X121019675Y-96268923D01*
X121019675Y-96268923D02*
X120972056Y-96173685D01*
X120972056Y-96173685D02*
X120876818Y-96126066D01*
X120876818Y-96126066D02*
X120638723Y-96126066D01*
X120638723Y-96126066D02*
X120543485Y-96078447D01*
X120067294Y-96507019D02*
X120067294Y-95840352D01*
X120067294Y-96030828D02*
X120019675Y-95935590D01*
X120019675Y-95935590D02*
X119972056Y-95887971D01*
X119972056Y-95887971D02*
X119876818Y-95840352D01*
X119876818Y-95840352D02*
X119781580Y-95840352D01*
X119591103Y-95840352D02*
X119210151Y-95840352D01*
X119448246Y-95507019D02*
X119448246Y-96364161D01*
X119448246Y-96364161D02*
X119400627Y-96459400D01*
X119400627Y-96459400D02*
X119305389Y-96507019D01*
X119305389Y-96507019D02*
X119210151Y-96507019D01*
X118114912Y-95840352D02*
X118114912Y-96507019D01*
X118114912Y-95935590D02*
X118067293Y-95887971D01*
X118067293Y-95887971D02*
X117972055Y-95840352D01*
X117972055Y-95840352D02*
X117829198Y-95840352D01*
X117829198Y-95840352D02*
X117733960Y-95887971D01*
X117733960Y-95887971D02*
X117686341Y-95983209D01*
X117686341Y-95983209D02*
X117686341Y-96507019D01*
X117067293Y-96507019D02*
X117162531Y-96459400D01*
X117162531Y-96459400D02*
X117210150Y-96411780D01*
X117210150Y-96411780D02*
X117257769Y-96316542D01*
X117257769Y-96316542D02*
X117257769Y-96030828D01*
X117257769Y-96030828D02*
X117210150Y-95935590D01*
X117210150Y-95935590D02*
X117162531Y-95887971D01*
X117162531Y-95887971D02*
X117067293Y-95840352D01*
X117067293Y-95840352D02*
X116924436Y-95840352D01*
X116924436Y-95840352D02*
X116829198Y-95887971D01*
X116829198Y-95887971D02*
X116781579Y-95935590D01*
X116781579Y-95935590D02*
X116733960Y-96030828D01*
X116733960Y-96030828D02*
X116733960Y-96316542D01*
X116733960Y-96316542D02*
X116781579Y-96411780D01*
X116781579Y-96411780D02*
X116829198Y-96459400D01*
X116829198Y-96459400D02*
X116924436Y-96507019D01*
X116924436Y-96507019D02*
X117067293Y-96507019D01*
X116305388Y-96411780D02*
X116257769Y-96459400D01*
X116257769Y-96459400D02*
X116305388Y-96507019D01*
X116305388Y-96507019D02*
X116353007Y-96459400D01*
X116353007Y-96459400D02*
X116305388Y-96411780D01*
X116305388Y-96411780D02*
X116305388Y-96507019D01*
X133829201Y-98117019D02*
X133638725Y-98117019D01*
X133638725Y-98117019D02*
X133543487Y-98069400D01*
X133543487Y-98069400D02*
X133495868Y-98021780D01*
X133495868Y-98021780D02*
X133400630Y-97878923D01*
X133400630Y-97878923D02*
X133353011Y-97688447D01*
X133353011Y-97688447D02*
X133353011Y-97307495D01*
X133353011Y-97307495D02*
X133400630Y-97212257D01*
X133400630Y-97212257D02*
X133448249Y-97164638D01*
X133448249Y-97164638D02*
X133543487Y-97117019D01*
X133543487Y-97117019D02*
X133733963Y-97117019D01*
X133733963Y-97117019D02*
X133829201Y-97164638D01*
X133829201Y-97164638D02*
X133876820Y-97212257D01*
X133876820Y-97212257D02*
X133924439Y-97307495D01*
X133924439Y-97307495D02*
X133924439Y-97545590D01*
X133924439Y-97545590D02*
X133876820Y-97640828D01*
X133876820Y-97640828D02*
X133829201Y-97688447D01*
X133829201Y-97688447D02*
X133733963Y-97736066D01*
X133733963Y-97736066D02*
X133543487Y-97736066D01*
X133543487Y-97736066D02*
X133448249Y-97688447D01*
X133448249Y-97688447D02*
X133400630Y-97640828D01*
X133400630Y-97640828D02*
X133353011Y-97545590D01*
X132495868Y-97117019D02*
X132686344Y-97117019D01*
X132686344Y-97117019D02*
X132781582Y-97164638D01*
X132781582Y-97164638D02*
X132829201Y-97212257D01*
X132829201Y-97212257D02*
X132924439Y-97355114D01*
X132924439Y-97355114D02*
X132972058Y-97545590D01*
X132972058Y-97545590D02*
X132972058Y-97926542D01*
X132972058Y-97926542D02*
X132924439Y-98021780D01*
X132924439Y-98021780D02*
X132876820Y-98069400D01*
X132876820Y-98069400D02*
X132781582Y-98117019D01*
X132781582Y-98117019D02*
X132591106Y-98117019D01*
X132591106Y-98117019D02*
X132495868Y-98069400D01*
X132495868Y-98069400D02*
X132448249Y-98021780D01*
X132448249Y-98021780D02*
X132400630Y-97926542D01*
X132400630Y-97926542D02*
X132400630Y-97688447D01*
X132400630Y-97688447D02*
X132448249Y-97593209D01*
X132448249Y-97593209D02*
X132495868Y-97545590D01*
X132495868Y-97545590D02*
X132591106Y-97497971D01*
X132591106Y-97497971D02*
X132781582Y-97497971D01*
X132781582Y-97497971D02*
X132876820Y-97545590D01*
X132876820Y-97545590D02*
X132924439Y-97593209D01*
X132924439Y-97593209D02*
X132972058Y-97688447D01*
X131972058Y-97736066D02*
X131210154Y-97736066D01*
X130543487Y-97117019D02*
X130448249Y-97117019D01*
X130448249Y-97117019D02*
X130353011Y-97164638D01*
X130353011Y-97164638D02*
X130305392Y-97212257D01*
X130305392Y-97212257D02*
X130257773Y-97307495D01*
X130257773Y-97307495D02*
X130210154Y-97497971D01*
X130210154Y-97497971D02*
X130210154Y-97736066D01*
X130210154Y-97736066D02*
X130257773Y-97926542D01*
X130257773Y-97926542D02*
X130305392Y-98021780D01*
X130305392Y-98021780D02*
X130353011Y-98069400D01*
X130353011Y-98069400D02*
X130448249Y-98117019D01*
X130448249Y-98117019D02*
X130543487Y-98117019D01*
X130543487Y-98117019D02*
X130638725Y-98069400D01*
X130638725Y-98069400D02*
X130686344Y-98021780D01*
X130686344Y-98021780D02*
X130733963Y-97926542D01*
X130733963Y-97926542D02*
X130781582Y-97736066D01*
X130781582Y-97736066D02*
X130781582Y-97497971D01*
X130781582Y-97497971D02*
X130733963Y-97307495D01*
X130733963Y-97307495D02*
X130686344Y-97212257D01*
X130686344Y-97212257D02*
X130638725Y-97164638D01*
X130638725Y-97164638D02*
X130543487Y-97117019D01*
X129591106Y-97117019D02*
X129495868Y-97117019D01*
X129495868Y-97117019D02*
X129400630Y-97164638D01*
X129400630Y-97164638D02*
X129353011Y-97212257D01*
X129353011Y-97212257D02*
X129305392Y-97307495D01*
X129305392Y-97307495D02*
X129257773Y-97497971D01*
X129257773Y-97497971D02*
X129257773Y-97736066D01*
X129257773Y-97736066D02*
X129305392Y-97926542D01*
X129305392Y-97926542D02*
X129353011Y-98021780D01*
X129353011Y-98021780D02*
X129400630Y-98069400D01*
X129400630Y-98069400D02*
X129495868Y-98117019D01*
X129495868Y-98117019D02*
X129591106Y-98117019D01*
X129591106Y-98117019D02*
X129686344Y-98069400D01*
X129686344Y-98069400D02*
X129733963Y-98021780D01*
X129733963Y-98021780D02*
X129781582Y-97926542D01*
X129781582Y-97926542D02*
X129829201Y-97736066D01*
X129829201Y-97736066D02*
X129829201Y-97497971D01*
X129829201Y-97497971D02*
X129781582Y-97307495D01*
X129781582Y-97307495D02*
X129733963Y-97212257D01*
X129733963Y-97212257D02*
X129686344Y-97164638D01*
X129686344Y-97164638D02*
X129591106Y-97117019D01*
X128400630Y-97117019D02*
X128591106Y-97117019D01*
X128591106Y-97117019D02*
X128686344Y-97164638D01*
X128686344Y-97164638D02*
X128733963Y-97212257D01*
X128733963Y-97212257D02*
X128829201Y-97355114D01*
X128829201Y-97355114D02*
X128876820Y-97545590D01*
X128876820Y-97545590D02*
X128876820Y-97926542D01*
X128876820Y-97926542D02*
X128829201Y-98021780D01*
X128829201Y-98021780D02*
X128781582Y-98069400D01*
X128781582Y-98069400D02*
X128686344Y-98117019D01*
X128686344Y-98117019D02*
X128495868Y-98117019D01*
X128495868Y-98117019D02*
X128400630Y-98069400D01*
X128400630Y-98069400D02*
X128353011Y-98021780D01*
X128353011Y-98021780D02*
X128305392Y-97926542D01*
X128305392Y-97926542D02*
X128305392Y-97688447D01*
X128305392Y-97688447D02*
X128353011Y-97593209D01*
X128353011Y-97593209D02*
X128400630Y-97545590D01*
X128400630Y-97545590D02*
X128495868Y-97497971D01*
X128495868Y-97497971D02*
X128686344Y-97497971D01*
X128686344Y-97497971D02*
X128781582Y-97545590D01*
X128781582Y-97545590D02*
X128829201Y-97593209D01*
X128829201Y-97593209D02*
X128876820Y-97688447D01*
X127448249Y-97117019D02*
X127638725Y-97117019D01*
X127638725Y-97117019D02*
X127733963Y-97164638D01*
X127733963Y-97164638D02*
X127781582Y-97212257D01*
X127781582Y-97212257D02*
X127876820Y-97355114D01*
X127876820Y-97355114D02*
X127924439Y-97545590D01*
X127924439Y-97545590D02*
X127924439Y-97926542D01*
X127924439Y-97926542D02*
X127876820Y-98021780D01*
X127876820Y-98021780D02*
X127829201Y-98069400D01*
X127829201Y-98069400D02*
X127733963Y-98117019D01*
X127733963Y-98117019D02*
X127543487Y-98117019D01*
X127543487Y-98117019D02*
X127448249Y-98069400D01*
X127448249Y-98069400D02*
X127400630Y-98021780D01*
X127400630Y-98021780D02*
X127353011Y-97926542D01*
X127353011Y-97926542D02*
X127353011Y-97688447D01*
X127353011Y-97688447D02*
X127400630Y-97593209D01*
X127400630Y-97593209D02*
X127448249Y-97545590D01*
X127448249Y-97545590D02*
X127543487Y-97497971D01*
X127543487Y-97497971D02*
X127733963Y-97497971D01*
X127733963Y-97497971D02*
X127829201Y-97545590D01*
X127829201Y-97545590D02*
X127876820Y-97593209D01*
X127876820Y-97593209D02*
X127924439Y-97688447D01*
X126924439Y-97736066D02*
X126162535Y-97736066D01*
X125162535Y-98117019D02*
X125733963Y-98117019D01*
X125448249Y-98117019D02*
X125448249Y-97117019D01*
X125448249Y-97117019D02*
X125543487Y-97259876D01*
X125543487Y-97259876D02*
X125638725Y-97355114D01*
X125638725Y-97355114D02*
X125733963Y-97402733D01*
X124543487Y-97117019D02*
X124448249Y-97117019D01*
X124448249Y-97117019D02*
X124353011Y-97164638D01*
X124353011Y-97164638D02*
X124305392Y-97212257D01*
X124305392Y-97212257D02*
X124257773Y-97307495D01*
X124257773Y-97307495D02*
X124210154Y-97497971D01*
X124210154Y-97497971D02*
X124210154Y-97736066D01*
X124210154Y-97736066D02*
X124257773Y-97926542D01*
X124257773Y-97926542D02*
X124305392Y-98021780D01*
X124305392Y-98021780D02*
X124353011Y-98069400D01*
X124353011Y-98069400D02*
X124448249Y-98117019D01*
X124448249Y-98117019D02*
X124543487Y-98117019D01*
X124543487Y-98117019D02*
X124638725Y-98069400D01*
X124638725Y-98069400D02*
X124686344Y-98021780D01*
X124686344Y-98021780D02*
X124733963Y-97926542D01*
X124733963Y-97926542D02*
X124781582Y-97736066D01*
X124781582Y-97736066D02*
X124781582Y-97497971D01*
X124781582Y-97497971D02*
X124733963Y-97307495D01*
X124733963Y-97307495D02*
X124686344Y-97212257D01*
X124686344Y-97212257D02*
X124638725Y-97164638D01*
X124638725Y-97164638D02*
X124543487Y-97117019D01*
X123591106Y-97117019D02*
X123495868Y-97117019D01*
X123495868Y-97117019D02*
X123400630Y-97164638D01*
X123400630Y-97164638D02*
X123353011Y-97212257D01*
X123353011Y-97212257D02*
X123305392Y-97307495D01*
X123305392Y-97307495D02*
X123257773Y-97497971D01*
X123257773Y-97497971D02*
X123257773Y-97736066D01*
X123257773Y-97736066D02*
X123305392Y-97926542D01*
X123305392Y-97926542D02*
X123353011Y-98021780D01*
X123353011Y-98021780D02*
X123400630Y-98069400D01*
X123400630Y-98069400D02*
X123495868Y-98117019D01*
X123495868Y-98117019D02*
X123591106Y-98117019D01*
X123591106Y-98117019D02*
X123686344Y-98069400D01*
X123686344Y-98069400D02*
X123733963Y-98021780D01*
X123733963Y-98021780D02*
X123781582Y-97926542D01*
X123781582Y-97926542D02*
X123829201Y-97736066D01*
X123829201Y-97736066D02*
X123829201Y-97497971D01*
X123829201Y-97497971D02*
X123781582Y-97307495D01*
X123781582Y-97307495D02*
X123733963Y-97212257D01*
X123733963Y-97212257D02*
X123686344Y-97164638D01*
X123686344Y-97164638D02*
X123591106Y-97117019D01*
X122876820Y-98069400D02*
X122733963Y-98117019D01*
X122733963Y-98117019D02*
X122495868Y-98117019D01*
X122495868Y-98117019D02*
X122400630Y-98069400D01*
X122400630Y-98069400D02*
X122353011Y-98021780D01*
X122353011Y-98021780D02*
X122305392Y-97926542D01*
X122305392Y-97926542D02*
X122305392Y-97831304D01*
X122305392Y-97831304D02*
X122353011Y-97736066D01*
X122353011Y-97736066D02*
X122400630Y-97688447D01*
X122400630Y-97688447D02*
X122495868Y-97640828D01*
X122495868Y-97640828D02*
X122686344Y-97593209D01*
X122686344Y-97593209D02*
X122781582Y-97545590D01*
X122781582Y-97545590D02*
X122829201Y-97497971D01*
X122829201Y-97497971D02*
X122876820Y-97402733D01*
X122876820Y-97402733D02*
X122876820Y-97307495D01*
X122876820Y-97307495D02*
X122829201Y-97212257D01*
X122829201Y-97212257D02*
X122781582Y-97164638D01*
X122781582Y-97164638D02*
X122686344Y-97117019D01*
X122686344Y-97117019D02*
X122448249Y-97117019D01*
X122448249Y-97117019D02*
X122305392Y-97164638D01*
X121876820Y-98117019D02*
X121876820Y-97117019D01*
X121876820Y-97117019D02*
X121543487Y-97831304D01*
X121543487Y-97831304D02*
X121210154Y-97117019D01*
X121210154Y-97117019D02*
X121210154Y-98117019D01*
X120733963Y-98117019D02*
X120733963Y-97117019D01*
X120733963Y-97117019D02*
X120495868Y-97117019D01*
X120495868Y-97117019D02*
X120353011Y-97164638D01*
X120353011Y-97164638D02*
X120257773Y-97259876D01*
X120257773Y-97259876D02*
X120210154Y-97355114D01*
X120210154Y-97355114D02*
X120162535Y-97545590D01*
X120162535Y-97545590D02*
X120162535Y-97688447D01*
X120162535Y-97688447D02*
X120210154Y-97878923D01*
X120210154Y-97878923D02*
X120257773Y-97974161D01*
X120257773Y-97974161D02*
X120353011Y-98069400D01*
X120353011Y-98069400D02*
X120495868Y-98117019D01*
X120495868Y-98117019D02*
X120733963Y-98117019D01*
%TO.C,G\u002A\u002A\u002A*%
G36*
X129265101Y-89199746D02*
G01*
X129261767Y-89203080D01*
X129258433Y-89199746D01*
X129261767Y-89196411D01*
X129265101Y-89199746D01*
G37*
G36*
X132557708Y-90803997D02*
G01*
X132580538Y-90813591D01*
X132592708Y-90829493D01*
X132594162Y-90850759D01*
X132584849Y-90876449D01*
X132564712Y-90905619D01*
X132533700Y-90937327D01*
X132484968Y-90977349D01*
X132407123Y-91028968D01*
X132324213Y-91070790D01*
X132238589Y-91101687D01*
X132152602Y-91120526D01*
X132074859Y-91128270D01*
X131986001Y-91127167D01*
X131900493Y-91114401D01*
X131816835Y-91089620D01*
X131733524Y-91052473D01*
X131649060Y-91002607D01*
X131644642Y-90999662D01*
X131612252Y-90976159D01*
X131580540Y-90950175D01*
X131551580Y-90923703D01*
X131527443Y-90898733D01*
X131510203Y-90877258D01*
X131501934Y-90861268D01*
X131501172Y-90843406D01*
X131510687Y-90824592D01*
X131524091Y-90806834D01*
X131616584Y-90808470D01*
X131654017Y-90809454D01*
X131703542Y-90811421D01*
X131752870Y-90813973D01*
X131795431Y-90816805D01*
X131833072Y-90819204D01*
X131896569Y-90821665D01*
X131968454Y-90822971D01*
X132045838Y-90823144D01*
X132125831Y-90822204D01*
X132205545Y-90820170D01*
X132282091Y-90817064D01*
X132352578Y-90812904D01*
X132371745Y-90811563D01*
X132415489Y-90808554D01*
X132455066Y-90805904D01*
X132488192Y-90803761D01*
X132512584Y-90802274D01*
X132525957Y-90801592D01*
X132557708Y-90803997D01*
G37*
G36*
X131871429Y-90262731D02*
G01*
X131864901Y-90329771D01*
X131848895Y-90396017D01*
X131823036Y-90459883D01*
X131792211Y-90512176D01*
X131750489Y-90561203D01*
X131701312Y-90599417D01*
X131644263Y-90627205D01*
X131610794Y-90637047D01*
X131555453Y-90642720D01*
X131500442Y-90635928D01*
X131447297Y-90617103D01*
X131397554Y-90586678D01*
X131352746Y-90545086D01*
X131350762Y-90542823D01*
X131321598Y-90501670D01*
X131296053Y-90450786D01*
X131275782Y-90393433D01*
X131270554Y-90368969D01*
X131266108Y-90328808D01*
X131264360Y-90283403D01*
X131265133Y-90246109D01*
X131406382Y-90246109D01*
X131408858Y-90305993D01*
X131420987Y-90363234D01*
X131442562Y-90415443D01*
X131473378Y-90460232D01*
X131479129Y-90466439D01*
X131496577Y-90482466D01*
X131511911Y-90493187D01*
X131536357Y-90503001D01*
X131572571Y-90506746D01*
X131608053Y-90497186D01*
X131642869Y-90474311D01*
X131669664Y-90445585D01*
X131695256Y-90402601D01*
X131713385Y-90352653D01*
X131723803Y-90298132D01*
X131726263Y-90241429D01*
X131720518Y-90184936D01*
X131706320Y-90131045D01*
X131683422Y-90082148D01*
X131666959Y-90058453D01*
X131636483Y-90029195D01*
X131603084Y-90012006D01*
X131568201Y-90006762D01*
X131533274Y-90013340D01*
X131499741Y-90031617D01*
X131469041Y-90061469D01*
X131442614Y-90102773D01*
X131431209Y-90127971D01*
X131413764Y-90185972D01*
X131406382Y-90246109D01*
X131265133Y-90246109D01*
X131265318Y-90237181D01*
X131268989Y-90194570D01*
X131275381Y-90159998D01*
X131280144Y-90144269D01*
X131290675Y-90115277D01*
X131303611Y-90083856D01*
X131317292Y-90053775D01*
X131330058Y-90028801D01*
X131340249Y-90012705D01*
X131373402Y-89976442D01*
X131421921Y-89937352D01*
X131474354Y-89908770D01*
X131529161Y-89891151D01*
X131584800Y-89884951D01*
X131639728Y-89890626D01*
X131692405Y-89908631D01*
X131732637Y-89932701D01*
X131775075Y-89971174D01*
X131810291Y-90018377D01*
X131837911Y-90072721D01*
X131857559Y-90132619D01*
X131868857Y-90196485D01*
X131870602Y-90241429D01*
X131871429Y-90262731D01*
G37*
G36*
X132810661Y-90303995D02*
G01*
X132803222Y-90361377D01*
X132790288Y-90412170D01*
X132772205Y-90457245D01*
X132738068Y-90516103D01*
X132695526Y-90564868D01*
X132644851Y-90603250D01*
X132586316Y-90630955D01*
X132562559Y-90637399D01*
X132517315Y-90641816D01*
X132469614Y-90638567D01*
X132424202Y-90628126D01*
X132385826Y-90610966D01*
X132367141Y-90598651D01*
X132316258Y-90554854D01*
X132273089Y-90501525D01*
X132238912Y-90440440D01*
X132215004Y-90373375D01*
X132208142Y-90337831D01*
X132203748Y-90292990D01*
X132202471Y-90251263D01*
X132354532Y-90251263D01*
X132358577Y-90304285D01*
X132365491Y-90338093D01*
X132381247Y-90385463D01*
X132402414Y-90427732D01*
X132427683Y-90462841D01*
X132455742Y-90488733D01*
X132485282Y-90503347D01*
X132485866Y-90503509D01*
X132512815Y-90508994D01*
X132535010Y-90507764D01*
X132559299Y-90499458D01*
X132565945Y-90496392D01*
X132594855Y-90477375D01*
X132619341Y-90450166D01*
X132640680Y-90413054D01*
X132660148Y-90364328D01*
X132668069Y-90331970D01*
X132672683Y-90286460D01*
X132672266Y-90237502D01*
X132666896Y-90189880D01*
X132656650Y-90148378D01*
X132656536Y-90148049D01*
X132634358Y-90097134D01*
X132606748Y-90056473D01*
X132574475Y-90026969D01*
X132538312Y-90009527D01*
X132527969Y-90007075D01*
X132494218Y-90007083D01*
X132462216Y-90018599D01*
X132432812Y-90040228D01*
X132406856Y-90070576D01*
X132385200Y-90108248D01*
X132368694Y-90151850D01*
X132358188Y-90199986D01*
X132354532Y-90251263D01*
X132202471Y-90251263D01*
X132202269Y-90244658D01*
X132203698Y-90196962D01*
X132208034Y-90154029D01*
X132215271Y-90119987D01*
X132239504Y-90057449D01*
X132272050Y-90001732D01*
X132311419Y-89956055D01*
X132356898Y-89921093D01*
X132407774Y-89897517D01*
X132463332Y-89886001D01*
X132497406Y-89884712D01*
X132558120Y-89891942D01*
X132614586Y-89911100D01*
X132665930Y-89941477D01*
X132711278Y-89982364D01*
X132749755Y-90033053D01*
X132780488Y-90092835D01*
X132802602Y-90161003D01*
X132808051Y-90189848D01*
X132812353Y-90245120D01*
X132811165Y-90286460D01*
X132810661Y-90303995D01*
G37*
G36*
X134166387Y-93164119D02*
G01*
X131165600Y-93164119D01*
X128164812Y-93164119D01*
X128164812Y-91440334D01*
X130078648Y-91440334D01*
X130081982Y-91443668D01*
X130084923Y-91440727D01*
X130098653Y-91440727D01*
X130098718Y-91441659D01*
X130102578Y-91443128D01*
X130104360Y-91441228D01*
X130119838Y-91441228D01*
X130125327Y-91443668D01*
X130128857Y-91443187D01*
X130129515Y-91440334D01*
X130138664Y-91440334D01*
X130141998Y-91443668D01*
X130145332Y-91440334D01*
X130152001Y-91440334D01*
X130155335Y-91443668D01*
X130158669Y-91440334D01*
X130157974Y-91439639D01*
X130167143Y-91439639D01*
X130167175Y-91440334D01*
X130167247Y-91441915D01*
X130175896Y-91443141D01*
X130182450Y-91442074D01*
X130180374Y-91439639D01*
X130193817Y-91439639D01*
X130193920Y-91441915D01*
X130195042Y-91442074D01*
X130202569Y-91443141D01*
X130209124Y-91442074D01*
X130207640Y-91440334D01*
X130232022Y-91440334D01*
X130233762Y-91442074D01*
X130235356Y-91443668D01*
X130238690Y-91440334D01*
X130237995Y-91439639D01*
X130247164Y-91439639D01*
X130247196Y-91440334D01*
X130247268Y-91441915D01*
X130255917Y-91443141D01*
X130262471Y-91442074D01*
X130260987Y-91440334D01*
X130272032Y-91440334D01*
X130273772Y-91442074D01*
X130275366Y-91443668D01*
X130278700Y-91440334D01*
X130285369Y-91440334D01*
X130288703Y-91443668D01*
X130292037Y-91440334D01*
X130312043Y-91440334D01*
X130315377Y-91443668D01*
X130318711Y-91440334D01*
X130325379Y-91440334D01*
X130328714Y-91443668D01*
X130332048Y-91440334D01*
X130338716Y-91440334D01*
X130342050Y-91443668D01*
X130345385Y-91440334D01*
X130352053Y-91440334D01*
X130355387Y-91443668D01*
X130358721Y-91440334D01*
X130365390Y-91440334D01*
X130368724Y-91443668D01*
X130372058Y-91440334D01*
X130378727Y-91440334D01*
X130382061Y-91443668D01*
X130385395Y-91440334D01*
X130405400Y-91440334D01*
X130408735Y-91443668D01*
X130412069Y-91440334D01*
X130418737Y-91440334D01*
X130422071Y-91443668D01*
X130425406Y-91440334D01*
X130432074Y-91440334D01*
X130435408Y-91443668D01*
X130438742Y-91440334D01*
X130445411Y-91440334D01*
X130448745Y-91443668D01*
X130452079Y-91440334D01*
X130448745Y-91436999D01*
X130445411Y-91440334D01*
X130438742Y-91440334D01*
X130435408Y-91436999D01*
X130432074Y-91440334D01*
X130425406Y-91440334D01*
X130422071Y-91436999D01*
X130418737Y-91440334D01*
X130412069Y-91440334D01*
X130408735Y-91436999D01*
X130405400Y-91440334D01*
X130385395Y-91440334D01*
X130382061Y-91436999D01*
X130378727Y-91440334D01*
X130372058Y-91440334D01*
X130368724Y-91436999D01*
X130365390Y-91440334D01*
X130358721Y-91440334D01*
X130355387Y-91436999D01*
X130352053Y-91440334D01*
X130345385Y-91440334D01*
X130342050Y-91436999D01*
X130338716Y-91440334D01*
X130332048Y-91440334D01*
X130328714Y-91436999D01*
X130325379Y-91440334D01*
X130318711Y-91440334D01*
X130315377Y-91436999D01*
X130312043Y-91440334D01*
X130292037Y-91440334D01*
X130288703Y-91436999D01*
X130285369Y-91440334D01*
X130278700Y-91440334D01*
X130275366Y-91436999D01*
X130272032Y-91440334D01*
X130260987Y-91440334D01*
X130259946Y-91439113D01*
X130256089Y-91438047D01*
X130247164Y-91439639D01*
X130237995Y-91439639D01*
X130235356Y-91436999D01*
X130232022Y-91440334D01*
X130207640Y-91440334D01*
X130206598Y-91439113D01*
X130202742Y-91438047D01*
X130193817Y-91439639D01*
X130180374Y-91439639D01*
X130179925Y-91439113D01*
X130176068Y-91438047D01*
X130167143Y-91439639D01*
X130157974Y-91439639D01*
X130155335Y-91436999D01*
X130152001Y-91440334D01*
X130145332Y-91440334D01*
X130141998Y-91436999D01*
X130139776Y-91439222D01*
X130138664Y-91440334D01*
X130129515Y-91440334D01*
X130129772Y-91439222D01*
X130128795Y-91438424D01*
X130120881Y-91439222D01*
X130119838Y-91441228D01*
X130104360Y-91441228D01*
X130109293Y-91435969D01*
X130110354Y-91433531D01*
X130473509Y-91433531D01*
X130474195Y-91440334D01*
X130474307Y-91441445D01*
X130476313Y-91442488D01*
X130477271Y-91440334D01*
X130485421Y-91440334D01*
X130488756Y-91443668D01*
X130492090Y-91440334D01*
X130498758Y-91440334D01*
X130502092Y-91443668D01*
X130505427Y-91440334D01*
X130512095Y-91440334D01*
X130515429Y-91443668D01*
X130518763Y-91440334D01*
X130518068Y-91439639D01*
X130527238Y-91439639D01*
X130527269Y-91440334D01*
X130527341Y-91441915D01*
X130535990Y-91443141D01*
X130542545Y-91442074D01*
X130541061Y-91440334D01*
X130552106Y-91440334D01*
X130553846Y-91442074D01*
X130555440Y-91443668D01*
X130558774Y-91440334D01*
X130558079Y-91439639D01*
X130567248Y-91439639D01*
X130567280Y-91440334D01*
X130567352Y-91441915D01*
X130576001Y-91443141D01*
X130582555Y-91442074D01*
X130581071Y-91440334D01*
X130605453Y-91440334D01*
X130607193Y-91442074D01*
X130608787Y-91443668D01*
X130612121Y-91440334D01*
X130618790Y-91440334D01*
X130622124Y-91443668D01*
X130625458Y-91440334D01*
X130632127Y-91440334D01*
X130635461Y-91443668D01*
X130638795Y-91440334D01*
X130658800Y-91440334D01*
X130662134Y-91443668D01*
X130665469Y-91440334D01*
X130672137Y-91440334D01*
X130675471Y-91443668D01*
X130678805Y-91440334D01*
X130678110Y-91439639D01*
X130700617Y-91439639D01*
X130700648Y-91440334D01*
X130700720Y-91441915D01*
X130709369Y-91443141D01*
X130715924Y-91442074D01*
X130714440Y-91440334D01*
X130725484Y-91440334D01*
X130727225Y-91442074D01*
X130728819Y-91443668D01*
X130732153Y-91440334D01*
X130738821Y-91440334D01*
X130742155Y-91443668D01*
X130745490Y-91440334D01*
X130742155Y-91436999D01*
X130738821Y-91440334D01*
X130732153Y-91440334D01*
X130728819Y-91436999D01*
X130725484Y-91440334D01*
X130714440Y-91440334D01*
X130713398Y-91439113D01*
X130709542Y-91438047D01*
X130700617Y-91439639D01*
X130678110Y-91439639D01*
X130675471Y-91436999D01*
X130672137Y-91440334D01*
X130665469Y-91440334D01*
X130662134Y-91436999D01*
X130658800Y-91440334D01*
X130638795Y-91440334D01*
X130635461Y-91436999D01*
X130632127Y-91440334D01*
X130625458Y-91440334D01*
X130622124Y-91436999D01*
X130618790Y-91440334D01*
X130612121Y-91440334D01*
X130608787Y-91436999D01*
X130605453Y-91440334D01*
X130581071Y-91440334D01*
X130580030Y-91439113D01*
X130576173Y-91438047D01*
X130567248Y-91439639D01*
X130558079Y-91439639D01*
X130555440Y-91436999D01*
X130552106Y-91440334D01*
X130541061Y-91440334D01*
X130540019Y-91439113D01*
X130536163Y-91438047D01*
X130527238Y-91439639D01*
X130518068Y-91439639D01*
X130515429Y-91436999D01*
X130512095Y-91440334D01*
X130505427Y-91440334D01*
X130502092Y-91436999D01*
X130498758Y-91440334D01*
X130492090Y-91440334D01*
X130488756Y-91436999D01*
X130485421Y-91440334D01*
X130477271Y-91440334D01*
X130478753Y-91436999D01*
X130478272Y-91433469D01*
X130474307Y-91432554D01*
X130473509Y-91433531D01*
X130110354Y-91433531D01*
X130110915Y-91432243D01*
X130106352Y-91433029D01*
X130103390Y-91435087D01*
X130098983Y-91440334D01*
X130098653Y-91440727D01*
X130084923Y-91440727D01*
X130085316Y-91440334D01*
X130081982Y-91436999D01*
X130078648Y-91440334D01*
X128164812Y-91440334D01*
X128164812Y-91420328D01*
X130011964Y-91420328D01*
X130015298Y-91423663D01*
X130018632Y-91420328D01*
X130015298Y-91416994D01*
X130011964Y-91420328D01*
X128164812Y-91420328D01*
X128164812Y-91400189D01*
X130000052Y-91400189D01*
X130000850Y-91408103D01*
X130002855Y-91409146D01*
X130005295Y-91403657D01*
X130004814Y-91400127D01*
X130000850Y-91399212D01*
X130000052Y-91400189D01*
X128164812Y-91400189D01*
X128164812Y-91386986D01*
X129991959Y-91386986D01*
X129995293Y-91390321D01*
X129998627Y-91386986D01*
X129995293Y-91383652D01*
X129991959Y-91386986D01*
X128164812Y-91386986D01*
X128164812Y-91317402D01*
X129953583Y-91317402D01*
X129955282Y-91323636D01*
X129956652Y-91325610D01*
X129962738Y-91330305D01*
X129963650Y-91329871D01*
X129961951Y-91323636D01*
X129960581Y-91321662D01*
X129954495Y-91316968D01*
X129953583Y-91317402D01*
X128164812Y-91317402D01*
X128164812Y-91293629D01*
X129938611Y-91293629D01*
X129941945Y-91296963D01*
X129945280Y-91293629D01*
X129941945Y-91290294D01*
X129938611Y-91293629D01*
X128164812Y-91293629D01*
X128164812Y-91273623D01*
X129925274Y-91273623D01*
X129928609Y-91276957D01*
X129931943Y-91273623D01*
X129928609Y-91270289D01*
X129925274Y-91273623D01*
X128164812Y-91273623D01*
X128164812Y-91240281D01*
X129905269Y-91240281D01*
X129908603Y-91243615D01*
X129911938Y-91240281D01*
X129908603Y-91236947D01*
X129905269Y-91240281D01*
X128164812Y-91240281D01*
X128164812Y-91204539D01*
X129885440Y-91204539D01*
X129891712Y-91213608D01*
X129898402Y-91222775D01*
X129903382Y-91229723D01*
X129903958Y-91230237D01*
X129905269Y-91225538D01*
X129902962Y-91219584D01*
X129893599Y-91209423D01*
X129887762Y-91204970D01*
X129885440Y-91204539D01*
X128164812Y-91204539D01*
X128164812Y-91184034D01*
X129873562Y-91184034D01*
X129875261Y-91190268D01*
X129876631Y-91192242D01*
X129882717Y-91196936D01*
X129883629Y-91196502D01*
X129881930Y-91190268D01*
X129880560Y-91188294D01*
X129874474Y-91183600D01*
X129873562Y-91184034D01*
X128164812Y-91184034D01*
X128164812Y-91146616D01*
X129854298Y-91146616D01*
X129858590Y-91156926D01*
X129863706Y-91165151D01*
X129869062Y-91170263D01*
X129869551Y-91167236D01*
X129865259Y-91156926D01*
X129860142Y-91148701D01*
X129854787Y-91143589D01*
X129854298Y-91146616D01*
X128164812Y-91146616D01*
X128164812Y-91106913D01*
X129825248Y-91106913D01*
X129828582Y-91110247D01*
X129831917Y-91106913D01*
X129828582Y-91103579D01*
X129825248Y-91106913D01*
X128164812Y-91106913D01*
X128164812Y-91093576D01*
X129818580Y-91093576D01*
X129821914Y-91096910D01*
X129825248Y-91093576D01*
X129821914Y-91090242D01*
X129818580Y-91093576D01*
X128164812Y-91093576D01*
X128164812Y-91060100D01*
X129799999Y-91060100D01*
X129800797Y-91068014D01*
X129802803Y-91069057D01*
X129805243Y-91063568D01*
X129804762Y-91060038D01*
X129800797Y-91059123D01*
X129799999Y-91060100D01*
X128164812Y-91060100D01*
X128164812Y-91046897D01*
X129791906Y-91046897D01*
X129795240Y-91050231D01*
X129798574Y-91046897D01*
X129795240Y-91043563D01*
X129791906Y-91046897D01*
X128164812Y-91046897D01*
X128164812Y-91014017D01*
X129772550Y-91014017D01*
X129773430Y-91018962D01*
X129781378Y-91028718D01*
X129788123Y-91035022D01*
X129790263Y-91035534D01*
X129784568Y-91025528D01*
X129777826Y-91016505D01*
X129772550Y-91014017D01*
X128164812Y-91014017D01*
X128164812Y-90993843D01*
X129760787Y-90993843D01*
X129760826Y-90996307D01*
X129762808Y-91003168D01*
X129768282Y-90997345D01*
X129769157Y-90995368D01*
X129766453Y-90987635D01*
X129763729Y-90987155D01*
X129760787Y-90993843D01*
X128164812Y-90993843D01*
X128164812Y-90960208D01*
X129738559Y-90960208D01*
X129741893Y-90963542D01*
X129745227Y-90960208D01*
X129741893Y-90956873D01*
X129738559Y-90960208D01*
X128164812Y-90960208D01*
X128164812Y-90910629D01*
X129713520Y-90910629D01*
X129715219Y-90916863D01*
X129716589Y-90918837D01*
X129722675Y-90923531D01*
X129723587Y-90923097D01*
X129721888Y-90916863D01*
X129720518Y-90914889D01*
X129714432Y-90910195D01*
X129713520Y-90910629D01*
X128164812Y-90910629D01*
X128164812Y-90896858D01*
X129701882Y-90896858D01*
X129703251Y-90898853D01*
X129708944Y-90903526D01*
X129709610Y-90903353D01*
X129710060Y-90902069D01*
X129729031Y-90902069D01*
X129729899Y-90909970D01*
X129733136Y-90917975D01*
X129738852Y-90923097D01*
X129739336Y-90923531D01*
X129740970Y-90923812D01*
X129745227Y-90930665D01*
X129746659Y-90935390D01*
X129753910Y-90949159D01*
X129760971Y-90960208D01*
X129765232Y-90966876D01*
X129772645Y-90978160D01*
X129781702Y-90993910D01*
X129782264Y-90995368D01*
X129785238Y-91003087D01*
X129785428Y-91005037D01*
X129790239Y-91010297D01*
X129792469Y-91011744D01*
X129799686Y-91021928D01*
X129806843Y-91035534D01*
X129808476Y-91038638D01*
X129812427Y-91046897D01*
X129812639Y-91047340D01*
X129820489Y-91062669D01*
X129821042Y-91063568D01*
X129825147Y-91070237D01*
X129831667Y-91078942D01*
X129840564Y-91093576D01*
X129841409Y-91094965D01*
X129847846Y-91106913D01*
X129850737Y-91112280D01*
X129856445Y-91125251D01*
X129859335Y-91131479D01*
X129866036Y-91136921D01*
X129868443Y-91137713D01*
X129871927Y-91145950D01*
X129872207Y-91147841D01*
X129878290Y-91159705D01*
X129884246Y-91167236D01*
X129889825Y-91174290D01*
X129893435Y-91178265D01*
X129903473Y-91190404D01*
X129907041Y-91196502D01*
X129907295Y-91196936D01*
X129907238Y-91197620D01*
X129910388Y-91210117D01*
X129918076Y-91224930D01*
X129918602Y-91225538D01*
X129926572Y-91234742D01*
X129930359Y-91237750D01*
X129931911Y-91240281D01*
X129936002Y-91246950D01*
X129936200Y-91248547D01*
X129940269Y-91264509D01*
X129944545Y-91273623D01*
X129946582Y-91277965D01*
X129952726Y-91283626D01*
X129955429Y-91284748D01*
X129958616Y-91293629D01*
X129959278Y-91298219D01*
X129964507Y-91303631D01*
X129968251Y-91305450D01*
X129974217Y-91315301D01*
X129977279Y-91322738D01*
X129980955Y-91329871D01*
X129986938Y-91341482D01*
X129999644Y-91363458D01*
X130012510Y-91383768D01*
X130014884Y-91386986D01*
X130022651Y-91397514D01*
X130027126Y-91403657D01*
X130027924Y-91404753D01*
X130031969Y-91415287D01*
X130031970Y-91415313D01*
X130036869Y-91417083D01*
X130051645Y-91418566D01*
X130076792Y-91419773D01*
X130098054Y-91420328D01*
X130112804Y-91420713D01*
X130160174Y-91421396D01*
X130219398Y-91421831D01*
X130290969Y-91422029D01*
X130375381Y-91421998D01*
X130397674Y-91421957D01*
X130462839Y-91421765D01*
X130523476Y-91421481D01*
X130578324Y-91421117D01*
X130626127Y-91420685D01*
X130665627Y-91420199D01*
X130695564Y-91419670D01*
X130714681Y-91419112D01*
X130721719Y-91418537D01*
X130721816Y-91418092D01*
X130716664Y-91411545D01*
X130703754Y-91399487D01*
X130685424Y-91384135D01*
X130639644Y-91342288D01*
X130595737Y-91287546D01*
X130564121Y-91228253D01*
X130545048Y-91164805D01*
X130542429Y-91148619D01*
X130539639Y-91092673D01*
X130540119Y-91086779D01*
X130628573Y-91086779D01*
X130631909Y-91124848D01*
X130633300Y-91133997D01*
X130637551Y-91158232D01*
X130641486Y-91175863D01*
X130644402Y-91183581D01*
X130646091Y-91185489D01*
X130653107Y-91196701D01*
X130662108Y-91213608D01*
X130669238Y-91225613D01*
X130688595Y-91250725D01*
X130713854Y-91278193D01*
X130741726Y-91304765D01*
X130768927Y-91327193D01*
X130792169Y-91342226D01*
X130802315Y-91347395D01*
X130820543Y-91356736D01*
X130832179Y-91362774D01*
X130859567Y-91376797D01*
X130881699Y-91386872D01*
X130893395Y-91390321D01*
X130893936Y-91390344D01*
X130905029Y-91393281D01*
X130921195Y-91399630D01*
X130931847Y-91403961D01*
X130962143Y-91413248D01*
X130985266Y-91418092D01*
X131000383Y-91421259D01*
X131047644Y-91428137D01*
X131087656Y-91432243D01*
X131105001Y-91434023D01*
X131173531Y-91439058D01*
X131197358Y-91440334D01*
X131254310Y-91443384D01*
X131279471Y-91444444D01*
X131329884Y-91446113D01*
X131384709Y-91447443D01*
X131442172Y-91448431D01*
X131500499Y-91449077D01*
X131557914Y-91449379D01*
X131612645Y-91449334D01*
X131662915Y-91448942D01*
X131706951Y-91448201D01*
X131742978Y-91447109D01*
X131769223Y-91445664D01*
X131783909Y-91443866D01*
X131793157Y-91442591D01*
X131814941Y-91440843D01*
X131846309Y-91438988D01*
X131885199Y-91437132D01*
X131929548Y-91435384D01*
X131977293Y-91433848D01*
X132017833Y-91432535D01*
X132061511Y-91430750D01*
X132099500Y-91428798D01*
X132129890Y-91426793D01*
X132150769Y-91424846D01*
X132160225Y-91423071D01*
X132160685Y-91422843D01*
X132173332Y-91419398D01*
X132194634Y-91415948D01*
X132220241Y-91413208D01*
X132247724Y-91409762D01*
X132272830Y-91404548D01*
X132290052Y-91398703D01*
X132293846Y-91396940D01*
X132302372Y-91394152D01*
X132313683Y-91392293D01*
X132329534Y-91391337D01*
X132351679Y-91391258D01*
X132381874Y-91392031D01*
X132421874Y-91393630D01*
X132473433Y-91396029D01*
X132525490Y-91398551D01*
X132597707Y-91402121D01*
X132658308Y-91405234D01*
X132708340Y-91407964D01*
X132748851Y-91410384D01*
X132780887Y-91412568D01*
X132805496Y-91414590D01*
X132823725Y-91416523D01*
X132836621Y-91418441D01*
X132845232Y-91420417D01*
X132850604Y-91422525D01*
X132850910Y-91422684D01*
X132865103Y-91426567D01*
X132887700Y-91429373D01*
X132913954Y-91430503D01*
X132923743Y-91430640D01*
X132956503Y-91431924D01*
X132993834Y-91434253D01*
X133029422Y-91437258D01*
X133070096Y-91440082D01*
X133134219Y-91439561D01*
X133193193Y-91432933D01*
X133244635Y-91420518D01*
X133286156Y-91402638D01*
X133291146Y-91399867D01*
X133305652Y-91392455D01*
X133312873Y-91388107D01*
X133325834Y-91377493D01*
X133327073Y-91376291D01*
X133340290Y-91364207D01*
X133356352Y-91350303D01*
X133369776Y-91337828D01*
X133387715Y-91318195D01*
X133403687Y-91297890D01*
X133415140Y-91280217D01*
X133419525Y-91268479D01*
X133421035Y-91262015D01*
X133429527Y-91250284D01*
X133434727Y-91244039D01*
X133439530Y-91228824D01*
X133442038Y-91215325D01*
X133449098Y-91197965D01*
X133455408Y-91181962D01*
X133462076Y-91150698D01*
X133466220Y-91112158D01*
X133467842Y-91069740D01*
X133466940Y-91026836D01*
X133463516Y-90986844D01*
X133457568Y-90953157D01*
X133449098Y-90929171D01*
X133442657Y-90913806D01*
X133439530Y-90898312D01*
X133438063Y-90890255D01*
X133429527Y-90876852D01*
X133424099Y-90871359D01*
X133419525Y-90862418D01*
X133419508Y-90861839D01*
X133416818Y-90854156D01*
X133408545Y-90842736D01*
X133393254Y-90825841D01*
X133369512Y-90801730D01*
X133349948Y-90782409D01*
X133332626Y-90765901D01*
X133321143Y-90756087D01*
X133313597Y-90751370D01*
X133308086Y-90750153D01*
X133303015Y-90748564D01*
X133292825Y-90740150D01*
X133286980Y-90734872D01*
X133274861Y-90730147D01*
X133267716Y-90728417D01*
X133255196Y-90720145D01*
X133247693Y-90714641D01*
X133233149Y-90710142D01*
X133225706Y-90708687D01*
X133212804Y-90700139D01*
X133205665Y-90694533D01*
X133190132Y-90690137D01*
X133179027Y-90688314D01*
X133162419Y-90680792D01*
X133151502Y-90674893D01*
X133132594Y-90669122D01*
X133126512Y-90667822D01*
X133117644Y-90660739D01*
X133113987Y-90644653D01*
X133115270Y-90624908D01*
X133121479Y-90607831D01*
X133123288Y-90604730D01*
X133130528Y-90586561D01*
X133135854Y-90564993D01*
X133137200Y-90558007D01*
X133141909Y-90541468D01*
X133146700Y-90533070D01*
X133147001Y-90532795D01*
X133149292Y-90523638D01*
X133150991Y-90504415D01*
X133152098Y-90478051D01*
X133152619Y-90447469D01*
X133152554Y-90415593D01*
X133151907Y-90385346D01*
X133150682Y-90359652D01*
X133148880Y-90341433D01*
X133146505Y-90333615D01*
X133144600Y-90331392D01*
X133139763Y-90318848D01*
X133135777Y-90300094D01*
X133134333Y-90292266D01*
X133128693Y-90273767D01*
X133122055Y-90262756D01*
X133117587Y-90257591D01*
X133112778Y-90243353D01*
X133111314Y-90236062D01*
X133102775Y-90223348D01*
X133097337Y-90217879D01*
X133092772Y-90209137D01*
X133091758Y-90205000D01*
X133082887Y-90191024D01*
X133066944Y-90172594D01*
X133046443Y-90152138D01*
X133023900Y-90132085D01*
X133001828Y-90114862D01*
X132982743Y-90102897D01*
X132963453Y-90093003D01*
X132940930Y-90081069D01*
X132921061Y-90069932D01*
X132913805Y-90066031D01*
X132899388Y-90059448D01*
X132894147Y-90057234D01*
X132879383Y-90049445D01*
X132874142Y-90046418D01*
X132859378Y-90039443D01*
X132859222Y-90039384D01*
X132840322Y-90030239D01*
X132830889Y-90018563D01*
X132827232Y-89999807D01*
X132827024Y-89994439D01*
X132829507Y-89970003D01*
X132835945Y-89945925D01*
X132838635Y-89938092D01*
X132842392Y-89921295D01*
X132844380Y-89899965D01*
X132844801Y-89871184D01*
X132843860Y-89832035D01*
X132843571Y-89824410D01*
X132841207Y-89784260D01*
X132837690Y-89746508D01*
X132833347Y-89713340D01*
X132828505Y-89686942D01*
X132823489Y-89669500D01*
X132818628Y-89663201D01*
X132818393Y-89663178D01*
X132813709Y-89656806D01*
X132809221Y-89642543D01*
X132801319Y-89620460D01*
X132785355Y-89590910D01*
X132763980Y-89558755D01*
X132739454Y-89526908D01*
X132714035Y-89498284D01*
X132689984Y-89475799D01*
X132669559Y-89462366D01*
X132665219Y-89460290D01*
X132648580Y-89451324D01*
X132629317Y-89440027D01*
X132621592Y-89435590D01*
X132602941Y-89426900D01*
X132589307Y-89423215D01*
X132578826Y-89420986D01*
X132563026Y-89412923D01*
X132548841Y-89406303D01*
X132529565Y-89403132D01*
X132519260Y-89401852D01*
X132499025Y-89394420D01*
X132479612Y-89382650D01*
X132465025Y-89369191D01*
X132459273Y-89356689D01*
X132460918Y-89348132D01*
X132469275Y-89334067D01*
X132471354Y-89330940D01*
X132475708Y-89315033D01*
X132478495Y-89290747D01*
X132479718Y-89261600D01*
X132479382Y-89231112D01*
X132477491Y-89202803D01*
X132474050Y-89180191D01*
X132469063Y-89166796D01*
X132462765Y-89154050D01*
X132459273Y-89135121D01*
X132457532Y-89122157D01*
X132453054Y-89116390D01*
X132448161Y-89113035D01*
X132442434Y-89101386D01*
X132439085Y-89091427D01*
X132430748Y-89071186D01*
X132420960Y-89050720D01*
X132411801Y-89034253D01*
X132405348Y-89026010D01*
X132402195Y-89022283D01*
X132399257Y-89010016D01*
X132397776Y-89003062D01*
X132389254Y-88993947D01*
X132383459Y-88989112D01*
X132379252Y-88976087D01*
X132377646Y-88966885D01*
X132369249Y-88952062D01*
X132362235Y-88939067D01*
X132359087Y-88920863D01*
X132359027Y-88918249D01*
X132356824Y-88896213D01*
X132352489Y-88872993D01*
X132350626Y-88862000D01*
X132350919Y-88829163D01*
X132357613Y-88793487D01*
X132369816Y-88760757D01*
X132369956Y-88760476D01*
X132376526Y-88745841D01*
X132379252Y-88736888D01*
X132376754Y-88734160D01*
X132364655Y-88731631D01*
X132346219Y-88731096D01*
X132325604Y-88732406D01*
X132306967Y-88735411D01*
X132294464Y-88739959D01*
X132282726Y-88746157D01*
X132269998Y-88749627D01*
X132257840Y-88752304D01*
X132241423Y-88759000D01*
X132230513Y-88764391D01*
X132209355Y-88774814D01*
X132182271Y-88788135D01*
X132152526Y-88802747D01*
X132127120Y-88815379D01*
X132099688Y-88829385D01*
X132077827Y-88840947D01*
X132064758Y-88848389D01*
X132056374Y-88853654D01*
X132036482Y-88865962D01*
X132014798Y-88879222D01*
X132002476Y-88887044D01*
X131981404Y-88901769D01*
X131965930Y-88914231D01*
X131964456Y-88915584D01*
X131952382Y-88925579D01*
X131945226Y-88929675D01*
X131938726Y-88932981D01*
X131923779Y-88944187D01*
X131902536Y-88961847D01*
X131876742Y-88984429D01*
X131848144Y-89010400D01*
X131818486Y-89038227D01*
X131789516Y-89066377D01*
X131764698Y-89091284D01*
X131735792Y-89121593D01*
X131715313Y-89145149D01*
X131702265Y-89163121D01*
X131695653Y-89176678D01*
X131694213Y-89179740D01*
X131692092Y-89184248D01*
X131689416Y-89186409D01*
X131685287Y-89189743D01*
X131681826Y-89191876D01*
X131679068Y-89202263D01*
X131677625Y-89209919D01*
X131671233Y-89219751D01*
X131669065Y-89223085D01*
X131663854Y-89229069D01*
X131659063Y-89242632D01*
X131657549Y-89249759D01*
X131657053Y-89252094D01*
X131649272Y-89266822D01*
X131643395Y-89277822D01*
X131639975Y-89293103D01*
X131639228Y-89296438D01*
X131637489Y-89306440D01*
X131636336Y-89313067D01*
X131636320Y-89313109D01*
X131629014Y-89332209D01*
X131626016Y-89339618D01*
X131623950Y-89349351D01*
X131622724Y-89355124D01*
X131621658Y-89366456D01*
X131620575Y-89377973D01*
X131619406Y-89410159D01*
X131619358Y-89416035D01*
X131619056Y-89453145D01*
X131619052Y-89453673D01*
X131619052Y-89468546D01*
X131618965Y-89479819D01*
X131618758Y-89506453D01*
X131617270Y-89533472D01*
X131615467Y-89542337D01*
X131613613Y-89551456D01*
X131612532Y-89553172D01*
X131606812Y-89562255D01*
X131595894Y-89567722D01*
X131579884Y-89569706D01*
X131557808Y-89570060D01*
X131523378Y-89573606D01*
X131500526Y-89579845D01*
X131477238Y-89586203D01*
X131430963Y-89606349D01*
X131388992Y-89632405D01*
X131388875Y-89632491D01*
X131371750Y-89646530D01*
X131368047Y-89649566D01*
X131357180Y-89659866D01*
X131347454Y-89669084D01*
X131337454Y-89679872D01*
X131329619Y-89688324D01*
X131317065Y-89704567D01*
X131316172Y-89706545D01*
X131312314Y-89715090D01*
X131311163Y-89719491D01*
X131302302Y-89727473D01*
X131297592Y-89730576D01*
X131292259Y-89742268D01*
X131292253Y-89742594D01*
X131289037Y-89756180D01*
X131281697Y-89773229D01*
X131279001Y-89780593D01*
X131275175Y-89801228D01*
X131274664Y-89806572D01*
X131272538Y-89828822D01*
X131271612Y-89849482D01*
X131271140Y-89860006D01*
X131271094Y-89873256D01*
X131271032Y-89891412D01*
X131271404Y-89899929D01*
X131272265Y-89919672D01*
X131274892Y-89941416D01*
X131278962Y-89953275D01*
X131281122Y-89957512D01*
X131282823Y-89966614D01*
X131284104Y-89973464D01*
X131284351Y-89994277D01*
X131282189Y-90013039D01*
X131282087Y-90013292D01*
X131276865Y-90026228D01*
X131266732Y-90034034D01*
X131255347Y-90040512D01*
X131251089Y-90043694D01*
X131243726Y-90049196D01*
X131234598Y-90054025D01*
X131218430Y-90056637D01*
X131204904Y-90059025D01*
X131192274Y-90066640D01*
X131186224Y-90071819D01*
X131185130Y-90072188D01*
X131171928Y-90076642D01*
X131165150Y-90077644D01*
X131150971Y-90084978D01*
X131148944Y-90086645D01*
X131148156Y-90087293D01*
X131134001Y-90096522D01*
X131115540Y-90106650D01*
X131104945Y-90113319D01*
X131099648Y-90116653D01*
X131076965Y-90134910D01*
X131071523Y-90139992D01*
X131053100Y-90157195D01*
X131044139Y-90166666D01*
X131031030Y-90180521D01*
X131026055Y-90186671D01*
X131013734Y-90201901D01*
X131010962Y-90206677D01*
X131004190Y-90218346D01*
X130997879Y-90231121D01*
X130994434Y-90234158D01*
X130991569Y-90236684D01*
X130987812Y-90239973D01*
X130985512Y-90251688D01*
X130985509Y-90251954D01*
X130982071Y-90268364D01*
X130974082Y-90286698D01*
X130969903Y-90299037D01*
X130966006Y-90323698D01*
X130963390Y-90356161D01*
X130962053Y-90393425D01*
X130961990Y-90432491D01*
X130963198Y-90470357D01*
X130965672Y-90504026D01*
X130969410Y-90530495D01*
X130974407Y-90546766D01*
X130974774Y-90547436D01*
X130982353Y-90564741D01*
X130985512Y-90578675D01*
X130988169Y-90590562D01*
X130996013Y-90606544D01*
X131002650Y-90623623D01*
X131004348Y-90644653D01*
X131003555Y-90651522D01*
X130999952Y-90662181D01*
X130990793Y-90667687D01*
X130972216Y-90671236D01*
X130927618Y-90679259D01*
X130873585Y-90694465D01*
X130826586Y-90715440D01*
X130783219Y-90743484D01*
X130779913Y-90746096D01*
X130765924Y-90758563D01*
X130748670Y-90775271D01*
X130730742Y-90793540D01*
X130714729Y-90810687D01*
X130703222Y-90824031D01*
X130698811Y-90830888D01*
X130697583Y-90834835D01*
X130690475Y-90845005D01*
X130680733Y-90858381D01*
X130672050Y-90873518D01*
X130670364Y-90876457D01*
X130667249Y-90883087D01*
X130662133Y-90893978D01*
X130658759Y-90905734D01*
X130658759Y-90905764D01*
X130655814Y-90916840D01*
X130648834Y-90932480D01*
X130645671Y-90939446D01*
X130637502Y-90967910D01*
X130631705Y-91004496D01*
X130628617Y-91045390D01*
X130628573Y-91086779D01*
X130540119Y-91086779D01*
X130544634Y-91031316D01*
X130556960Y-90968304D01*
X130576164Y-90907391D01*
X130576260Y-90907088D01*
X130572940Y-90903466D01*
X130560068Y-90900822D01*
X130536386Y-90898997D01*
X130500635Y-90897832D01*
X130470698Y-90897237D01*
X130443770Y-90896771D01*
X130424371Y-90896514D01*
X130415403Y-90896510D01*
X130414051Y-90896540D01*
X130401780Y-90896636D01*
X130378456Y-90896740D01*
X130345781Y-90896846D01*
X130341128Y-90896858D01*
X130305458Y-90896950D01*
X130259190Y-90897046D01*
X130208682Y-90897130D01*
X130153050Y-90897222D01*
X130094273Y-90897340D01*
X130036753Y-90897475D01*
X129983510Y-90897619D01*
X129937564Y-90897764D01*
X129901935Y-90897903D01*
X129883044Y-90897971D01*
X129844031Y-90898011D01*
X129808452Y-90897920D01*
X129779607Y-90897712D01*
X129760797Y-90897397D01*
X129747085Y-90897151D01*
X129733779Y-90898195D01*
X129729031Y-90902069D01*
X129710060Y-90902069D01*
X129711885Y-90896858D01*
X129711614Y-90895030D01*
X129704823Y-90890189D01*
X129702411Y-90890713D01*
X129701882Y-90896858D01*
X128164812Y-90896858D01*
X128164812Y-90873518D01*
X129718553Y-90873518D01*
X129721888Y-90876852D01*
X129724327Y-90874413D01*
X129733070Y-90874413D01*
X129738559Y-90876852D01*
X129742089Y-90876371D01*
X129743004Y-90872407D01*
X129742027Y-90871609D01*
X129734113Y-90872407D01*
X129733535Y-90873518D01*
X129733070Y-90874413D01*
X129724327Y-90874413D01*
X129725222Y-90873518D01*
X129722322Y-90870618D01*
X129886899Y-90870618D01*
X129887387Y-90872407D01*
X129888598Y-90876852D01*
X129889968Y-90878826D01*
X129896054Y-90883521D01*
X129896966Y-90883087D01*
X129895266Y-90876852D01*
X129893896Y-90874878D01*
X129892133Y-90873518D01*
X129911938Y-90873518D01*
X129915272Y-90876852D01*
X129918606Y-90873518D01*
X130532100Y-90873518D01*
X130535434Y-90876852D01*
X130538769Y-90873518D01*
X130535434Y-90870184D01*
X130532100Y-90873518D01*
X129918606Y-90873518D01*
X129915272Y-90870184D01*
X129911938Y-90873518D01*
X129892133Y-90873518D01*
X129887811Y-90870184D01*
X129886899Y-90870618D01*
X129722322Y-90870618D01*
X129721888Y-90870184D01*
X129718553Y-90873518D01*
X128164812Y-90873518D01*
X128164812Y-90773492D01*
X130578779Y-90773492D01*
X130582113Y-90776826D01*
X130585448Y-90773492D01*
X130582113Y-90770158D01*
X130578779Y-90773492D01*
X128164812Y-90773492D01*
X128164812Y-90760155D01*
X130572111Y-90760155D01*
X130575445Y-90763489D01*
X130578779Y-90760155D01*
X130575445Y-90756821D01*
X130572111Y-90760155D01*
X128164812Y-90760155D01*
X128164812Y-90713476D01*
X130545437Y-90713476D01*
X130548771Y-90716810D01*
X130552106Y-90713476D01*
X130548771Y-90710142D01*
X130545437Y-90713476D01*
X128164812Y-90713476D01*
X128164812Y-90700139D01*
X130538769Y-90700139D01*
X130542103Y-90703474D01*
X130545437Y-90700139D01*
X130542103Y-90696805D01*
X130538769Y-90700139D01*
X128164812Y-90700139D01*
X128164812Y-90670566D01*
X130527067Y-90670566D01*
X130528766Y-90676800D01*
X130530136Y-90678774D01*
X130536222Y-90683468D01*
X130537134Y-90683034D01*
X130535434Y-90676800D01*
X130534064Y-90674826D01*
X130527979Y-90670132D01*
X130527067Y-90670566D01*
X128164812Y-90670566D01*
X128164812Y-90586776D01*
X130472085Y-90586776D01*
X130475419Y-90590111D01*
X130478753Y-90586776D01*
X130475419Y-90583442D01*
X130472085Y-90586776D01*
X128164812Y-90586776D01*
X128164812Y-90574334D01*
X129519680Y-90574334D01*
X129525169Y-90576774D01*
X129528700Y-90576292D01*
X129529359Y-90573439D01*
X129545175Y-90573439D01*
X129548509Y-90576774D01*
X129551843Y-90573439D01*
X129585185Y-90573439D01*
X129588519Y-90576774D01*
X129591854Y-90573439D01*
X129878595Y-90573439D01*
X129881930Y-90576774D01*
X129885264Y-90573439D01*
X129905269Y-90573439D01*
X129908603Y-90576774D01*
X129911938Y-90573439D01*
X130045306Y-90573439D01*
X130048640Y-90576774D01*
X130051974Y-90573439D01*
X130058643Y-90573439D01*
X130061977Y-90576774D01*
X130065311Y-90573439D01*
X130085316Y-90573439D01*
X130088651Y-90576774D01*
X130091985Y-90573439D01*
X130118658Y-90573439D01*
X130121993Y-90576774D01*
X130125327Y-90573439D01*
X130192011Y-90573439D01*
X130195345Y-90576774D01*
X130197784Y-90574334D01*
X130319890Y-90574334D01*
X130325379Y-90576774D01*
X130328910Y-90576292D01*
X130329362Y-90574334D01*
X130433254Y-90574334D01*
X130438742Y-90576774D01*
X130442273Y-90576292D01*
X130442725Y-90574334D01*
X130453259Y-90574334D01*
X130458748Y-90576774D01*
X130462278Y-90576292D01*
X130463193Y-90572328D01*
X130462216Y-90571530D01*
X130454302Y-90572328D01*
X130453259Y-90574334D01*
X130442725Y-90574334D01*
X130443188Y-90572328D01*
X130442211Y-90571530D01*
X130434297Y-90572328D01*
X130433254Y-90574334D01*
X130329362Y-90574334D01*
X130329825Y-90572328D01*
X130328848Y-90571530D01*
X130320934Y-90572328D01*
X130320356Y-90573439D01*
X130319890Y-90574334D01*
X130197784Y-90574334D01*
X130198679Y-90573439D01*
X130195345Y-90570105D01*
X130192011Y-90573439D01*
X130125327Y-90573439D01*
X130121993Y-90570105D01*
X130118658Y-90573439D01*
X130091985Y-90573439D01*
X130088651Y-90570105D01*
X130085316Y-90573439D01*
X130065311Y-90573439D01*
X130061977Y-90570105D01*
X130058643Y-90573439D01*
X130051974Y-90573439D01*
X130048640Y-90570105D01*
X130045306Y-90573439D01*
X129911938Y-90573439D01*
X129908603Y-90570105D01*
X129905269Y-90573439D01*
X129885264Y-90573439D01*
X129881930Y-90570105D01*
X129878595Y-90573439D01*
X129591854Y-90573439D01*
X129588519Y-90570105D01*
X129585185Y-90573439D01*
X129551843Y-90573439D01*
X129548509Y-90570105D01*
X129546286Y-90572328D01*
X129545175Y-90573439D01*
X129529359Y-90573439D01*
X129529615Y-90572328D01*
X129528638Y-90571530D01*
X129520724Y-90572328D01*
X129519680Y-90574334D01*
X128164812Y-90574334D01*
X128164812Y-90560103D01*
X129505164Y-90560103D01*
X129508498Y-90563437D01*
X129511832Y-90560103D01*
X129508498Y-90556768D01*
X129505164Y-90560103D01*
X128164812Y-90560103D01*
X128164812Y-90533295D01*
X129493252Y-90533295D01*
X129494050Y-90541209D01*
X129496056Y-90542252D01*
X129498496Y-90536763D01*
X129498014Y-90533233D01*
X129494050Y-90532318D01*
X129493252Y-90533295D01*
X128164812Y-90533295D01*
X128164812Y-90513424D01*
X129471822Y-90513424D01*
X129475156Y-90516758D01*
X129478490Y-90513424D01*
X129475156Y-90510090D01*
X129471822Y-90513424D01*
X128164812Y-90513424D01*
X128164812Y-90423834D01*
X129426778Y-90423834D01*
X129428477Y-90430069D01*
X129429847Y-90432043D01*
X129435933Y-90436737D01*
X129436845Y-90436303D01*
X129435146Y-90430069D01*
X129433776Y-90428095D01*
X129427690Y-90423400D01*
X129426778Y-90423834D01*
X128164812Y-90423834D01*
X128164812Y-90413397D01*
X129418475Y-90413397D01*
X129421809Y-90416732D01*
X129425143Y-90413397D01*
X129421809Y-90410063D01*
X129418475Y-90413397D01*
X128164812Y-90413397D01*
X128164812Y-90393392D01*
X129405138Y-90393392D01*
X129408472Y-90396726D01*
X129411806Y-90393392D01*
X129408472Y-90390058D01*
X129405138Y-90393392D01*
X128164812Y-90393392D01*
X128164812Y-90380055D01*
X129398469Y-90380055D01*
X129401804Y-90383390D01*
X129405138Y-90380055D01*
X129401804Y-90376721D01*
X129398469Y-90380055D01*
X128164812Y-90380055D01*
X128164812Y-90366719D01*
X129391801Y-90366719D01*
X129395135Y-90370053D01*
X129398469Y-90366719D01*
X129395135Y-90363384D01*
X129391801Y-90366719D01*
X128164812Y-90366719D01*
X128164812Y-90333376D01*
X129371796Y-90333376D01*
X129375130Y-90336711D01*
X129378464Y-90333376D01*
X129375130Y-90330042D01*
X129371796Y-90333376D01*
X128164812Y-90333376D01*
X128164812Y-90313371D01*
X129358459Y-90313371D01*
X129361793Y-90316705D01*
X129365127Y-90313371D01*
X129361793Y-90310037D01*
X129358459Y-90313371D01*
X128164812Y-90313371D01*
X128164812Y-90246553D01*
X129319873Y-90246553D01*
X129320671Y-90254467D01*
X129322677Y-90255510D01*
X129325117Y-90250021D01*
X129324636Y-90246491D01*
X129320671Y-90245576D01*
X129319873Y-90246553D01*
X128164812Y-90246553D01*
X128164812Y-90206677D01*
X129298443Y-90206677D01*
X129301777Y-90210011D01*
X129305112Y-90206677D01*
X129301777Y-90203342D01*
X129298443Y-90206677D01*
X128164812Y-90206677D01*
X128164812Y-90177106D01*
X129278489Y-90177106D01*
X129284256Y-90185004D01*
X129286335Y-90187586D01*
X129295199Y-90196152D01*
X129298443Y-90194156D01*
X129296009Y-90190713D01*
X129286773Y-90182487D01*
X129281942Y-90178761D01*
X129278489Y-90177106D01*
X128164812Y-90177106D01*
X128164812Y-90173334D01*
X128164812Y-90126656D01*
X129251764Y-90126656D01*
X129255098Y-90129990D01*
X129258433Y-90126656D01*
X129255098Y-90123321D01*
X129251764Y-90126656D01*
X128164812Y-90126656D01*
X128164812Y-90106650D01*
X129238427Y-90106650D01*
X129241762Y-90109985D01*
X129245096Y-90106650D01*
X129241762Y-90103316D01*
X129238427Y-90106650D01*
X128164812Y-90106650D01*
X128164812Y-90083745D01*
X129226726Y-90083745D01*
X129228425Y-90089979D01*
X129229795Y-90091953D01*
X129235880Y-90096648D01*
X129236792Y-90096214D01*
X129235093Y-90089979D01*
X129233723Y-90088005D01*
X129227638Y-90083311D01*
X129226726Y-90083745D01*
X128164812Y-90083745D01*
X128164812Y-90052741D01*
X129208743Y-90052741D01*
X129209209Y-90059625D01*
X129211362Y-90064472D01*
X129216279Y-90069758D01*
X129218422Y-90063699D01*
X129218185Y-90061888D01*
X129211830Y-90053350D01*
X129208743Y-90052741D01*
X128164812Y-90052741D01*
X128164812Y-90039966D01*
X129198417Y-90039966D01*
X129201751Y-90043300D01*
X129205085Y-90039966D01*
X129201751Y-90036632D01*
X129198417Y-90039966D01*
X128164812Y-90039966D01*
X128164812Y-90016330D01*
X129185654Y-90016330D01*
X129190921Y-90025073D01*
X129191799Y-90025935D01*
X129196684Y-90029131D01*
X129194654Y-90021340D01*
X129191328Y-90015117D01*
X129186368Y-90013116D01*
X129185654Y-90016330D01*
X128164812Y-90016330D01*
X128164812Y-90006624D01*
X130065311Y-90006624D01*
X130068645Y-90009958D01*
X130071980Y-90006624D01*
X130068645Y-90003290D01*
X130065311Y-90006624D01*
X128164812Y-90006624D01*
X128164812Y-89999956D01*
X129191748Y-89999956D01*
X129195083Y-90003290D01*
X129198417Y-89999956D01*
X129205085Y-89999956D01*
X129208420Y-90003290D01*
X129211754Y-89999956D01*
X129238427Y-89999956D01*
X129241762Y-90003290D01*
X129245096Y-89999956D01*
X129285106Y-89999956D01*
X129288441Y-90003290D01*
X129291775Y-89999956D01*
X129418475Y-89999956D01*
X129421809Y-90003290D01*
X129425143Y-89999956D01*
X129538506Y-89999956D01*
X129541840Y-90003290D01*
X129545175Y-89999956D01*
X129541840Y-89996621D01*
X129538506Y-89999956D01*
X129425143Y-89999956D01*
X129421809Y-89996621D01*
X129418475Y-89999956D01*
X129291775Y-89999956D01*
X129288441Y-89996621D01*
X129285106Y-89999956D01*
X129245096Y-89999956D01*
X129241762Y-89996621D01*
X129238427Y-89999956D01*
X129211754Y-89999956D01*
X129208420Y-89996621D01*
X129205085Y-89999956D01*
X129198417Y-89999956D01*
X129195083Y-89996621D01*
X129191748Y-89999956D01*
X128164812Y-89999956D01*
X128164812Y-89993287D01*
X130111990Y-89993287D01*
X130115324Y-89996621D01*
X130118658Y-89993287D01*
X130115324Y-89989953D01*
X130111990Y-89993287D01*
X128164812Y-89993287D01*
X128164812Y-89966614D01*
X130091985Y-89966614D01*
X130095319Y-89969948D01*
X130098653Y-89966614D01*
X130095754Y-89963714D01*
X130106957Y-89963714D01*
X130107747Y-89966614D01*
X130108656Y-89969948D01*
X130110026Y-89971922D01*
X130116111Y-89976616D01*
X130117023Y-89976182D01*
X130115324Y-89969948D01*
X130113954Y-89967974D01*
X130107869Y-89963279D01*
X130106957Y-89963714D01*
X130095754Y-89963714D01*
X130095319Y-89963279D01*
X130091985Y-89966614D01*
X128164812Y-89966614D01*
X128164812Y-89946608D01*
X130091985Y-89946608D01*
X130095319Y-89949943D01*
X130098653Y-89946608D01*
X130095319Y-89943274D01*
X130091985Y-89946608D01*
X128164812Y-89946608D01*
X128164812Y-89926603D01*
X130078648Y-89926603D01*
X130081982Y-89929937D01*
X130085316Y-89926603D01*
X130081982Y-89923269D01*
X130078648Y-89926603D01*
X128164812Y-89926603D01*
X128164812Y-89913266D01*
X130071980Y-89913266D01*
X130075314Y-89916600D01*
X130078648Y-89913266D01*
X130075314Y-89909932D01*
X130071980Y-89913266D01*
X128164812Y-89913266D01*
X128164812Y-89893261D01*
X130058643Y-89893261D01*
X130061977Y-89896595D01*
X130065311Y-89893261D01*
X130061977Y-89889927D01*
X130058643Y-89893261D01*
X128164812Y-89893261D01*
X128164812Y-89852943D01*
X130034345Y-89852943D01*
X130038637Y-89863253D01*
X130043754Y-89871478D01*
X130049109Y-89876590D01*
X130049598Y-89873563D01*
X130045306Y-89863253D01*
X130040190Y-89855028D01*
X130034834Y-89849916D01*
X130034345Y-89852943D01*
X128164812Y-89852943D01*
X128164812Y-89839914D01*
X130025301Y-89839914D01*
X130028635Y-89843248D01*
X130031969Y-89839914D01*
X130028635Y-89836579D01*
X130025301Y-89839914D01*
X128164812Y-89839914D01*
X128164812Y-89792506D01*
X129999675Y-89792506D01*
X130001267Y-89801431D01*
X130003543Y-89801328D01*
X130004769Y-89792679D01*
X130003701Y-89786124D01*
X130000740Y-89788650D01*
X129999675Y-89792506D01*
X128164812Y-89792506D01*
X128164812Y-89773095D01*
X129986715Y-89773095D01*
X129987513Y-89781009D01*
X129989519Y-89782053D01*
X129991959Y-89776564D01*
X129991477Y-89773033D01*
X129987513Y-89772118D01*
X129986715Y-89773095D01*
X128164812Y-89773095D01*
X128164812Y-89753224D01*
X129031706Y-89753224D01*
X129035041Y-89756558D01*
X129038375Y-89753224D01*
X129058380Y-89753224D01*
X129061714Y-89756558D01*
X129064154Y-89754119D01*
X129212933Y-89754119D01*
X129218422Y-89756558D01*
X129221952Y-89756077D01*
X129222611Y-89753224D01*
X129318448Y-89753224D01*
X129321783Y-89756558D01*
X129325117Y-89753224D01*
X129371796Y-89753224D01*
X129375130Y-89756558D01*
X129378464Y-89753224D01*
X129945280Y-89753224D01*
X129948614Y-89756558D01*
X129951948Y-89753224D01*
X129948614Y-89749890D01*
X129945280Y-89753224D01*
X129378464Y-89753224D01*
X129375130Y-89749890D01*
X129371796Y-89753224D01*
X129325117Y-89753224D01*
X129321783Y-89749890D01*
X129319559Y-89752113D01*
X129318448Y-89753224D01*
X129222611Y-89753224D01*
X129222868Y-89752113D01*
X129221890Y-89751315D01*
X129213977Y-89752113D01*
X129213399Y-89753224D01*
X129212933Y-89754119D01*
X129064154Y-89754119D01*
X129065049Y-89753224D01*
X129061714Y-89749890D01*
X129058380Y-89753224D01*
X129038375Y-89753224D01*
X129035041Y-89749890D01*
X129031706Y-89753224D01*
X128164812Y-89753224D01*
X128164812Y-89733219D01*
X129018370Y-89733219D01*
X129021704Y-89736553D01*
X129025038Y-89733219D01*
X129021704Y-89729885D01*
X129018370Y-89733219D01*
X128164812Y-89733219D01*
X128164812Y-89719882D01*
X129005033Y-89719882D01*
X129008367Y-89723216D01*
X129011701Y-89719882D01*
X129008367Y-89716548D01*
X129005033Y-89719882D01*
X128164812Y-89719882D01*
X128164812Y-89686540D01*
X128991696Y-89686540D01*
X128995030Y-89689874D01*
X128998364Y-89686540D01*
X128995030Y-89683206D01*
X128991696Y-89686540D01*
X128164812Y-89686540D01*
X128164812Y-89660835D01*
X128975985Y-89660835D01*
X128976425Y-89669860D01*
X128979652Y-89679305D01*
X128983435Y-89682536D01*
X128985028Y-89673597D01*
X128984535Y-89669503D01*
X128978981Y-89660251D01*
X128975985Y-89660835D01*
X128164812Y-89660835D01*
X128164812Y-89639861D01*
X128958354Y-89639861D01*
X128961688Y-89643195D01*
X128965022Y-89639861D01*
X128961688Y-89636527D01*
X128958354Y-89639861D01*
X128164812Y-89639861D01*
X128164812Y-89626524D01*
X128951685Y-89626524D01*
X128955020Y-89629859D01*
X128958354Y-89626524D01*
X128955020Y-89623190D01*
X128951685Y-89626524D01*
X128164812Y-89626524D01*
X128164812Y-89606519D01*
X128938349Y-89606519D01*
X128941683Y-89609853D01*
X128945017Y-89606519D01*
X128941683Y-89603185D01*
X128938349Y-89606519D01*
X128164812Y-89606519D01*
X128164812Y-89579845D01*
X128925012Y-89579845D01*
X128928346Y-89583180D01*
X128931680Y-89579845D01*
X128928346Y-89576511D01*
X128925012Y-89579845D01*
X128164812Y-89579845D01*
X128164812Y-89543603D01*
X128906642Y-89543603D01*
X128908341Y-89549838D01*
X128909711Y-89551811D01*
X128915796Y-89556506D01*
X128916708Y-89556072D01*
X128915009Y-89549838D01*
X128913639Y-89547864D01*
X128907554Y-89543169D01*
X128906642Y-89543603D01*
X128164812Y-89543603D01*
X128164812Y-89508471D01*
X128882634Y-89508471D01*
X128888411Y-89519009D01*
X128888791Y-89519587D01*
X128897484Y-89531552D01*
X128902674Y-89536501D01*
X128903213Y-89533298D01*
X128898690Y-89523928D01*
X128891382Y-89513196D01*
X128884274Y-89506043D01*
X128883550Y-89505657D01*
X128882634Y-89508471D01*
X128164812Y-89508471D01*
X128164812Y-89459814D01*
X128851659Y-89459814D01*
X128854993Y-89463148D01*
X128858328Y-89459814D01*
X128854993Y-89456480D01*
X128851659Y-89459814D01*
X128164812Y-89459814D01*
X128164812Y-89447371D01*
X128846170Y-89447371D01*
X128851659Y-89449811D01*
X128855189Y-89449330D01*
X128856105Y-89445366D01*
X128855127Y-89444568D01*
X128847214Y-89445366D01*
X128846170Y-89447371D01*
X128164812Y-89447371D01*
X128164812Y-89379793D01*
X128804980Y-89379793D01*
X128808315Y-89383127D01*
X128811649Y-89379793D01*
X128808315Y-89376459D01*
X128804980Y-89379793D01*
X128164812Y-89379793D01*
X128164812Y-89366456D01*
X128798312Y-89366456D01*
X128801646Y-89369790D01*
X128804980Y-89366456D01*
X128801646Y-89363122D01*
X128798312Y-89366456D01*
X128164812Y-89366456D01*
X128164812Y-89340677D01*
X128779486Y-89340677D01*
X128784975Y-89343117D01*
X128788505Y-89342635D01*
X128789421Y-89338671D01*
X128788443Y-89337873D01*
X128780529Y-89338671D01*
X128779486Y-89340677D01*
X128164812Y-89340677D01*
X128164812Y-89319777D01*
X128771638Y-89319777D01*
X128774972Y-89323111D01*
X128778307Y-89319777D01*
X128774972Y-89316443D01*
X128771638Y-89319777D01*
X128164812Y-89319777D01*
X128164812Y-89262799D01*
X128738870Y-89262799D01*
X128744137Y-89271542D01*
X128745015Y-89272404D01*
X128749900Y-89275600D01*
X128747870Y-89267809D01*
X128744544Y-89261586D01*
X128739584Y-89259585D01*
X128738870Y-89262799D01*
X128164812Y-89262799D01*
X128164812Y-89233088D01*
X128718291Y-89233088D01*
X128721625Y-89236422D01*
X128724959Y-89233088D01*
X128721625Y-89229753D01*
X128718291Y-89233088D01*
X128164812Y-89233088D01*
X128164812Y-89205852D01*
X128708612Y-89205852D01*
X128709078Y-89212736D01*
X128711231Y-89217583D01*
X128716148Y-89222869D01*
X128718291Y-89216810D01*
X128718054Y-89214999D01*
X128711699Y-89206461D01*
X128708612Y-89205852D01*
X128164812Y-89205852D01*
X128164812Y-89198287D01*
X128719081Y-89198287D01*
X128730930Y-89216810D01*
X128741342Y-89233088D01*
X128742025Y-89234155D01*
X128752969Y-89251693D01*
X128761645Y-89266528D01*
X128764970Y-89273548D01*
X128765927Y-89275600D01*
X128767918Y-89279866D01*
X128776337Y-89294340D01*
X128788309Y-89313559D01*
X128792112Y-89319777D01*
X128799486Y-89331835D01*
X128803218Y-89338671D01*
X128808280Y-89347943D01*
X128811649Y-89356583D01*
X128811842Y-89358142D01*
X128818317Y-89363122D01*
X128819896Y-89363298D01*
X128822574Y-89366456D01*
X128824986Y-89369301D01*
X128826052Y-89372585D01*
X128829673Y-89379793D01*
X128832643Y-89385706D01*
X128843919Y-89405719D01*
X128858328Y-89429806D01*
X128866761Y-89443707D01*
X128867734Y-89445366D01*
X128876205Y-89459814D01*
X128879570Y-89465552D01*
X128888387Y-89481583D01*
X128891670Y-89489054D01*
X128894689Y-89495545D01*
X128903713Y-89506902D01*
X128911763Y-89516339D01*
X128915946Y-89523164D01*
X128917478Y-89528978D01*
X128919380Y-89533298D01*
X128923540Y-89542744D01*
X128930624Y-89556072D01*
X128931850Y-89558379D01*
X128939853Y-89571197D01*
X128944999Y-89576511D01*
X128948346Y-89578340D01*
X128949203Y-89579845D01*
X128953947Y-89588181D01*
X128957277Y-89595843D01*
X128962911Y-89606519D01*
X128966298Y-89612937D01*
X128974223Y-89626524D01*
X128978113Y-89633193D01*
X128982120Y-89639861D01*
X128985953Y-89646239D01*
X129000711Y-89671606D01*
X129001819Y-89673597D01*
X129009024Y-89686540D01*
X129012724Y-89693186D01*
X129016552Y-89699968D01*
X129028005Y-89717109D01*
X129030537Y-89719882D01*
X129037682Y-89727705D01*
X129037812Y-89727794D01*
X129043971Y-89729419D01*
X129057453Y-89730820D01*
X129078925Y-89732006D01*
X129109056Y-89732989D01*
X129120529Y-89733219D01*
X129148514Y-89733780D01*
X129197967Y-89734387D01*
X129258084Y-89734823D01*
X129329532Y-89735099D01*
X129412980Y-89735224D01*
X129509096Y-89735209D01*
X129542695Y-89735184D01*
X129628065Y-89735149D01*
X129701399Y-89735183D01*
X129763656Y-89735308D01*
X129815793Y-89735548D01*
X129858768Y-89735924D01*
X129893541Y-89736460D01*
X129921069Y-89737179D01*
X129942311Y-89738103D01*
X129958224Y-89739256D01*
X129969768Y-89740659D01*
X129977900Y-89742337D01*
X129983579Y-89744311D01*
X129987763Y-89746605D01*
X129989081Y-89747482D01*
X129996247Y-89753224D01*
X129999909Y-89756158D01*
X130002687Y-89761389D01*
X130002569Y-89762372D01*
X130006514Y-89771802D01*
X130009168Y-89776564D01*
X130015887Y-89788617D01*
X130018407Y-89792679D01*
X130029153Y-89810000D01*
X130033429Y-89816647D01*
X130046282Y-89837153D01*
X130047920Y-89839914D01*
X130055264Y-89852296D01*
X130058643Y-89859189D01*
X130062002Y-89865702D01*
X130066766Y-89873563D01*
X130071313Y-89881065D01*
X130079019Y-89893261D01*
X130085138Y-89902944D01*
X130091827Y-89913266D01*
X130100469Y-89926603D01*
X130102039Y-89929026D01*
X130103853Y-89931801D01*
X130113025Y-89946608D01*
X130124326Y-89964852D01*
X130130082Y-89976182D01*
X130136514Y-89988844D01*
X130137679Y-89993287D01*
X130139428Y-89999956D01*
X130140708Y-90004839D01*
X130140016Y-90006624D01*
X130137199Y-90013895D01*
X130126281Y-90017074D01*
X130113197Y-90017312D01*
X130091736Y-90017380D01*
X130065700Y-90017296D01*
X130038670Y-90017089D01*
X130014229Y-90016785D01*
X129995961Y-90016413D01*
X129987446Y-90016000D01*
X129978622Y-90016081D01*
X129973679Y-90016244D01*
X129956475Y-90016446D01*
X129928103Y-90016649D01*
X129889750Y-90016849D01*
X129842603Y-90017041D01*
X129787851Y-90017220D01*
X129726682Y-90017382D01*
X129660283Y-90017521D01*
X129589843Y-90017633D01*
X129554892Y-90017683D01*
X129478691Y-90017822D01*
X129414449Y-90018012D01*
X129361189Y-90018285D01*
X129317932Y-90018671D01*
X129283701Y-90019202D01*
X129257521Y-90019908D01*
X129238412Y-90020822D01*
X129225398Y-90021974D01*
X129217502Y-90023395D01*
X129213745Y-90025116D01*
X129213152Y-90027168D01*
X129214445Y-90029131D01*
X129214744Y-90029584D01*
X129221097Y-90037578D01*
X129222284Y-90039966D01*
X129225091Y-90045613D01*
X129225226Y-90046298D01*
X129229651Y-90055682D01*
X129234098Y-90063699D01*
X129239068Y-90072660D01*
X129251764Y-90094116D01*
X129253030Y-90096214D01*
X129254345Y-90098392D01*
X129259128Y-90106650D01*
X129266579Y-90119516D01*
X129270353Y-90126656D01*
X129275185Y-90135798D01*
X129278438Y-90144008D01*
X129278627Y-90145421D01*
X129285106Y-90149995D01*
X129286676Y-90150159D01*
X129291775Y-90155819D01*
X129292321Y-90157834D01*
X129297916Y-90169557D01*
X129308271Y-90188460D01*
X129311602Y-90194156D01*
X129318923Y-90206677D01*
X129321783Y-90211569D01*
X129327359Y-90220980D01*
X129339855Y-90243180D01*
X129343334Y-90250021D01*
X129348537Y-90260251D01*
X129351790Y-90269095D01*
X129352047Y-90271470D01*
X129356886Y-90276695D01*
X129358496Y-90277500D01*
X129365168Y-90286574D01*
X129373158Y-90302493D01*
X129375469Y-90307623D01*
X129378482Y-90313371D01*
X129384915Y-90325641D01*
X129390257Y-90333376D01*
X129393107Y-90337502D01*
X129397106Y-90342608D01*
X129406967Y-90358281D01*
X129411557Y-90366719D01*
X129417743Y-90378093D01*
X129418790Y-90380055D01*
X129423538Y-90388951D01*
X129426236Y-90393392D01*
X129435719Y-90408998D01*
X129439004Y-90413397D01*
X129446045Y-90422826D01*
X129454231Y-90433992D01*
X129455067Y-90436303D01*
X129458485Y-90445747D01*
X129459435Y-90450272D01*
X129467971Y-90458955D01*
X129474272Y-90464431D01*
X129479799Y-90478007D01*
X129483316Y-90487438D01*
X129490814Y-90491586D01*
X129494350Y-90491489D01*
X129495408Y-90496354D01*
X129495004Y-90499724D01*
X129499208Y-90512376D01*
X129499799Y-90513424D01*
X129508650Y-90529128D01*
X129513703Y-90536763D01*
X129525972Y-90555303D01*
X129995826Y-90555329D01*
X130057532Y-90555353D01*
X130145025Y-90555479D01*
X130220390Y-90555726D01*
X130284366Y-90556106D01*
X130337695Y-90556631D01*
X130381117Y-90557314D01*
X130415373Y-90558168D01*
X130441204Y-90559206D01*
X130454405Y-90560103D01*
X130459350Y-90560439D01*
X130470552Y-90561882D01*
X130475551Y-90563547D01*
X130481352Y-90567290D01*
X130485421Y-90566167D01*
X130485736Y-90565898D01*
X130490064Y-90572190D01*
X130490140Y-90572328D01*
X130498143Y-90586776D01*
X130498411Y-90587260D01*
X130509415Y-90608695D01*
X130512804Y-90615372D01*
X130524386Y-90636478D01*
X130533854Y-90651239D01*
X130539423Y-90656795D01*
X130540503Y-90656878D01*
X130544716Y-90661796D01*
X130544658Y-90665706D01*
X130547801Y-90678863D01*
X130549761Y-90683034D01*
X130553639Y-90691289D01*
X130559552Y-90696805D01*
X130561185Y-90697086D01*
X130563081Y-90700139D01*
X130565442Y-90703939D01*
X130567359Y-90709642D01*
X130569452Y-90713476D01*
X130575200Y-90724007D01*
X130587029Y-90742283D01*
X130595928Y-90755824D01*
X130598391Y-90760155D01*
X130604395Y-90770711D01*
X130605338Y-90773492D01*
X130607034Y-90778493D01*
X130606842Y-90779438D01*
X130611344Y-90783495D01*
X130615444Y-90786021D01*
X130620722Y-90796831D01*
X130623828Y-90804618D01*
X130629835Y-90810132D01*
X130630130Y-90810094D01*
X130637869Y-90804868D01*
X130651666Y-90792551D01*
X130668743Y-90775606D01*
X130701743Y-90745193D01*
X130762073Y-90703603D01*
X130833755Y-90668670D01*
X130843385Y-90664605D01*
X130866482Y-90653710D01*
X130883328Y-90644094D01*
X130890805Y-90637462D01*
X130891317Y-90630460D01*
X130890071Y-90612239D01*
X130887000Y-90586503D01*
X130882428Y-90556388D01*
X130877995Y-90525550D01*
X130872959Y-90459113D01*
X130873880Y-90394788D01*
X130880625Y-90335909D01*
X130893064Y-90285816D01*
X130900297Y-90263582D01*
X130904589Y-90245772D01*
X130904611Y-90234158D01*
X130900789Y-90225404D01*
X130895258Y-90213851D01*
X130893557Y-90206677D01*
X130898863Y-90206677D01*
X130902197Y-90210011D01*
X130905532Y-90206677D01*
X130902197Y-90203342D01*
X130898863Y-90206677D01*
X130893557Y-90206677D01*
X130890811Y-90195091D01*
X130888939Y-90186671D01*
X130905532Y-90186671D01*
X130908866Y-90190006D01*
X130912200Y-90186671D01*
X130908866Y-90183337D01*
X130905532Y-90186671D01*
X130888939Y-90186671D01*
X130888360Y-90184067D01*
X130883972Y-90180964D01*
X130882780Y-90181176D01*
X130876349Y-90175179D01*
X130871834Y-90166666D01*
X130898863Y-90166666D01*
X130902197Y-90170000D01*
X130905532Y-90166666D01*
X130902197Y-90163332D01*
X130898863Y-90166666D01*
X130871834Y-90166666D01*
X130868904Y-90161142D01*
X130867868Y-90158730D01*
X130858774Y-90141044D01*
X130858027Y-90139992D01*
X130878858Y-90139992D01*
X130882192Y-90143327D01*
X130885526Y-90139992D01*
X130882192Y-90136658D01*
X130878858Y-90139992D01*
X130858027Y-90139992D01*
X130850175Y-90128934D01*
X130849856Y-90128609D01*
X130838446Y-90113319D01*
X130865521Y-90113319D01*
X130868855Y-90116653D01*
X130872190Y-90113319D01*
X130868855Y-90109985D01*
X130865521Y-90113319D01*
X130838446Y-90113319D01*
X130838000Y-90112721D01*
X130824451Y-90088890D01*
X130823408Y-90086645D01*
X130852184Y-90086645D01*
X130855519Y-90089979D01*
X130858853Y-90086645D01*
X130855519Y-90083311D01*
X130852184Y-90086645D01*
X130823408Y-90086645D01*
X130817148Y-90073174D01*
X130826935Y-90073174D01*
X130827733Y-90081088D01*
X130829739Y-90082131D01*
X130832179Y-90076642D01*
X130831698Y-90073112D01*
X130827733Y-90072197D01*
X130826935Y-90073174D01*
X130817148Y-90073174D01*
X130811788Y-90061638D01*
X130809244Y-90057074D01*
X130832230Y-90057074D01*
X130837997Y-90064973D01*
X130844100Y-90072085D01*
X130849667Y-90076642D01*
X130850837Y-90076533D01*
X130850882Y-90072188D01*
X130840515Y-90062455D01*
X130835683Y-90058730D01*
X130832230Y-90057074D01*
X130809244Y-90057074D01*
X130804627Y-90048793D01*
X130797791Y-90043300D01*
X130795542Y-90042664D01*
X130795777Y-90036188D01*
X130795902Y-90032736D01*
X130822500Y-90032736D01*
X130822966Y-90039620D01*
X130825119Y-90044467D01*
X130830036Y-90049753D01*
X130832179Y-90043694D01*
X130831942Y-90041883D01*
X130825587Y-90033345D01*
X130822500Y-90032736D01*
X130795902Y-90032736D01*
X130795999Y-90030046D01*
X130788419Y-90020482D01*
X130781933Y-90013520D01*
X130781925Y-90013292D01*
X130805505Y-90013292D01*
X130808840Y-90016627D01*
X130812174Y-90013292D01*
X130808840Y-90009958D01*
X130805505Y-90013292D01*
X130781925Y-90013292D01*
X130781435Y-89999456D01*
X130783372Y-89992817D01*
X130781528Y-89991702D01*
X130775390Y-89992967D01*
X130766474Y-89985734D01*
X130758080Y-89972243D01*
X130756085Y-89966614D01*
X130778832Y-89966614D01*
X130782166Y-89969948D01*
X130785500Y-89966614D01*
X130782166Y-89963279D01*
X130778832Y-89966614D01*
X130756085Y-89966614D01*
X130752377Y-89956149D01*
X130751534Y-89941111D01*
X130751535Y-89939559D01*
X130746660Y-89939217D01*
X130746500Y-89939307D01*
X130739767Y-89936310D01*
X130731829Y-89924708D01*
X130730867Y-89922820D01*
X130720040Y-89904230D01*
X130717166Y-89899929D01*
X130738821Y-89899929D01*
X130742155Y-89903264D01*
X130745490Y-89899929D01*
X130742155Y-89896595D01*
X130738821Y-89899929D01*
X130717166Y-89899929D01*
X130707115Y-89884886D01*
X130703941Y-89880187D01*
X130700578Y-89873256D01*
X130725484Y-89873256D01*
X130728819Y-89876590D01*
X130732153Y-89873256D01*
X130728819Y-89869922D01*
X130725484Y-89873256D01*
X130700578Y-89873256D01*
X130696706Y-89865278D01*
X130696138Y-89855515D01*
X130697652Y-89852205D01*
X130694103Y-89852038D01*
X130693545Y-89852247D01*
X130687288Y-89847727D01*
X130679961Y-89837014D01*
X130707114Y-89837014D01*
X130708813Y-89843248D01*
X130710183Y-89845222D01*
X130716269Y-89849916D01*
X130717181Y-89849482D01*
X130715482Y-89843248D01*
X130714112Y-89841274D01*
X130708026Y-89836579D01*
X130707114Y-89837014D01*
X130679961Y-89837014D01*
X130678934Y-89835512D01*
X130670735Y-89819835D01*
X130665578Y-89806572D01*
X130685474Y-89806572D01*
X130688808Y-89809906D01*
X130692142Y-89806572D01*
X130688808Y-89803237D01*
X130685474Y-89806572D01*
X130665578Y-89806572D01*
X130664940Y-89804932D01*
X130663802Y-89795038D01*
X130663385Y-89792598D01*
X130655466Y-89789901D01*
X130650858Y-89789101D01*
X130645463Y-89782839D01*
X130646304Y-89780159D01*
X130653162Y-89780535D01*
X130656934Y-89782162D01*
X130656036Y-89777485D01*
X130653620Y-89774493D01*
X130646670Y-89772421D01*
X130641580Y-89771977D01*
X130632677Y-89764925D01*
X130626753Y-89754891D01*
X130626661Y-89754539D01*
X130624098Y-89743974D01*
X130622654Y-89734886D01*
X130621594Y-89731805D01*
X130613485Y-89728218D01*
X130609078Y-89727176D01*
X130605453Y-89718032D01*
X130603695Y-89708433D01*
X130602810Y-89706545D01*
X130625458Y-89706545D01*
X130628792Y-89709880D01*
X130632127Y-89706545D01*
X130628792Y-89703211D01*
X130625458Y-89706545D01*
X130602810Y-89706545D01*
X130596473Y-89693025D01*
X130591547Y-89685782D01*
X130587644Y-89679872D01*
X130612121Y-89679872D01*
X130615455Y-89683206D01*
X130618790Y-89679872D01*
X130615455Y-89676537D01*
X130612121Y-89679872D01*
X130587644Y-89679872D01*
X130576820Y-89663481D01*
X130574720Y-89659866D01*
X130578779Y-89659866D01*
X130582113Y-89663201D01*
X130585448Y-89659866D01*
X130582113Y-89656532D01*
X130578779Y-89659866D01*
X130574720Y-89659866D01*
X130569131Y-89650246D01*
X130567791Y-89644737D01*
X130572111Y-89645615D01*
X130572551Y-89645844D01*
X130577301Y-89647544D01*
X130576220Y-89646530D01*
X130592116Y-89646530D01*
X130595450Y-89649864D01*
X130598784Y-89646530D01*
X130595450Y-89643195D01*
X130592116Y-89646530D01*
X130576220Y-89646530D01*
X130571286Y-89641904D01*
X130569070Y-89639837D01*
X130558251Y-89626196D01*
X130547215Y-89608244D01*
X130543507Y-89601879D01*
X130534514Y-89590583D01*
X130528254Y-89588357D01*
X130526984Y-89588180D01*
X130532320Y-89580232D01*
X130532606Y-89579845D01*
X130552106Y-89579845D01*
X130555440Y-89583180D01*
X130558774Y-89579845D01*
X130555440Y-89576511D01*
X130552106Y-89579845D01*
X130532606Y-89579845D01*
X130535534Y-89575881D01*
X130538347Y-89570446D01*
X130532634Y-89572991D01*
X130526211Y-89575035D01*
X130527556Y-89567256D01*
X130529095Y-89561234D01*
X130526545Y-89559152D01*
X130526306Y-89559291D01*
X130517992Y-89557483D01*
X130513971Y-89553172D01*
X130538769Y-89553172D01*
X130542103Y-89556506D01*
X130545437Y-89553172D01*
X130542103Y-89549838D01*
X130538769Y-89553172D01*
X130513971Y-89553172D01*
X130508866Y-89547699D01*
X130502104Y-89534490D01*
X130501605Y-89529536D01*
X130526006Y-89529536D01*
X130531273Y-89538279D01*
X130532151Y-89539141D01*
X130537036Y-89542337D01*
X130535006Y-89534546D01*
X130531680Y-89528323D01*
X130526720Y-89526322D01*
X130526006Y-89529536D01*
X130501605Y-89529536D01*
X130500888Y-89522410D01*
X130501389Y-89514753D01*
X130494800Y-89509827D01*
X130490439Y-89508672D01*
X130485421Y-89499824D01*
X130484822Y-89495241D01*
X130480063Y-89489822D01*
X130476131Y-89486713D01*
X130471133Y-89479819D01*
X130498758Y-89479819D01*
X130502092Y-89483153D01*
X130505427Y-89479819D01*
X130502092Y-89476485D01*
X130498758Y-89479819D01*
X130471133Y-89479819D01*
X130467352Y-89474604D01*
X130456697Y-89456480D01*
X130454964Y-89453145D01*
X130478753Y-89453145D01*
X130482087Y-89456480D01*
X130485421Y-89453145D01*
X130482087Y-89449811D01*
X130478753Y-89453145D01*
X130454964Y-89453145D01*
X130449211Y-89442072D01*
X130442918Y-89428414D01*
X130441674Y-89423138D01*
X130441737Y-89422294D01*
X130436408Y-89414772D01*
X130426709Y-89403567D01*
X130453714Y-89403567D01*
X130455413Y-89409801D01*
X130456784Y-89411775D01*
X130462869Y-89416469D01*
X130463781Y-89416035D01*
X130462082Y-89409801D01*
X130460712Y-89407827D01*
X130454626Y-89403132D01*
X130453714Y-89403567D01*
X130426709Y-89403567D01*
X130425343Y-89401989D01*
X130420412Y-89396272D01*
X130411392Y-89383173D01*
X130409388Y-89375402D01*
X130407747Y-89367254D01*
X130407169Y-89366456D01*
X130425406Y-89366456D01*
X130428740Y-89369790D01*
X130432074Y-89366456D01*
X130428740Y-89363122D01*
X130425406Y-89366456D01*
X130407169Y-89366456D01*
X130399072Y-89355282D01*
X130389625Y-89342705D01*
X130387354Y-89336882D01*
X130413704Y-89336882D01*
X130415403Y-89343117D01*
X130416773Y-89345091D01*
X130422859Y-89349785D01*
X130423771Y-89349351D01*
X130422071Y-89343117D01*
X130420701Y-89341143D01*
X130414616Y-89336448D01*
X130413704Y-89336882D01*
X130387354Y-89336882D01*
X130385395Y-89331857D01*
X130384785Y-89328398D01*
X130377949Y-89323111D01*
X130374172Y-89320514D01*
X130374002Y-89313109D01*
X130418737Y-89313109D01*
X130422071Y-89316443D01*
X130425406Y-89313109D01*
X130422071Y-89309774D01*
X130418737Y-89313109D01*
X130374002Y-89313109D01*
X130373931Y-89310002D01*
X130374360Y-89306440D01*
X130392064Y-89306440D01*
X130395398Y-89309774D01*
X130398732Y-89306440D01*
X130395398Y-89303106D01*
X130392064Y-89306440D01*
X130374360Y-89306440D01*
X130374848Y-89302394D01*
X130371708Y-89298333D01*
X130371510Y-89298362D01*
X130365024Y-89293412D01*
X130364773Y-89293103D01*
X130385395Y-89293103D01*
X130388729Y-89296438D01*
X130392064Y-89293103D01*
X130388729Y-89289769D01*
X130385395Y-89293103D01*
X130364773Y-89293103D01*
X130354525Y-89280473D01*
X130342329Y-89263031D01*
X130331830Y-89246291D01*
X130340141Y-89246291D01*
X130340939Y-89254204D01*
X130342945Y-89255248D01*
X130345385Y-89249759D01*
X130344903Y-89246229D01*
X130340939Y-89245313D01*
X130340141Y-89246291D01*
X130331830Y-89246291D01*
X130330752Y-89244572D01*
X130322107Y-89228580D01*
X130319120Y-89219751D01*
X130325379Y-89219751D01*
X130328714Y-89223085D01*
X130332048Y-89219751D01*
X130328714Y-89216417D01*
X130325379Y-89219751D01*
X130319120Y-89219751D01*
X130318711Y-89218543D01*
X130316765Y-89212932D01*
X130307041Y-89204086D01*
X130300436Y-89202340D01*
X130281397Y-89200108D01*
X130253233Y-89198264D01*
X130218411Y-89196922D01*
X130179399Y-89196198D01*
X130138664Y-89196207D01*
X130123745Y-89196335D01*
X130088632Y-89196537D01*
X130045837Y-89196693D01*
X129997989Y-89196801D01*
X129947715Y-89196861D01*
X129897641Y-89196872D01*
X129850395Y-89196831D01*
X129808604Y-89196739D01*
X129774895Y-89196592D01*
X129751896Y-89196392D01*
X129730643Y-89196332D01*
X129702575Y-89196998D01*
X129680911Y-89198407D01*
X129669113Y-89200392D01*
X129660813Y-89202391D01*
X129661159Y-89197565D01*
X129661385Y-89197190D01*
X129661203Y-89192805D01*
X129660014Y-89193077D01*
X129650583Y-89195234D01*
X129644329Y-89196559D01*
X129625189Y-89198145D01*
X129598667Y-89198741D01*
X129568514Y-89198211D01*
X129550144Y-89197550D01*
X129523065Y-89196655D01*
X129502489Y-89196076D01*
X129491827Y-89195914D01*
X129489451Y-89195954D01*
X129460454Y-89196341D01*
X129426671Y-89196635D01*
X129390690Y-89196833D01*
X129355101Y-89196930D01*
X129322491Y-89196924D01*
X129295451Y-89196809D01*
X129276570Y-89196583D01*
X129268435Y-89196241D01*
X129267884Y-89196133D01*
X129255098Y-89196131D01*
X129253216Y-89196317D01*
X129240121Y-89196740D01*
X129217587Y-89197048D01*
X129188462Y-89197240D01*
X129155590Y-89197320D01*
X129121818Y-89197286D01*
X129089993Y-89197141D01*
X129062960Y-89196886D01*
X129043565Y-89196522D01*
X129034655Y-89196049D01*
X129034210Y-89195968D01*
X129023371Y-89196091D01*
X129021121Y-89196275D01*
X129007532Y-89196659D01*
X128983529Y-89197027D01*
X128951080Y-89197358D01*
X128912156Y-89197629D01*
X128868725Y-89197818D01*
X128719081Y-89198287D01*
X128164812Y-89198287D01*
X128164812Y-89193077D01*
X129625196Y-89193077D01*
X129628530Y-89196411D01*
X129631864Y-89193077D01*
X129628530Y-89189743D01*
X129625196Y-89193077D01*
X128164812Y-89193077D01*
X128164812Y-89186409D01*
X128698286Y-89186409D01*
X128701620Y-89189743D01*
X128704954Y-89186409D01*
X128701620Y-89183075D01*
X128698286Y-89186409D01*
X128164812Y-89186409D01*
X128164812Y-89179740D01*
X128718291Y-89179740D01*
X128721625Y-89183075D01*
X128724959Y-89179740D01*
X128864996Y-89179740D01*
X128868330Y-89183075D01*
X128871664Y-89179740D01*
X129011701Y-89179740D01*
X129015035Y-89183075D01*
X129018370Y-89179740D01*
X129245096Y-89179740D01*
X129248430Y-89183075D01*
X129251764Y-89179740D01*
X129618527Y-89179740D01*
X129621861Y-89183075D01*
X129625196Y-89179740D01*
X129905269Y-89179740D01*
X129908603Y-89183075D01*
X129911938Y-89179740D01*
X129908603Y-89176406D01*
X129905269Y-89179740D01*
X129625196Y-89179740D01*
X129621861Y-89176406D01*
X129618527Y-89179740D01*
X129251764Y-89179740D01*
X129248430Y-89176406D01*
X129245096Y-89179740D01*
X129018370Y-89179740D01*
X129015035Y-89176406D01*
X129011701Y-89179740D01*
X128871664Y-89179740D01*
X128868330Y-89176406D01*
X128864996Y-89179740D01*
X128724959Y-89179740D01*
X128721625Y-89176406D01*
X128718291Y-89179740D01*
X128164812Y-89179740D01*
X128164812Y-87182550D01*
X131165600Y-87182550D01*
X134166387Y-87182550D01*
X134166387Y-90173334D01*
X134166387Y-91069740D01*
X134166387Y-93164119D01*
G37*
%TD*%
M02*
