M48
; DRILL file {KiCad 7.0.8} date 2025 June 05, Thursday 10:18:14
; FORMAT={-:-/ absolute / inch / decimal}
; #@! TF.CreationDate,2025-06-05T10:18:14-04:00
; #@! TF.GenerationSoftware,Kicad,Pcbnew,7.0.8
; #@! TF.FileFunction,Plated,1,2,PTH
FMAT,2
INCH
; #@! TA.AperFunction,Plated,PTH,ViaDrill
T1C0.0157
; #@! TA.AperFunction,Plated,PTH,ComponentDrill
T2C0.0276
; #@! TA.AperFunction,Plated,PTH,ComponentDrill
T3C0.0394
%
G90
G05
T1
X3.598Y-3.144
X3.732Y-3.264
X3.742Y-2.83
X3.786Y-2.98
X3.798Y-2.888
X3.862Y-3.35
X3.866Y-2.886
X3.91Y-2.998
X3.972Y-2.76
X4.0175Y-3.504
X4.02Y-2.888
X4.108Y-3.08
X4.178Y-2.87
X4.25Y-3.622
X4.252Y-3.714
X4.262Y-3.146
X4.324Y-2.872
X4.418Y-3.622
X4.422Y-3.722
X4.48Y-3.01
X4.484Y-3.21
X4.496Y-2.872
X4.828Y-2.936
X4.898Y-3.16
X4.918Y-3.006
X4.932Y-3.364
X4.998Y-2.872
X5.09Y-2.948
X5.176Y-2.87
X5.29Y-3.474
T2
X3.418Y-2.804
X3.418Y-2.904
X3.468Y-2.854
T3
X4.338Y-3.322
X4.338Y-3.422
X4.338Y-3.522
X4.338Y-3.622
X4.338Y-3.722
X4.338Y-3.822
X5.386Y-3.296
X5.386Y-3.396
X5.386Y-3.496
X5.386Y-3.596
T0
M30
