%TF.GenerationSoftware,KiCad,Pcbnew,7.0.8*%
%TF.CreationDate,2025-06-05T10:18:14-04:00*%
%TF.ProjectId,happless,68617070-6c65-4737-932e-6b696361645f,rev?*%
%TF.SameCoordinates,Original*%
%TF.FileFunction,Drillmap*%
%TF.FilePolarity,Positive*%
%FSLAX45Y45*%
G04 Gerber Fmt 4.5, Leading zero omitted, Abs format (unit mm)*
G04 Created by KiCad (PCBNEW 7.0.8) date 2025-06-05 10:18:14*
%MOMM*%
%LPD*%
G01*
G04 APERTURE LIST*
%ADD10C,0.100000*%
%ADD11C,0.200000*%
G04 APERTURE END LIST*
D10*
X8837680Y-8165520D02*
G75*
G03*
X8837680Y-8165520I-150000J0D01*
G01*
X13934440Y-9931400D02*
X10083800Y-9931400D01*
X10083800Y-8915400D01*
X8336280Y-8915400D01*
X8331200Y-8910320D01*
X8331200Y-6878320D01*
X13934440Y-6878320D01*
X13934440Y-9931400D01*
X13755180Y-9565520D02*
G75*
G03*
X13755180Y-9565520I-167500J0D01*
G01*
X13736040Y-7183120D02*
G75*
G03*
X13736040Y-7183120I-167500J0D01*
G01*
D11*
X8586977Y-10247884D02*
X8586977Y-10047884D01*
X8586977Y-10047884D02*
X8634596Y-10047884D01*
X8634596Y-10047884D02*
X8663167Y-10057408D01*
X8663167Y-10057408D02*
X8682215Y-10076455D01*
X8682215Y-10076455D02*
X8691739Y-10095503D01*
X8691739Y-10095503D02*
X8701263Y-10133598D01*
X8701263Y-10133598D02*
X8701263Y-10162170D01*
X8701263Y-10162170D02*
X8691739Y-10200265D01*
X8691739Y-10200265D02*
X8682215Y-10219312D01*
X8682215Y-10219312D02*
X8663167Y-10238360D01*
X8663167Y-10238360D02*
X8634596Y-10247884D01*
X8634596Y-10247884D02*
X8586977Y-10247884D01*
X8786977Y-10247884D02*
X8786977Y-10114550D01*
X8786977Y-10152646D02*
X8796501Y-10133598D01*
X8796501Y-10133598D02*
X8806024Y-10124074D01*
X8806024Y-10124074D02*
X8825072Y-10114550D01*
X8825072Y-10114550D02*
X8844120Y-10114550D01*
X8910786Y-10247884D02*
X8910786Y-10114550D01*
X8910786Y-10047884D02*
X8901263Y-10057408D01*
X8901263Y-10057408D02*
X8910786Y-10066931D01*
X8910786Y-10066931D02*
X8920310Y-10057408D01*
X8920310Y-10057408D02*
X8910786Y-10047884D01*
X8910786Y-10047884D02*
X8910786Y-10066931D01*
X9034596Y-10247884D02*
X9015548Y-10238360D01*
X9015548Y-10238360D02*
X9006024Y-10219312D01*
X9006024Y-10219312D02*
X9006024Y-10047884D01*
X9139358Y-10247884D02*
X9120310Y-10238360D01*
X9120310Y-10238360D02*
X9110786Y-10219312D01*
X9110786Y-10219312D02*
X9110786Y-10047884D01*
X9367929Y-10247884D02*
X9367929Y-10047884D01*
X9367929Y-10047884D02*
X9434596Y-10190741D01*
X9434596Y-10190741D02*
X9501263Y-10047884D01*
X9501263Y-10047884D02*
X9501263Y-10247884D01*
X9682215Y-10247884D02*
X9682215Y-10143122D01*
X9682215Y-10143122D02*
X9672691Y-10124074D01*
X9672691Y-10124074D02*
X9653644Y-10114550D01*
X9653644Y-10114550D02*
X9615548Y-10114550D01*
X9615548Y-10114550D02*
X9596501Y-10124074D01*
X9682215Y-10238360D02*
X9663167Y-10247884D01*
X9663167Y-10247884D02*
X9615548Y-10247884D01*
X9615548Y-10247884D02*
X9596501Y-10238360D01*
X9596501Y-10238360D02*
X9586977Y-10219312D01*
X9586977Y-10219312D02*
X9586977Y-10200265D01*
X9586977Y-10200265D02*
X9596501Y-10181217D01*
X9596501Y-10181217D02*
X9615548Y-10171693D01*
X9615548Y-10171693D02*
X9663167Y-10171693D01*
X9663167Y-10171693D02*
X9682215Y-10162170D01*
X9777453Y-10114550D02*
X9777453Y-10314550D01*
X9777453Y-10124074D02*
X9796501Y-10114550D01*
X9796501Y-10114550D02*
X9834596Y-10114550D01*
X9834596Y-10114550D02*
X9853644Y-10124074D01*
X9853644Y-10124074D02*
X9863167Y-10133598D01*
X9863167Y-10133598D02*
X9872691Y-10152646D01*
X9872691Y-10152646D02*
X9872691Y-10209789D01*
X9872691Y-10209789D02*
X9863167Y-10228836D01*
X9863167Y-10228836D02*
X9853644Y-10238360D01*
X9853644Y-10238360D02*
X9834596Y-10247884D01*
X9834596Y-10247884D02*
X9796501Y-10247884D01*
X9796501Y-10247884D02*
X9777453Y-10238360D01*
X9958405Y-10228836D02*
X9967929Y-10238360D01*
X9967929Y-10238360D02*
X9958405Y-10247884D01*
X9958405Y-10247884D02*
X9948882Y-10238360D01*
X9948882Y-10238360D02*
X9958405Y-10228836D01*
X9958405Y-10228836D02*
X9958405Y-10247884D01*
X9958405Y-10124074D02*
X9967929Y-10133598D01*
X9967929Y-10133598D02*
X9958405Y-10143122D01*
X9958405Y-10143122D02*
X9948882Y-10133598D01*
X9948882Y-10133598D02*
X9958405Y-10124074D01*
X9958405Y-10124074D02*
X9958405Y-10143122D01*
M02*
