%TF.GenerationSoftware,KiCad,Pcbnew,7.0.8*%
%TF.CreationDate,2025-06-05T10:18:12-04:00*%
%TF.ProjectId,happless,68617070-6c65-4737-932e-6b696361645f,rev?*%
%TF.SameCoordinates,Original*%
%TF.FileFunction,Copper,L2,Bot*%
%TF.FilePolarity,Positive*%
%FSLAX46Y46*%
G04 Gerber Fmt 4.6, Leading zero omitted, Abs format (unit mm)*
G04 Created by KiCad (PCBNEW 7.0.8) date 2025-06-05 10:18:12*
%MOMM*%
%LPD*%
G01*
G04 APERTURE LIST*
%TA.AperFunction,ComponentPad*%
%ADD10O,1.200000X1.600000*%
%TD*%
%TA.AperFunction,ComponentPad*%
%ADD11O,1.200000X1.200000*%
%TD*%
%TA.AperFunction,ComponentPad*%
%ADD12R,1.700000X1.700000*%
%TD*%
%TA.AperFunction,ComponentPad*%
%ADD13O,1.700000X1.700000*%
%TD*%
%TA.AperFunction,ViaPad*%
%ADD14C,0.800000*%
%TD*%
%TA.AperFunction,Conductor*%
%ADD15C,1.000000*%
%TD*%
G04 APERTURE END LIST*
D10*
%TO.P,Q1,1,C*%
%TO.N,VCC*%
X86817200Y-73761600D03*
D11*
%TO.P,Q1,2,B*%
%TO.N,unconnected-(Q1-B-Pad2)*%
X88087200Y-72491600D03*
%TO.P,Q1,3,E*%
%TO.N,Net-(Q1-E)*%
X86817200Y-71221600D03*
%TD*%
D12*
%TO.P,J2,1,Pin_1*%
%TO.N,+5V*%
X110185200Y-97078800D03*
D13*
%TO.P,J2,2,Pin_2*%
%TO.N,GND*%
X110185200Y-94538800D03*
%TO.P,J2,3,Pin_3*%
X110185200Y-91998800D03*
%TO.P,J2,4,Pin_4*%
%TO.N,OPTICAL_SIGNAL*%
X110185200Y-89458800D03*
%TO.P,J2,5,Pin_5*%
%TO.N,TRIGGER_SIGNAL*%
X110185200Y-86918800D03*
%TO.P,J2,6,Pin_6*%
X110185200Y-84378800D03*
%TD*%
D12*
%TO.P,J1,1,Pin_1*%
%TO.N,+5V*%
X136804400Y-83718400D03*
D13*
%TO.P,J1,2,Pin_2*%
%TO.N,GND*%
X136804400Y-86258400D03*
%TO.P,J1,3,Pin_3*%
%TO.N,OPTICAL_SIGNAL*%
X136804400Y-88798400D03*
%TO.P,J1,4,Pin_4*%
%TO.N,TRIGGER_SIGNAL*%
X136804400Y-91338400D03*
%TD*%
D14*
%TO.N,VCC*%
X100888800Y-70104000D03*
X91389200Y-79857600D03*
%TO.N,GND*%
X129286000Y-74879200D03*
X113792000Y-76454000D03*
X124917200Y-76352400D03*
X108000800Y-94335600D03*
X113893600Y-81534000D03*
X109829600Y-72948800D03*
X107950000Y-91998800D03*
X112318800Y-94538800D03*
X95046800Y-71882000D03*
X98196400Y-73304400D03*
X102108000Y-73355200D03*
X99314000Y-76149200D03*
X112217200Y-91998800D03*
X96164400Y-75692000D03*
X114198400Y-72948800D03*
X126949200Y-72948800D03*
X131470400Y-72898000D03*
X125272800Y-85445600D03*
X106121200Y-72898000D03*
%TO.N,Net-(Q2-C)*%
X96469200Y-73355200D03*
X94792800Y-82905600D03*
%TO.N,+5V*%
X102044200Y-89001600D03*
X108254800Y-79908400D03*
%TO.N,OPTICAL_SIGNAL*%
X134366000Y-88239600D03*
X122631200Y-74574400D03*
%TO.N,OPTO_CIRCUIT_OUT*%
X98094800Y-85090000D03*
X104343200Y-78232000D03*
X124409200Y-80264000D03*
%TD*%
D15*
%TO.N,VCC*%
X90017600Y-73304400D02*
X89458800Y-73863200D01*
X100888800Y-70002400D02*
X100838000Y-69951600D01*
X90246200Y-73075800D02*
X90017600Y-73304400D01*
X91389200Y-79857600D02*
X90373200Y-80873600D01*
X100838000Y-69951600D02*
X90881200Y-69951600D01*
X90678000Y-80568800D02*
X91389200Y-79857600D01*
X90525600Y-74930000D02*
X89458800Y-73863200D01*
X90373200Y-80873600D02*
X90373200Y-80924400D01*
X86918800Y-73863200D02*
X86817200Y-73761600D01*
X91389200Y-79857600D02*
X90525600Y-78994000D01*
X90525600Y-78994000D02*
X90525600Y-74930000D01*
X90246200Y-70586600D02*
X90246200Y-73075800D01*
X90678000Y-80924400D02*
X90678000Y-80568800D01*
X90881200Y-69951600D02*
X90246200Y-70586600D01*
X89458800Y-73863200D02*
X86918800Y-73863200D01*
%TO.N,Net-(Q2-C)*%
X96469200Y-73355200D02*
X96520000Y-73355200D01*
X96520000Y-73355200D02*
X96570800Y-73304400D01*
X94792800Y-75082400D02*
X96469200Y-73406000D01*
X94792800Y-82905600D02*
X94792800Y-75082400D01*
X96469200Y-73406000D02*
X96469200Y-73355200D01*
%TO.N,+5V*%
X107340400Y-88950800D02*
X108000800Y-88290400D01*
X108000800Y-88290400D02*
X108000800Y-80162400D01*
X102044200Y-89001600D02*
X102095000Y-88950800D01*
X102095000Y-88950800D02*
X107340400Y-88950800D01*
X108000800Y-80162400D02*
X108254800Y-79908400D01*
%TO.N,OPTICAL_SIGNAL*%
X126441200Y-86715600D02*
X127762000Y-88036400D01*
X127762000Y-88036400D02*
X127914400Y-88188800D01*
X127914400Y-88188800D02*
X134264400Y-88188800D01*
X110185200Y-89458800D02*
X120446800Y-89458800D01*
X123190000Y-75133200D02*
X125984000Y-75133200D01*
X123190000Y-86715600D02*
X126441200Y-86715600D01*
X125984000Y-75133200D02*
X126441200Y-75590400D01*
X120446800Y-89458800D02*
X123190000Y-86715600D01*
X122631200Y-74574400D02*
X123190000Y-75133200D01*
X126441200Y-79298800D02*
X126441200Y-86715600D01*
X126441200Y-75590400D02*
X126441200Y-79298800D01*
%TO.N,TRIGGER_SIGNAL*%
X110185200Y-86918800D02*
X110185200Y-84378800D01*
%TO.N,OPTO_CIRCUIT_OUT*%
X98501200Y-85090000D02*
X104343200Y-79248000D01*
X111556800Y-80264000D02*
X124409200Y-80264000D01*
X104444800Y-78130400D02*
X109423200Y-78130400D01*
X104343200Y-78232000D02*
X104444800Y-78130400D01*
X104343200Y-79248000D02*
X104343200Y-78232000D01*
X109423200Y-78130400D02*
X111556800Y-80264000D01*
X98094800Y-85090000D02*
X98501200Y-85090000D01*
%TD*%
%TA.AperFunction,Conductor*%
%TO.N,GND*%
G36*
X90519081Y-68803385D02*
G01*
X90564836Y-68856189D01*
X90574780Y-68925347D01*
X90545755Y-68988903D01*
X90489166Y-69026012D01*
X90484616Y-69027439D01*
X90484612Y-69027441D01*
X90454585Y-69044106D01*
X90447493Y-69047474D01*
X90415583Y-69060221D01*
X90364354Y-69093983D01*
X90360326Y-69096424D01*
X90306702Y-69126188D01*
X90306699Y-69126190D01*
X90280627Y-69148570D01*
X90274360Y-69153295D01*
X90245682Y-69172198D01*
X90245675Y-69172203D01*
X90202316Y-69215562D01*
X90198861Y-69218764D01*
X90152306Y-69258732D01*
X90152305Y-69258733D01*
X90131276Y-69285900D01*
X90126084Y-69291794D01*
X89547732Y-69870146D01*
X89483146Y-69931542D01*
X89448099Y-69981894D01*
X89445262Y-69985656D01*
X89406502Y-70033192D01*
X89406499Y-70033197D01*
X89390592Y-70063647D01*
X89386524Y-70070361D01*
X89366902Y-70098554D01*
X89342709Y-70154930D01*
X89340688Y-70159184D01*
X89312291Y-70213551D01*
X89312290Y-70213552D01*
X89302840Y-70246575D01*
X89300207Y-70253971D01*
X89286659Y-70285543D01*
X89274313Y-70345619D01*
X89273190Y-70350195D01*
X89256313Y-70409177D01*
X89256313Y-70409179D01*
X89253703Y-70443441D01*
X89252614Y-70451208D01*
X89247311Y-70477018D01*
X89245700Y-70484858D01*
X89245700Y-70546197D01*
X89245521Y-70550906D01*
X89240862Y-70612074D01*
X89242907Y-70628127D01*
X89245203Y-70646160D01*
X89245700Y-70653988D01*
X89245700Y-71829586D01*
X89226015Y-71896625D01*
X89173211Y-71942380D01*
X89104053Y-71952324D01*
X89040497Y-71923299D01*
X89022746Y-71904313D01*
X88903962Y-71747019D01*
X88753241Y-71609619D01*
X88753239Y-71609617D01*
X88579842Y-71502255D01*
X88579835Y-71502251D01*
X88442335Y-71448984D01*
X88389656Y-71428576D01*
X88189176Y-71391100D01*
X88042730Y-71391100D01*
X87975691Y-71371415D01*
X87929936Y-71318611D01*
X87919259Y-71255659D01*
X87922415Y-71221600D01*
X87922415Y-71221599D01*
X87903597Y-71018517D01*
X87847782Y-70822350D01*
X87843121Y-70812990D01*
X87775197Y-70676579D01*
X87756873Y-70639779D01*
X87633964Y-70477021D01*
X87633962Y-70477018D01*
X87483241Y-70339619D01*
X87483239Y-70339617D01*
X87309842Y-70232255D01*
X87309835Y-70232251D01*
X87190606Y-70186062D01*
X87119656Y-70158576D01*
X86919176Y-70121100D01*
X86715224Y-70121100D01*
X86514744Y-70158576D01*
X86514741Y-70158576D01*
X86514741Y-70158577D01*
X86324564Y-70232251D01*
X86324557Y-70232255D01*
X86151160Y-70339617D01*
X86151158Y-70339619D01*
X86000437Y-70477018D01*
X85877527Y-70639778D01*
X85786622Y-70822339D01*
X85786617Y-70822352D01*
X85730802Y-71018517D01*
X85711985Y-71221599D01*
X85711985Y-71221600D01*
X85730802Y-71424682D01*
X85786617Y-71620847D01*
X85786622Y-71620860D01*
X85877527Y-71803421D01*
X86000437Y-71966181D01*
X86151158Y-72103580D01*
X86151160Y-72103582D01*
X86250341Y-72164992D01*
X86324563Y-72210948D01*
X86491843Y-72275752D01*
X86547244Y-72318325D01*
X86570835Y-72384092D01*
X86555124Y-72452172D01*
X86505100Y-72500951D01*
X86476285Y-72511883D01*
X86455627Y-72516894D01*
X86455617Y-72516898D01*
X86264456Y-72604198D01*
X86264451Y-72604201D01*
X86093246Y-72726115D01*
X86093240Y-72726120D01*
X85948214Y-72878220D01*
X85834588Y-73055025D01*
X85756474Y-73250144D01*
X85717933Y-73450117D01*
X85716700Y-73456515D01*
X85716700Y-74014025D01*
X85731672Y-74170818D01*
X85754231Y-74247648D01*
X85785898Y-74355496D01*
X85790884Y-74372475D01*
X85856594Y-74499936D01*
X85887191Y-74559286D01*
X86017105Y-74724483D01*
X86017109Y-74724487D01*
X86175946Y-74862121D01*
X86357950Y-74967201D01*
X86357952Y-74967201D01*
X86357956Y-74967204D01*
X86556567Y-75035944D01*
X86764598Y-75065854D01*
X86974530Y-75055854D01*
X87178776Y-75006304D01*
X87291383Y-74954878D01*
X87369943Y-74919001D01*
X87369947Y-74918998D01*
X87369953Y-74918996D01*
X87396603Y-74900019D01*
X87415319Y-74886692D01*
X87481346Y-74863840D01*
X87487245Y-74863700D01*
X88993017Y-74863700D01*
X89060056Y-74883385D01*
X89080698Y-74900019D01*
X89488781Y-75308101D01*
X89522266Y-75369424D01*
X89525100Y-75395782D01*
X89525100Y-78981283D01*
X89522843Y-79070362D01*
X89522843Y-79070370D01*
X89533664Y-79130739D01*
X89534318Y-79135404D01*
X89540525Y-79196430D01*
X89540527Y-79196444D01*
X89550808Y-79229213D01*
X89552679Y-79236837D01*
X89558742Y-79270652D01*
X89558742Y-79270655D01*
X89581494Y-79327612D01*
X89583074Y-79332051D01*
X89601441Y-79390588D01*
X89601444Y-79390595D01*
X89618109Y-79420619D01*
X89621479Y-79427714D01*
X89634222Y-79459614D01*
X89634227Y-79459624D01*
X89653277Y-79488528D01*
X89665675Y-79507341D01*
X89667977Y-79510833D01*
X89670418Y-79514863D01*
X89700188Y-79568498D01*
X89700189Y-79568499D01*
X89700191Y-79568502D01*
X89722568Y-79594567D01*
X89727293Y-79600835D01*
X89746199Y-79629520D01*
X89746200Y-79629522D01*
X89789565Y-79672887D01*
X89792768Y-79676343D01*
X89832733Y-79722894D01*
X89859899Y-79743923D01*
X89865786Y-79749107D01*
X89880916Y-79764237D01*
X89886597Y-79769918D01*
X89920082Y-79831241D01*
X89915098Y-79900933D01*
X89886598Y-79945280D01*
X89674731Y-80157148D01*
X89610149Y-80218538D01*
X89610146Y-80218542D01*
X89575099Y-80268894D01*
X89572262Y-80272656D01*
X89533502Y-80320192D01*
X89533499Y-80320197D01*
X89517592Y-80350647D01*
X89513524Y-80357361D01*
X89493902Y-80385554D01*
X89469709Y-80441930D01*
X89467688Y-80446184D01*
X89439291Y-80500551D01*
X89439290Y-80500552D01*
X89429840Y-80533575D01*
X89427207Y-80540971D01*
X89413659Y-80572543D01*
X89401313Y-80632619D01*
X89400190Y-80637195D01*
X89383313Y-80696177D01*
X89383313Y-80696179D01*
X89380703Y-80730441D01*
X89379614Y-80738208D01*
X89374180Y-80764652D01*
X89372700Y-80771858D01*
X89372700Y-80833197D01*
X89372521Y-80837906D01*
X89367862Y-80899074D01*
X89368529Y-80904306D01*
X89372203Y-80933160D01*
X89372700Y-80940988D01*
X89372700Y-80975143D01*
X89388125Y-81126839D01*
X89449037Y-81320979D01*
X89449044Y-81320994D01*
X89547789Y-81498899D01*
X89547792Y-81498904D01*
X89680332Y-81653293D01*
X89680334Y-81653295D01*
X89841237Y-81777845D01*
X89841238Y-81777845D01*
X89841242Y-81777848D01*
X90023929Y-81867460D01*
X90220915Y-81918463D01*
X90424136Y-81928769D01*
X90489789Y-81918711D01*
X90519405Y-81918712D01*
X90519434Y-81918144D01*
X90525712Y-81918462D01*
X90525715Y-81918463D01*
X90728936Y-81928769D01*
X90930071Y-81897956D01*
X91120887Y-81827286D01*
X91293571Y-81719652D01*
X91441053Y-81579459D01*
X91557295Y-81412449D01*
X91637540Y-81225458D01*
X91678500Y-81026141D01*
X91678500Y-81026135D01*
X91678891Y-81022290D01*
X91679699Y-81020306D01*
X91679766Y-81019981D01*
X91679826Y-81019993D01*
X91705253Y-80957584D01*
X91714567Y-80947153D01*
X92077640Y-80584079D01*
X92079866Y-80581962D01*
X92135413Y-80531779D01*
X92179698Y-80471468D01*
X92181578Y-80469038D01*
X92228898Y-80411007D01*
X92236358Y-80396723D01*
X92246318Y-80380743D01*
X92255849Y-80367767D01*
X92287094Y-80299762D01*
X92288471Y-80296958D01*
X92323109Y-80230649D01*
X92327539Y-80215163D01*
X92334082Y-80197500D01*
X92338505Y-80187874D01*
X92340805Y-80182869D01*
X92357721Y-80109969D01*
X92358496Y-80106977D01*
X92379087Y-80035018D01*
X92380309Y-80018952D01*
X92383160Y-80000349D01*
X92386803Y-79984654D01*
X92388698Y-79909847D01*
X92388857Y-79906711D01*
X92390668Y-79882924D01*
X92394537Y-79832123D01*
X92394237Y-79829771D01*
X92392503Y-79816156D01*
X92391548Y-79797342D01*
X92391957Y-79781237D01*
X92383666Y-79734984D01*
X92378758Y-79707599D01*
X92378282Y-79704492D01*
X92375122Y-79679681D01*
X92368830Y-79630272D01*
X92363618Y-79615027D01*
X92358898Y-79596798D01*
X92356058Y-79580947D01*
X92328288Y-79511426D01*
X92327224Y-79508553D01*
X92303016Y-79437728D01*
X92294845Y-79423847D01*
X92286555Y-79406946D01*
X92280578Y-79391983D01*
X92275781Y-79384705D01*
X92239417Y-79329528D01*
X92237755Y-79326862D01*
X92199791Y-79262373D01*
X92199789Y-79262371D01*
X92188990Y-79250418D01*
X92177460Y-79235523D01*
X92168602Y-79222082D01*
X92142950Y-79196430D01*
X92115703Y-79169183D01*
X92113559Y-79166927D01*
X92063380Y-79111386D01*
X92050390Y-79101848D01*
X92036101Y-79089581D01*
X91562419Y-78615899D01*
X91528934Y-78554576D01*
X91526100Y-78528218D01*
X91526100Y-75107874D01*
X93787462Y-75107874D01*
X93789507Y-75123927D01*
X93791803Y-75141960D01*
X93792300Y-75149788D01*
X93792300Y-82956343D01*
X93807725Y-83108039D01*
X93868637Y-83302179D01*
X93868644Y-83302194D01*
X93967389Y-83480099D01*
X93967392Y-83480104D01*
X94099932Y-83634493D01*
X94099934Y-83634495D01*
X94260837Y-83759045D01*
X94260838Y-83759045D01*
X94260842Y-83759048D01*
X94443529Y-83848660D01*
X94640515Y-83899663D01*
X94843736Y-83909969D01*
X95044871Y-83879156D01*
X95235687Y-83808486D01*
X95408371Y-83700852D01*
X95555853Y-83560659D01*
X95672095Y-83393649D01*
X95752340Y-83206658D01*
X95793300Y-83007341D01*
X95793300Y-75548183D01*
X95812985Y-75481144D01*
X95829619Y-75460502D01*
X97167687Y-74122433D01*
X97177595Y-74113015D01*
X97217074Y-74075486D01*
X97219383Y-74073400D01*
X97248895Y-74048066D01*
X97269923Y-74020898D01*
X97275109Y-74015009D01*
X97314140Y-73975980D01*
X97410498Y-73857807D01*
X97504709Y-73677449D01*
X97560687Y-73481818D01*
X97573604Y-73312187D01*
X97576137Y-73278925D01*
X97576137Y-73278922D01*
X97550431Y-73077078D01*
X97550430Y-73077076D01*
X97550430Y-73077072D01*
X97484616Y-72884528D01*
X97462043Y-72846183D01*
X97381393Y-72709178D01*
X97381392Y-72709177D01*
X97381390Y-72709173D01*
X97244979Y-72558187D01*
X97235758Y-72551416D01*
X97080971Y-72437753D01*
X97080964Y-72437749D01*
X96896074Y-72352797D01*
X96896061Y-72352792D01*
X96697854Y-72306797D01*
X96494442Y-72301642D01*
X96294151Y-72337540D01*
X96294145Y-72337542D01*
X96105180Y-72413024D01*
X96096800Y-72418546D01*
X96077485Y-72428949D01*
X96072615Y-72431039D01*
X96058524Y-72438860D01*
X96041419Y-72446719D01*
X96026315Y-72452313D01*
X96026308Y-72452316D01*
X95962826Y-72491885D01*
X95960119Y-72493478D01*
X95894706Y-72529785D01*
X95894699Y-72529790D01*
X95882478Y-72540281D01*
X95867314Y-72551416D01*
X95853630Y-72559946D01*
X95853627Y-72559949D01*
X95799400Y-72611495D01*
X95797070Y-72613600D01*
X95740308Y-72662329D01*
X95740302Y-72662336D01*
X95730443Y-72675072D01*
X95717831Y-72689032D01*
X95706149Y-72700138D01*
X95706148Y-72700139D01*
X95663415Y-72761535D01*
X95661556Y-72764065D01*
X95615751Y-72823242D01*
X95608653Y-72837712D01*
X95599104Y-72853933D01*
X95588825Y-72868702D01*
X95574730Y-72885548D01*
X94094332Y-74365946D01*
X94029746Y-74427342D01*
X93994699Y-74477694D01*
X93991862Y-74481456D01*
X93953102Y-74528992D01*
X93953099Y-74528997D01*
X93937192Y-74559447D01*
X93933124Y-74566161D01*
X93913502Y-74594354D01*
X93889309Y-74650730D01*
X93887288Y-74654984D01*
X93858891Y-74709351D01*
X93858890Y-74709352D01*
X93849440Y-74742375D01*
X93846807Y-74749771D01*
X93833259Y-74781343D01*
X93820913Y-74841419D01*
X93819790Y-74845995D01*
X93802913Y-74904977D01*
X93802913Y-74904979D01*
X93800303Y-74939241D01*
X93799214Y-74947008D01*
X93795065Y-74967204D01*
X93792300Y-74980658D01*
X93792300Y-75041997D01*
X93792121Y-75046706D01*
X93787462Y-75107874D01*
X91526100Y-75107874D01*
X91526100Y-74942683D01*
X91528357Y-74853642D01*
X91528356Y-74853641D01*
X91528357Y-74853637D01*
X91517533Y-74793249D01*
X91516880Y-74788587D01*
X91510674Y-74727563D01*
X91509709Y-74724487D01*
X91500384Y-74694768D01*
X91498517Y-74687155D01*
X91492458Y-74653347D01*
X91492457Y-74653345D01*
X91491412Y-74650730D01*
X91469700Y-74596374D01*
X91468121Y-74591938D01*
X91459019Y-74562928D01*
X91449759Y-74533412D01*
X91449758Y-74533410D01*
X91449757Y-74533407D01*
X91433088Y-74503378D01*
X91429717Y-74496278D01*
X91423796Y-74481456D01*
X91416977Y-74464383D01*
X91383220Y-74413163D01*
X91380780Y-74409134D01*
X91360430Y-74372472D01*
X91351009Y-74355498D01*
X91351007Y-74355495D01*
X91328633Y-74329434D01*
X91323902Y-74323159D01*
X91305002Y-74294481D01*
X91261612Y-74251091D01*
X91258422Y-74247648D01*
X91218467Y-74201106D01*
X91218463Y-74201102D01*
X91191298Y-74180074D01*
X91185403Y-74174882D01*
X90961853Y-73951332D01*
X90928368Y-73890009D01*
X90933352Y-73820317D01*
X90964102Y-73773777D01*
X91009253Y-73730859D01*
X91044299Y-73680506D01*
X91047138Y-73676741D01*
X91050812Y-73672235D01*
X91085898Y-73629207D01*
X91101801Y-73598760D01*
X91105874Y-73592039D01*
X91111113Y-73584512D01*
X91125495Y-73563849D01*
X91149692Y-73507460D01*
X91151698Y-73503235D01*
X91180109Y-73448849D01*
X91189557Y-73415822D01*
X91192188Y-73408433D01*
X91205740Y-73376858D01*
X91218095Y-73316730D01*
X91219199Y-73312229D01*
X91236086Y-73253218D01*
X91238694Y-73218957D01*
X91239785Y-73211189D01*
X91246700Y-73177543D01*
X91246700Y-73116198D01*
X91246879Y-73111488D01*
X91251537Y-73050324D01*
X91247197Y-73016242D01*
X91246700Y-73008403D01*
X91246700Y-71831204D01*
X134005202Y-71831204D01*
X134023967Y-72081619D01*
X134077994Y-72318325D01*
X134079848Y-72326447D01*
X134129192Y-72452172D01*
X134171594Y-72560211D01*
X134171593Y-72560211D01*
X134230556Y-72662336D01*
X134297155Y-72777689D01*
X134423617Y-72936267D01*
X134453731Y-72974029D01*
X134606954Y-73116198D01*
X134637814Y-73144832D01*
X134845301Y-73286294D01*
X134845306Y-73286296D01*
X134845307Y-73286297D01*
X134845308Y-73286298D01*
X134965470Y-73344164D01*
X135071555Y-73395252D01*
X135112549Y-73407897D01*
X135115203Y-73408783D01*
X135118375Y-73409922D01*
X135118389Y-73409929D01*
X135121784Y-73410862D01*
X135125243Y-73411813D01*
X135311523Y-73469273D01*
X135334326Y-73472709D01*
X135358411Y-73476339D01*
X135365595Y-73477862D01*
X135366026Y-73477981D01*
X135366031Y-73477981D01*
X135366033Y-73477982D01*
X135369625Y-73478396D01*
X135380010Y-73479595D01*
X135559839Y-73506700D01*
X135611219Y-73506700D01*
X135618333Y-73507108D01*
X135621149Y-73507434D01*
X135639400Y-73506734D01*
X135640299Y-73506700D01*
X135810961Y-73506700D01*
X135865767Y-73498439D01*
X135872617Y-73497794D01*
X135877777Y-73497597D01*
X135900152Y-73493256D01*
X136059279Y-73469272D01*
X136116133Y-73451734D01*
X136122592Y-73450117D01*
X136129897Y-73448701D01*
X136152537Y-73440569D01*
X136155060Y-73439727D01*
X136299245Y-73395252D01*
X136356598Y-73367632D01*
X136362508Y-73365156D01*
X136371598Y-73361892D01*
X136394139Y-73349634D01*
X136396777Y-73348282D01*
X136525499Y-73286294D01*
X136581555Y-73248075D01*
X136586846Y-73244844D01*
X136597215Y-73239206D01*
X136618373Y-73223077D01*
X136620988Y-73221190D01*
X136732986Y-73144832D01*
X136785884Y-73095749D01*
X136790423Y-73091929D01*
X136801460Y-73083517D01*
X136820233Y-73064010D01*
X136822689Y-73061599D01*
X136917072Y-72974025D01*
X136964772Y-72914210D01*
X136968565Y-72909883D01*
X136979546Y-72898474D01*
X136995119Y-72876333D01*
X136997307Y-72873413D01*
X137073645Y-72777689D01*
X137114157Y-72707520D01*
X137117091Y-72702926D01*
X137127298Y-72688416D01*
X137139144Y-72664489D01*
X137140986Y-72661050D01*
X137199206Y-72560211D01*
X137200001Y-72558187D01*
X137211147Y-72529785D01*
X137230478Y-72480529D01*
X137232603Y-72475732D01*
X137241252Y-72458265D01*
X137249100Y-72433464D01*
X137250482Y-72429561D01*
X137290952Y-72326447D01*
X137311047Y-72238401D01*
X137312367Y-72233552D01*
X137318740Y-72213416D01*
X137322574Y-72188590D01*
X137323386Y-72184342D01*
X137346832Y-72081621D01*
X137353944Y-71986704D01*
X137354486Y-71981978D01*
X137357942Y-71959609D01*
X137358584Y-71926067D01*
X137358743Y-71922666D01*
X137365598Y-71831200D01*
X137358744Y-71739738D01*
X137358584Y-71736330D01*
X137357942Y-71702791D01*
X137354488Y-71680433D01*
X137353942Y-71675670D01*
X137346832Y-71580779D01*
X137323392Y-71478084D01*
X137322567Y-71473763D01*
X137318740Y-71448984D01*
X137312371Y-71428859D01*
X137311040Y-71423965D01*
X137299046Y-71371415D01*
X137290955Y-71335963D01*
X137290953Y-71335957D01*
X137290952Y-71335953D01*
X137250482Y-71232838D01*
X137249101Y-71228937D01*
X137241252Y-71204135D01*
X137232607Y-71186676D01*
X137230473Y-71181856D01*
X137199206Y-71102189D01*
X137140991Y-71001358D01*
X137139134Y-70997889D01*
X137137691Y-70994974D01*
X137127298Y-70973984D01*
X137125872Y-70971957D01*
X137117110Y-70959500D01*
X137114126Y-70954826D01*
X137073646Y-70884713D01*
X137073645Y-70884711D01*
X137016452Y-70812993D01*
X136997336Y-70789022D01*
X136995098Y-70786035D01*
X136979549Y-70763930D01*
X136979538Y-70763917D01*
X136968567Y-70752517D01*
X136964765Y-70748179D01*
X136940759Y-70718078D01*
X136917072Y-70688375D01*
X136822705Y-70600815D01*
X136820218Y-70598374D01*
X136801460Y-70578883D01*
X136790440Y-70570483D01*
X136785857Y-70566625D01*
X136732986Y-70517567D01*
X136621015Y-70441226D01*
X136618355Y-70439308D01*
X136597212Y-70423192D01*
X136586854Y-70417559D01*
X136581546Y-70414318D01*
X136525499Y-70376106D01*
X136396806Y-70314130D01*
X136394100Y-70312744D01*
X136382539Y-70306457D01*
X136371595Y-70300506D01*
X136362519Y-70297247D01*
X136356570Y-70294754D01*
X136299250Y-70267150D01*
X136299247Y-70267149D01*
X136299245Y-70267148D01*
X136244807Y-70250356D01*
X136155142Y-70222697D01*
X136152461Y-70221803D01*
X136129904Y-70213701D01*
X136129899Y-70213700D01*
X136129897Y-70213699D01*
X136129887Y-70213697D01*
X136122582Y-70212279D01*
X136116118Y-70210660D01*
X136059288Y-70193130D01*
X136059284Y-70193129D01*
X136059280Y-70193128D01*
X136059279Y-70193128D01*
X136001499Y-70184419D01*
X135900173Y-70169146D01*
X135877776Y-70164802D01*
X135877777Y-70164802D01*
X135872605Y-70164604D01*
X135865745Y-70163957D01*
X135810969Y-70155700D01*
X135810961Y-70155700D01*
X135640299Y-70155700D01*
X135621147Y-70154965D01*
X135618334Y-70155291D01*
X135611219Y-70155700D01*
X135559831Y-70155700D01*
X135380017Y-70182803D01*
X135366022Y-70184419D01*
X135366010Y-70184421D01*
X135365564Y-70184544D01*
X135358397Y-70186062D01*
X135311514Y-70193129D01*
X135125235Y-70250589D01*
X135118377Y-70252474D01*
X135115163Y-70253628D01*
X135112489Y-70254521D01*
X135071553Y-70267148D01*
X134845308Y-70376101D01*
X134845307Y-70376102D01*
X134637813Y-70517568D01*
X134453731Y-70688370D01*
X134297155Y-70884711D01*
X134171594Y-71102188D01*
X134120309Y-71232860D01*
X134079849Y-71335952D01*
X134079845Y-71335964D01*
X134023967Y-71580780D01*
X134005202Y-71831195D01*
X134005202Y-71831204D01*
X91246700Y-71831204D01*
X91246700Y-71076100D01*
X91266385Y-71009061D01*
X91319189Y-70963306D01*
X91370700Y-70952100D01*
X100553342Y-70952100D01*
X100603774Y-70962819D01*
X100608996Y-70965144D01*
X100608999Y-70965145D01*
X100636167Y-70970919D01*
X100640316Y-70971951D01*
X100711382Y-70992287D01*
X100746699Y-70994975D01*
X100754865Y-70996148D01*
X100794154Y-71004500D01*
X100869410Y-71004500D01*
X100874115Y-71004678D01*
X100895737Y-71006325D01*
X100914274Y-71007737D01*
X100914274Y-71007736D01*
X100914276Y-71007737D01*
X100935797Y-71004996D01*
X100943626Y-71004500D01*
X100983445Y-71004500D01*
X100983446Y-71004500D01*
X101046339Y-70991131D01*
X101051389Y-70990275D01*
X101075469Y-70987207D01*
X101116128Y-70982030D01*
X101156954Y-70968074D01*
X101164123Y-70966096D01*
X101168598Y-70965145D01*
X101168597Y-70965145D01*
X101168603Y-70965144D01*
X101176235Y-70961745D01*
X101181374Y-70959727D01*
X101308672Y-70916216D01*
X101484027Y-70812990D01*
X101635013Y-70676579D01*
X101755449Y-70512567D01*
X101840405Y-70327668D01*
X101843869Y-70312744D01*
X101886402Y-70129454D01*
X101891557Y-69926042D01*
X101891556Y-69926041D01*
X101891557Y-69926037D01*
X101855658Y-69725747D01*
X101780177Y-69536783D01*
X101780172Y-69536776D01*
X101780170Y-69536771D01*
X101668204Y-69366883D01*
X101554446Y-69253126D01*
X101493061Y-69188549D01*
X101493060Y-69188548D01*
X101442709Y-69153502D01*
X101438944Y-69150664D01*
X101391408Y-69111902D01*
X101391406Y-69111900D01*
X101360959Y-69095997D01*
X101354251Y-69091934D01*
X101326049Y-69072305D01*
X101326046Y-69072303D01*
X101326045Y-69072303D01*
X101326041Y-69072301D01*
X101269680Y-69048114D01*
X101265424Y-69046093D01*
X101210893Y-69017609D01*
X101160585Y-68969124D01*
X101144477Y-68901136D01*
X101167683Y-68835233D01*
X101222834Y-68792337D01*
X101268303Y-68783700D01*
X139219900Y-68783700D01*
X139286939Y-68803385D01*
X139332694Y-68856189D01*
X139343900Y-68907700D01*
X139343900Y-99189500D01*
X139324215Y-99256539D01*
X139271411Y-99302294D01*
X139219900Y-99313500D01*
X100962500Y-99313500D01*
X100895461Y-99293815D01*
X100849706Y-99241011D01*
X100838500Y-99189500D01*
X100838500Y-89313693D01*
X100858185Y-89246654D01*
X100910989Y-89200899D01*
X100980147Y-89190955D01*
X101043703Y-89219980D01*
X101079835Y-89273587D01*
X101130382Y-89421467D01*
X101130389Y-89421482D01*
X101233606Y-89596821D01*
X101233610Y-89596827D01*
X101370021Y-89747813D01*
X101378219Y-89753833D01*
X101534028Y-89868246D01*
X101534035Y-89868250D01*
X101714785Y-89951300D01*
X101718932Y-89953205D01*
X101777623Y-89966825D01*
X101917145Y-89999203D01*
X102120558Y-90004357D01*
X102120558Y-90004356D01*
X102120563Y-90004357D01*
X102300053Y-89972186D01*
X102320848Y-89968459D01*
X102320848Y-89968458D01*
X102320853Y-89968458D01*
X102341660Y-89960146D01*
X102387657Y-89951300D01*
X107327684Y-89951300D01*
X107416758Y-89953557D01*
X107416758Y-89953556D01*
X107416763Y-89953557D01*
X107477153Y-89942732D01*
X107481812Y-89942080D01*
X107524007Y-89937788D01*
X107542838Y-89935874D01*
X107575627Y-89925586D01*
X107583240Y-89923718D01*
X107617053Y-89917658D01*
X107674021Y-89894901D01*
X107678453Y-89893324D01*
X107736988Y-89874959D01*
X107767027Y-89858284D01*
X107774108Y-89854922D01*
X107806017Y-89842177D01*
X107857254Y-89808408D01*
X107861251Y-89805987D01*
X107914902Y-89776209D01*
X107940968Y-89753830D01*
X107947243Y-89749100D01*
X107949196Y-89747813D01*
X107975919Y-89730202D01*
X108019317Y-89686802D01*
X108022736Y-89683634D01*
X108069295Y-89643666D01*
X108090331Y-89616488D01*
X108095501Y-89610618D01*
X108657389Y-89048730D01*
X108718710Y-89015247D01*
X108788402Y-89020231D01*
X108844335Y-89062103D01*
X108868752Y-89127567D01*
X108864843Y-89168505D01*
X108850139Y-89223383D01*
X108850136Y-89223396D01*
X108829541Y-89458799D01*
X108829541Y-89458800D01*
X108850136Y-89694203D01*
X108850138Y-89694213D01*
X108911294Y-89922455D01*
X108911296Y-89922459D01*
X108911297Y-89922463D01*
X108939780Y-89983545D01*
X109011165Y-90136630D01*
X109011167Y-90136634D01*
X109095519Y-90257100D01*
X109137055Y-90316420D01*
X109146701Y-90330195D01*
X109146706Y-90330202D01*
X109313797Y-90497293D01*
X109313803Y-90497298D01*
X109499794Y-90627530D01*
X109543419Y-90682107D01*
X109550613Y-90751605D01*
X109519090Y-90813960D01*
X109499795Y-90830680D01*
X109314122Y-90960690D01*
X109314120Y-90960691D01*
X109147091Y-91127720D01*
X109147086Y-91127726D01*
X109011600Y-91321220D01*
X109011599Y-91321222D01*
X108911770Y-91535307D01*
X108911767Y-91535313D01*
X108854564Y-91748799D01*
X108854564Y-91748800D01*
X109751514Y-91748800D01*
X109725707Y-91788956D01*
X109685200Y-91926911D01*
X109685200Y-92070689D01*
X109725707Y-92208644D01*
X109751514Y-92248800D01*
X108854564Y-92248800D01*
X108911767Y-92462286D01*
X108911770Y-92462292D01*
X109011599Y-92676378D01*
X109147094Y-92869882D01*
X109314117Y-93036905D01*
X109500231Y-93167225D01*
X109543856Y-93221803D01*
X109551048Y-93291301D01*
X109519526Y-93353656D01*
X109500231Y-93370375D01*
X109314122Y-93500690D01*
X109314120Y-93500691D01*
X109147091Y-93667720D01*
X109147086Y-93667726D01*
X109011600Y-93861220D01*
X109011599Y-93861222D01*
X108911770Y-94075307D01*
X108911767Y-94075313D01*
X108854564Y-94288799D01*
X108854564Y-94288800D01*
X109751514Y-94288800D01*
X109725707Y-94328956D01*
X109685200Y-94466911D01*
X109685200Y-94610689D01*
X109725707Y-94748644D01*
X109751514Y-94788800D01*
X108854564Y-94788800D01*
X108911767Y-95002286D01*
X108911770Y-95002292D01*
X109011599Y-95216378D01*
X109147094Y-95409882D01*
X109269146Y-95531934D01*
X109302631Y-95593257D01*
X109297647Y-95662949D01*
X109255775Y-95718882D01*
X109224798Y-95735797D01*
X109092871Y-95785002D01*
X109092864Y-95785006D01*
X108977655Y-95871252D01*
X108977652Y-95871255D01*
X108891406Y-95986464D01*
X108891402Y-95986471D01*
X108841108Y-96121317D01*
X108834701Y-96180916D01*
X108834701Y-96180923D01*
X108834700Y-96180935D01*
X108834700Y-97976670D01*
X108834701Y-97976676D01*
X108841108Y-98036283D01*
X108891402Y-98171128D01*
X108891406Y-98171135D01*
X108977652Y-98286344D01*
X108977655Y-98286347D01*
X109092864Y-98372593D01*
X109092871Y-98372597D01*
X109227717Y-98422891D01*
X109227716Y-98422891D01*
X109234644Y-98423635D01*
X109287327Y-98429300D01*
X111083072Y-98429299D01*
X111142683Y-98422891D01*
X111277531Y-98372596D01*
X111392746Y-98286346D01*
X111478996Y-98171131D01*
X111529291Y-98036283D01*
X111535700Y-97976673D01*
X111535699Y-96180928D01*
X111529291Y-96121317D01*
X111507333Y-96062445D01*
X111478997Y-95986471D01*
X111478993Y-95986464D01*
X111392747Y-95871255D01*
X111392744Y-95871252D01*
X111277535Y-95785006D01*
X111277528Y-95785002D01*
X111145601Y-95735797D01*
X111089667Y-95693926D01*
X111075224Y-95655204D01*
X134196602Y-95655204D01*
X134215367Y-95905619D01*
X134239783Y-96012590D01*
X134271248Y-96150447D01*
X134271250Y-96150452D01*
X134362994Y-96384211D01*
X134362993Y-96384211D01*
X134421198Y-96485023D01*
X134488555Y-96601689D01*
X134615017Y-96760267D01*
X134645131Y-96798029D01*
X134763132Y-96907517D01*
X134829214Y-96968832D01*
X135036701Y-97110294D01*
X135036706Y-97110296D01*
X135036707Y-97110297D01*
X135036708Y-97110298D01*
X135156870Y-97168164D01*
X135262955Y-97219252D01*
X135303949Y-97231897D01*
X135306603Y-97232783D01*
X135309775Y-97233922D01*
X135309789Y-97233929D01*
X135313184Y-97234862D01*
X135316643Y-97235813D01*
X135502923Y-97293273D01*
X135525726Y-97296709D01*
X135549811Y-97300339D01*
X135556995Y-97301862D01*
X135557426Y-97301981D01*
X135557431Y-97301981D01*
X135557433Y-97301982D01*
X135561025Y-97302396D01*
X135571410Y-97303595D01*
X135751239Y-97330700D01*
X135802619Y-97330700D01*
X135809733Y-97331108D01*
X135812549Y-97331434D01*
X135830800Y-97330734D01*
X135831699Y-97330700D01*
X136002361Y-97330700D01*
X136057167Y-97322439D01*
X136064017Y-97321794D01*
X136069177Y-97321597D01*
X136091552Y-97317256D01*
X136250679Y-97293272D01*
X136307533Y-97275734D01*
X136313992Y-97274117D01*
X136321297Y-97272701D01*
X136343937Y-97264569D01*
X136346460Y-97263727D01*
X136490645Y-97219252D01*
X136547998Y-97191632D01*
X136553908Y-97189156D01*
X136562998Y-97185892D01*
X136585539Y-97173634D01*
X136588177Y-97172282D01*
X136716899Y-97110294D01*
X136772955Y-97072075D01*
X136778246Y-97068844D01*
X136788615Y-97063206D01*
X136809773Y-97047077D01*
X136812388Y-97045190D01*
X136924386Y-96968832D01*
X136977284Y-96919749D01*
X136981823Y-96915929D01*
X136992860Y-96907517D01*
X137011633Y-96888010D01*
X137014089Y-96885599D01*
X137108472Y-96798025D01*
X137156172Y-96738210D01*
X137159965Y-96733883D01*
X137170946Y-96722474D01*
X137186519Y-96700333D01*
X137188707Y-96697413D01*
X137265045Y-96601689D01*
X137305557Y-96531520D01*
X137308491Y-96526926D01*
X137318698Y-96512416D01*
X137330544Y-96488489D01*
X137332386Y-96485050D01*
X137390606Y-96384211D01*
X137421878Y-96304529D01*
X137424003Y-96299732D01*
X137432652Y-96282265D01*
X137440500Y-96257464D01*
X137441882Y-96253561D01*
X137482352Y-96150447D01*
X137502447Y-96062401D01*
X137503767Y-96057552D01*
X137510140Y-96037416D01*
X137513974Y-96012590D01*
X137514786Y-96008342D01*
X137538232Y-95905621D01*
X137545344Y-95810704D01*
X137545886Y-95805978D01*
X137549342Y-95783609D01*
X137549984Y-95750067D01*
X137550143Y-95746666D01*
X137556998Y-95655200D01*
X137550144Y-95563738D01*
X137549984Y-95560330D01*
X137549342Y-95526791D01*
X137545888Y-95504433D01*
X137545342Y-95499670D01*
X137538232Y-95404779D01*
X137514792Y-95302084D01*
X137513967Y-95297763D01*
X137510140Y-95272984D01*
X137503771Y-95252859D01*
X137502440Y-95247965D01*
X137491542Y-95200218D01*
X137482355Y-95159963D01*
X137482353Y-95159957D01*
X137482352Y-95159953D01*
X137441882Y-95056838D01*
X137440501Y-95052937D01*
X137432652Y-95028135D01*
X137424007Y-95010676D01*
X137421873Y-95005856D01*
X137390606Y-94926189D01*
X137332391Y-94825358D01*
X137330534Y-94821889D01*
X137318698Y-94797984D01*
X137308508Y-94783497D01*
X137305526Y-94778826D01*
X137265046Y-94708713D01*
X137265045Y-94708711D01*
X137225740Y-94659425D01*
X137188736Y-94613022D01*
X137186498Y-94610035D01*
X137170949Y-94587930D01*
X137170938Y-94587917D01*
X137159967Y-94576517D01*
X137156165Y-94572179D01*
X137132159Y-94542078D01*
X137108472Y-94512375D01*
X137014105Y-94424815D01*
X137011618Y-94422374D01*
X136992860Y-94402883D01*
X136981840Y-94394483D01*
X136977257Y-94390625D01*
X136924386Y-94341567D01*
X136812415Y-94265226D01*
X136809755Y-94263308D01*
X136788612Y-94247192D01*
X136778254Y-94241559D01*
X136772946Y-94238318D01*
X136716899Y-94200106D01*
X136588206Y-94138130D01*
X136585500Y-94136744D01*
X136573939Y-94130457D01*
X136562995Y-94124506D01*
X136553919Y-94121247D01*
X136547970Y-94118754D01*
X136490650Y-94091150D01*
X136490647Y-94091149D01*
X136490645Y-94091148D01*
X136443073Y-94076474D01*
X136346542Y-94046697D01*
X136343861Y-94045803D01*
X136321304Y-94037701D01*
X136321299Y-94037700D01*
X136321297Y-94037699D01*
X136321287Y-94037697D01*
X136313982Y-94036279D01*
X136307518Y-94034660D01*
X136250688Y-94017130D01*
X136250684Y-94017129D01*
X136250680Y-94017128D01*
X136250679Y-94017128D01*
X136192899Y-94008419D01*
X136091573Y-93993146D01*
X136069176Y-93988802D01*
X136069177Y-93988802D01*
X136064005Y-93988604D01*
X136057145Y-93987957D01*
X136002369Y-93979700D01*
X136002361Y-93979700D01*
X135831699Y-93979700D01*
X135812547Y-93978965D01*
X135809734Y-93979291D01*
X135802619Y-93979700D01*
X135751231Y-93979700D01*
X135571417Y-94006803D01*
X135557422Y-94008419D01*
X135557410Y-94008421D01*
X135556964Y-94008544D01*
X135549797Y-94010062D01*
X135502914Y-94017129D01*
X135316635Y-94074589D01*
X135309777Y-94076474D01*
X135306563Y-94077628D01*
X135303889Y-94078521D01*
X135262953Y-94091148D01*
X135036708Y-94200101D01*
X135036707Y-94200102D01*
X134829213Y-94341568D01*
X134645131Y-94512370D01*
X134488555Y-94708711D01*
X134362994Y-94926188D01*
X134311709Y-95056860D01*
X134271249Y-95159952D01*
X134271245Y-95159964D01*
X134215367Y-95404780D01*
X134196602Y-95655195D01*
X134196602Y-95655204D01*
X111075224Y-95655204D01*
X111065250Y-95628462D01*
X111080102Y-95560189D01*
X111101253Y-95531933D01*
X111223308Y-95409878D01*
X111358800Y-95216378D01*
X111458629Y-95002292D01*
X111458632Y-95002286D01*
X111515836Y-94788800D01*
X110618886Y-94788800D01*
X110644693Y-94748644D01*
X110685200Y-94610689D01*
X110685200Y-94466911D01*
X110644693Y-94328956D01*
X110618886Y-94288800D01*
X111515836Y-94288800D01*
X111515835Y-94288799D01*
X111458632Y-94075313D01*
X111458629Y-94075307D01*
X111358800Y-93861222D01*
X111358799Y-93861220D01*
X111223313Y-93667726D01*
X111223308Y-93667720D01*
X111056282Y-93500694D01*
X110870168Y-93370375D01*
X110826544Y-93315798D01*
X110819351Y-93246299D01*
X110850873Y-93183945D01*
X110870168Y-93167225D01*
X111056282Y-93036905D01*
X111223305Y-92869882D01*
X111358800Y-92676378D01*
X111458629Y-92462292D01*
X111458632Y-92462286D01*
X111515836Y-92248800D01*
X110618886Y-92248800D01*
X110644693Y-92208644D01*
X110685200Y-92070689D01*
X110685200Y-91926911D01*
X110644693Y-91788956D01*
X110618886Y-91748800D01*
X111515836Y-91748800D01*
X111515835Y-91748799D01*
X111458632Y-91535313D01*
X111458629Y-91535307D01*
X111366810Y-91338400D01*
X135448741Y-91338400D01*
X135469336Y-91573803D01*
X135469338Y-91573813D01*
X135530494Y-91802055D01*
X135530496Y-91802059D01*
X135530497Y-91802063D01*
X135588715Y-91926911D01*
X135630365Y-92016230D01*
X135630367Y-92016234D01*
X135738681Y-92170921D01*
X135765905Y-92209801D01*
X135932999Y-92376895D01*
X135999918Y-92423752D01*
X136126565Y-92512432D01*
X136126567Y-92512433D01*
X136126570Y-92512435D01*
X136340737Y-92612303D01*
X136568992Y-92673463D01*
X136757318Y-92689939D01*
X136804399Y-92694059D01*
X136804400Y-92694059D01*
X136804401Y-92694059D01*
X136843634Y-92690626D01*
X137039808Y-92673463D01*
X137268063Y-92612303D01*
X137482230Y-92512435D01*
X137675801Y-92376895D01*
X137842895Y-92209801D01*
X137978435Y-92016230D01*
X138078303Y-91802063D01*
X138139463Y-91573808D01*
X138160059Y-91338400D01*
X138139463Y-91102992D01*
X138078303Y-90874737D01*
X137978435Y-90660571D01*
X137967007Y-90644249D01*
X137842894Y-90466997D01*
X137675802Y-90299906D01*
X137675796Y-90299901D01*
X137490242Y-90169975D01*
X137446617Y-90115398D01*
X137439423Y-90045900D01*
X137470946Y-89983545D01*
X137490242Y-89966825D01*
X137534444Y-89935874D01*
X137675801Y-89836895D01*
X137842895Y-89669801D01*
X137978435Y-89476230D01*
X138078303Y-89262063D01*
X138139463Y-89033808D01*
X138160059Y-88798400D01*
X138158313Y-88778449D01*
X138145032Y-88626643D01*
X138139463Y-88562992D01*
X138078303Y-88334737D01*
X137978435Y-88120571D01*
X137966794Y-88103945D01*
X137842894Y-87926997D01*
X137675802Y-87759906D01*
X137675801Y-87759905D01*
X137489805Y-87629669D01*
X137446181Y-87575092D01*
X137438988Y-87505593D01*
X137470510Y-87443239D01*
X137489805Y-87426519D01*
X137675482Y-87296505D01*
X137842505Y-87129482D01*
X137978000Y-86935978D01*
X138077829Y-86721892D01*
X138077832Y-86721886D01*
X138135036Y-86508400D01*
X137238086Y-86508400D01*
X137263893Y-86468244D01*
X137304400Y-86330289D01*
X137304400Y-86186511D01*
X137263893Y-86048556D01*
X137238086Y-86008400D01*
X138135036Y-86008400D01*
X138135035Y-86008399D01*
X138077832Y-85794913D01*
X138077829Y-85794907D01*
X137978000Y-85580822D01*
X137977999Y-85580820D01*
X137842513Y-85387326D01*
X137842508Y-85387320D01*
X137720453Y-85265265D01*
X137686968Y-85203942D01*
X137691952Y-85134250D01*
X137733824Y-85078317D01*
X137764800Y-85061402D01*
X137896731Y-85012196D01*
X138011946Y-84925946D01*
X138098196Y-84810731D01*
X138148491Y-84675883D01*
X138154900Y-84616273D01*
X138154899Y-82820528D01*
X138148491Y-82760917D01*
X138121341Y-82688125D01*
X138098197Y-82626071D01*
X138098193Y-82626064D01*
X138011947Y-82510855D01*
X138011944Y-82510852D01*
X137896735Y-82424606D01*
X137896728Y-82424602D01*
X137761882Y-82374308D01*
X137761883Y-82374308D01*
X137702283Y-82367901D01*
X137702281Y-82367900D01*
X137702273Y-82367900D01*
X137702264Y-82367900D01*
X135906529Y-82367900D01*
X135906523Y-82367901D01*
X135846916Y-82374308D01*
X135712071Y-82424602D01*
X135712064Y-82424606D01*
X135596855Y-82510852D01*
X135596852Y-82510855D01*
X135510606Y-82626064D01*
X135510602Y-82626071D01*
X135460308Y-82760917D01*
X135453901Y-82820516D01*
X135453901Y-82820523D01*
X135453900Y-82820535D01*
X135453900Y-84616270D01*
X135453901Y-84616276D01*
X135460308Y-84675883D01*
X135510602Y-84810728D01*
X135510606Y-84810735D01*
X135596852Y-84925944D01*
X135596855Y-84925947D01*
X135712064Y-85012193D01*
X135712071Y-85012197D01*
X135712074Y-85012198D01*
X135843998Y-85061402D01*
X135899931Y-85103273D01*
X135924349Y-85168737D01*
X135909498Y-85237010D01*
X135888347Y-85265265D01*
X135766286Y-85387326D01*
X135630800Y-85580820D01*
X135630799Y-85580822D01*
X135530970Y-85794907D01*
X135530967Y-85794913D01*
X135473764Y-86008399D01*
X135473764Y-86008400D01*
X136370714Y-86008400D01*
X136344907Y-86048556D01*
X136304400Y-86186511D01*
X136304400Y-86330289D01*
X136344907Y-86468244D01*
X136370714Y-86508400D01*
X135473764Y-86508400D01*
X135530967Y-86721886D01*
X135530970Y-86721892D01*
X135630799Y-86935978D01*
X135766294Y-87129482D01*
X135933317Y-87296505D01*
X136118995Y-87426519D01*
X136162619Y-87481096D01*
X136169812Y-87550595D01*
X136138290Y-87612949D01*
X136118995Y-87629669D01*
X135932994Y-87759908D01*
X135765905Y-87926997D01*
X135630365Y-88120569D01*
X135630364Y-88120571D01*
X135551183Y-88290375D01*
X135533432Y-88328444D01*
X135530498Y-88334735D01*
X135530494Y-88334744D01*
X135495605Y-88464955D01*
X135473834Y-88500671D01*
X135478155Y-88517107D01*
X135473981Y-88545657D01*
X135469339Y-88562980D01*
X135469336Y-88562996D01*
X135448741Y-88798399D01*
X135448741Y-88798400D01*
X135469336Y-89033803D01*
X135469338Y-89033813D01*
X135530494Y-89262055D01*
X135530496Y-89262059D01*
X135530497Y-89262063D01*
X135535871Y-89273587D01*
X135630365Y-89476230D01*
X135630367Y-89476234D01*
X135765901Y-89669795D01*
X135765906Y-89669802D01*
X135932997Y-89836893D01*
X135933003Y-89836898D01*
X136118558Y-89966825D01*
X136162183Y-90021402D01*
X136169377Y-90090900D01*
X136137854Y-90153255D01*
X136118558Y-90169975D01*
X135932997Y-90299905D01*
X135765905Y-90466997D01*
X135630365Y-90660569D01*
X135630364Y-90660571D01*
X135530498Y-90874735D01*
X135530494Y-90874744D01*
X135469338Y-91102986D01*
X135469336Y-91102996D01*
X135448741Y-91338399D01*
X135448741Y-91338400D01*
X111366810Y-91338400D01*
X111358800Y-91321222D01*
X111358799Y-91321220D01*
X111223313Y-91127726D01*
X111223308Y-91127720D01*
X111056278Y-90960690D01*
X110870605Y-90830679D01*
X110826980Y-90776102D01*
X110819788Y-90706604D01*
X110851310Y-90644249D01*
X110870606Y-90627530D01*
X111056601Y-90497295D01*
X111058277Y-90495619D01*
X111059195Y-90495117D01*
X111060744Y-90493818D01*
X111061005Y-90494129D01*
X111119600Y-90462134D01*
X111145958Y-90459300D01*
X120434084Y-90459300D01*
X120523158Y-90461557D01*
X120523158Y-90461556D01*
X120523163Y-90461557D01*
X120583553Y-90450732D01*
X120588212Y-90450080D01*
X120630407Y-90445788D01*
X120649238Y-90443874D01*
X120682027Y-90433586D01*
X120689640Y-90431718D01*
X120723453Y-90425658D01*
X120780421Y-90402901D01*
X120784853Y-90401324D01*
X120843388Y-90382959D01*
X120873427Y-90366284D01*
X120880508Y-90362922D01*
X120912417Y-90350177D01*
X120963654Y-90316408D01*
X120967651Y-90313987D01*
X121021302Y-90284209D01*
X121047368Y-90261830D01*
X121053643Y-90257100D01*
X121082319Y-90238202D01*
X121125717Y-90194802D01*
X121129136Y-90191634D01*
X121175695Y-90151666D01*
X121196731Y-90124488D01*
X121201901Y-90118618D01*
X123568102Y-87752419D01*
X123629425Y-87718934D01*
X123655783Y-87716100D01*
X125975417Y-87716100D01*
X126042456Y-87735785D01*
X126063098Y-87752419D01*
X127197950Y-88887271D01*
X127259338Y-88951851D01*
X127259343Y-88951855D01*
X127289945Y-88973154D01*
X127309703Y-88986906D01*
X127313444Y-88989726D01*
X127360993Y-89028498D01*
X127391445Y-89044404D01*
X127398156Y-89048471D01*
X127426351Y-89068095D01*
X127482732Y-89092290D01*
X127486967Y-89094301D01*
X127541351Y-89122709D01*
X127574373Y-89132156D01*
X127581765Y-89134789D01*
X127613340Y-89148339D01*
X127613341Y-89148340D01*
X127626454Y-89151034D01*
X127673455Y-89160692D01*
X127677995Y-89161806D01*
X127736982Y-89178686D01*
X127771241Y-89181294D01*
X127779009Y-89182385D01*
X127812655Y-89189300D01*
X127812659Y-89189300D01*
X127874001Y-89189300D01*
X127878708Y-89189478D01*
X127898092Y-89190955D01*
X127939875Y-89194137D01*
X127939875Y-89194136D01*
X127939876Y-89194137D01*
X127973959Y-89189796D01*
X127981789Y-89189300D01*
X134315143Y-89189300D01*
X134466839Y-89173874D01*
X134660979Y-89112962D01*
X134660980Y-89112961D01*
X134660988Y-89112959D01*
X134838902Y-89014209D01*
X134875766Y-88982560D01*
X134879677Y-88979468D01*
X134971871Y-88912488D01*
X135098533Y-88771816D01*
X135193179Y-88607884D01*
X135236275Y-88475247D01*
X135255488Y-88447148D01*
X135251865Y-88435813D01*
X135252508Y-88419918D01*
X135271460Y-88239600D01*
X135267173Y-88198816D01*
X135266653Y-88179573D01*
X135268769Y-88137864D01*
X135237956Y-87936729D01*
X135172469Y-87759908D01*
X135167288Y-87745918D01*
X135167287Y-87745917D01*
X135167286Y-87745913D01*
X135059652Y-87573229D01*
X134989555Y-87499488D01*
X134919461Y-87425749D01*
X134919460Y-87425748D01*
X134919459Y-87425747D01*
X134820987Y-87357209D01*
X134752450Y-87309505D01*
X134565456Y-87229259D01*
X134366141Y-87188300D01*
X128380183Y-87188300D01*
X128313144Y-87168615D01*
X128292502Y-87151981D01*
X127478019Y-86337498D01*
X127444534Y-86276175D01*
X127441700Y-86249817D01*
X127441700Y-75603075D01*
X127443956Y-75514042D01*
X127443955Y-75514041D01*
X127443956Y-75514036D01*
X127433129Y-75453633D01*
X127432482Y-75449020D01*
X127426274Y-75387962D01*
X127426273Y-75387960D01*
X127426273Y-75387957D01*
X127415990Y-75355187D01*
X127414117Y-75347554D01*
X127408058Y-75313748D01*
X127405802Y-75308101D01*
X127385302Y-75256778D01*
X127383721Y-75252337D01*
X127370413Y-75209921D01*
X127365359Y-75193812D01*
X127365358Y-75193810D01*
X127365357Y-75193807D01*
X127348688Y-75163778D01*
X127345317Y-75156678D01*
X127332578Y-75124786D01*
X127332577Y-75124783D01*
X127298820Y-75073563D01*
X127296380Y-75069534D01*
X127279996Y-75040017D01*
X127266609Y-75015898D01*
X127266607Y-75015895D01*
X127244233Y-74989834D01*
X127239502Y-74983559D01*
X127228721Y-74967201D01*
X127220602Y-74954881D01*
X127177233Y-74911512D01*
X127174029Y-74908056D01*
X127171387Y-74904979D01*
X127134066Y-74861505D01*
X127110866Y-74843546D01*
X127106898Y-74840475D01*
X127101004Y-74835283D01*
X126700450Y-74434730D01*
X126676119Y-74409134D01*
X126639059Y-74370147D01*
X126618008Y-74355495D01*
X126588709Y-74335102D01*
X126584944Y-74332264D01*
X126581473Y-74329434D01*
X126570238Y-74320272D01*
X126537408Y-74293502D01*
X126537406Y-74293500D01*
X126506959Y-74277597D01*
X126500251Y-74273534D01*
X126472049Y-74253905D01*
X126472046Y-74253903D01*
X126472045Y-74253903D01*
X126472041Y-74253901D01*
X126415680Y-74229714D01*
X126411424Y-74227693D01*
X126357057Y-74199294D01*
X126357050Y-74199291D01*
X126357049Y-74199291D01*
X126351008Y-74197562D01*
X126324030Y-74189842D01*
X126316630Y-74187208D01*
X126285057Y-74173659D01*
X126285058Y-74173659D01*
X126224966Y-74161309D01*
X126220391Y-74160186D01*
X126161420Y-74143313D01*
X126161425Y-74143313D01*
X126127158Y-74140703D01*
X126119380Y-74139612D01*
X126085742Y-74132700D01*
X126085741Y-74132700D01*
X126024402Y-74132700D01*
X126019695Y-74132521D01*
X126014121Y-74132096D01*
X125958524Y-74127862D01*
X125938589Y-74130401D01*
X125924440Y-74132203D01*
X125916611Y-74132700D01*
X123655782Y-74132700D01*
X123588743Y-74113015D01*
X123568101Y-74096381D01*
X123302782Y-73831062D01*
X123289605Y-73820317D01*
X123184607Y-73734702D01*
X123004249Y-73640491D01*
X122964803Y-73629204D01*
X122907450Y-73612793D01*
X122808618Y-73584513D01*
X122808617Y-73584512D01*
X122808616Y-73584512D01*
X122605725Y-73569062D01*
X122605722Y-73569062D01*
X122403878Y-73594768D01*
X122403870Y-73594770D01*
X122211329Y-73660583D01*
X122211317Y-73660589D01*
X122035978Y-73763806D01*
X122035971Y-73763811D01*
X121884987Y-73900220D01*
X121884987Y-73900221D01*
X121764553Y-74064228D01*
X121764549Y-74064235D01*
X121679597Y-74249125D01*
X121679593Y-74249137D01*
X121633596Y-74447345D01*
X121628442Y-74650758D01*
X121664340Y-74851048D01*
X121664342Y-74851054D01*
X121699568Y-74939241D01*
X121726356Y-75006304D01*
X121739823Y-75040016D01*
X121739829Y-75040028D01*
X121851796Y-75209917D01*
X121851799Y-75209921D01*
X122473566Y-75831687D01*
X122534938Y-75896250D01*
X122534941Y-75896253D01*
X122585281Y-75931292D01*
X122589043Y-75934128D01*
X122636587Y-75972894D01*
X122636590Y-75972895D01*
X122636593Y-75972898D01*
X122667045Y-75988804D01*
X122673758Y-75992872D01*
X122701951Y-76012495D01*
X122758329Y-76036689D01*
X122762578Y-76038707D01*
X122816951Y-76067109D01*
X122844489Y-76074988D01*
X122849974Y-76076558D01*
X122857368Y-76079190D01*
X122888942Y-76092740D01*
X122888945Y-76092740D01*
X122888946Y-76092741D01*
X122949022Y-76105087D01*
X122953600Y-76106210D01*
X122967501Y-76110187D01*
X123012582Y-76123087D01*
X123046839Y-76125695D01*
X123054614Y-76126786D01*
X123088255Y-76133700D01*
X123088259Y-76133700D01*
X123149599Y-76133700D01*
X123154305Y-76133878D01*
X123189063Y-76136525D01*
X123215476Y-76138537D01*
X123215476Y-76138536D01*
X123215477Y-76138537D01*
X123249560Y-76134196D01*
X123257390Y-76133700D01*
X125316700Y-76133700D01*
X125383739Y-76153385D01*
X125429494Y-76206189D01*
X125440700Y-76257700D01*
X125440700Y-79594093D01*
X125421015Y-79661132D01*
X125368211Y-79706887D01*
X125299053Y-79716831D01*
X125235497Y-79687806D01*
X125211468Y-79659685D01*
X125204452Y-79648429D01*
X125204450Y-79648427D01*
X125186477Y-79629520D01*
X125064259Y-79500947D01*
X124955743Y-79425418D01*
X124897250Y-79384705D01*
X124710256Y-79304459D01*
X124510941Y-79263500D01*
X112022583Y-79263500D01*
X111955544Y-79243815D01*
X111934902Y-79227181D01*
X110139651Y-77431931D01*
X110078261Y-77367349D01*
X110078260Y-77367348D01*
X110078259Y-77367347D01*
X110050404Y-77347959D01*
X110027909Y-77332302D01*
X110024146Y-77329464D01*
X109976613Y-77290705D01*
X109976606Y-77290700D01*
X109946159Y-77274797D01*
X109939451Y-77270734D01*
X109911249Y-77251105D01*
X109911246Y-77251103D01*
X109911245Y-77251103D01*
X109911241Y-77251101D01*
X109854880Y-77226914D01*
X109850624Y-77224893D01*
X109796257Y-77196494D01*
X109796250Y-77196491D01*
X109796249Y-77196491D01*
X109790208Y-77194762D01*
X109763230Y-77187042D01*
X109755830Y-77184408D01*
X109724257Y-77170859D01*
X109724258Y-77170859D01*
X109664166Y-77158509D01*
X109659591Y-77157386D01*
X109600620Y-77140513D01*
X109600625Y-77140513D01*
X109566358Y-77137903D01*
X109558580Y-77136812D01*
X109524942Y-77129900D01*
X109524941Y-77129900D01*
X109463602Y-77129900D01*
X109458895Y-77129721D01*
X109453321Y-77129296D01*
X109397724Y-77125062D01*
X109377789Y-77127601D01*
X109363640Y-77129403D01*
X109355811Y-77129900D01*
X104457499Y-77129900D01*
X104368439Y-77127642D01*
X104368435Y-77127642D01*
X104317276Y-77136812D01*
X104308054Y-77138464D01*
X104303395Y-77139118D01*
X104242364Y-77145325D01*
X104242362Y-77145326D01*
X104209580Y-77155610D01*
X104201956Y-77157481D01*
X104198857Y-77158037D01*
X104168149Y-77163541D01*
X104111181Y-77186295D01*
X104106745Y-77187874D01*
X104048214Y-77206240D01*
X104048210Y-77206242D01*
X104018178Y-77222910D01*
X104011084Y-77226279D01*
X103979182Y-77239023D01*
X103979177Y-77239025D01*
X103927956Y-77272781D01*
X103923928Y-77275222D01*
X103870301Y-77304988D01*
X103844234Y-77327365D01*
X103837965Y-77332092D01*
X103809284Y-77350995D01*
X103809278Y-77351000D01*
X103765911Y-77394366D01*
X103762457Y-77397568D01*
X103715906Y-77437532D01*
X103694878Y-77464698D01*
X103689686Y-77470592D01*
X103644728Y-77515550D01*
X103580149Y-77576938D01*
X103580146Y-77576942D01*
X103545099Y-77627294D01*
X103542262Y-77631056D01*
X103503502Y-77678592D01*
X103503499Y-77678597D01*
X103487592Y-77709047D01*
X103483524Y-77715761D01*
X103463902Y-77743954D01*
X103439709Y-77800330D01*
X103437688Y-77804584D01*
X103409291Y-77858951D01*
X103409290Y-77858952D01*
X103399840Y-77891975D01*
X103397207Y-77899371D01*
X103383659Y-77930943D01*
X103371313Y-77991019D01*
X103370190Y-77995595D01*
X103353313Y-78054577D01*
X103353313Y-78054579D01*
X103350703Y-78088841D01*
X103349614Y-78096608D01*
X103344180Y-78123052D01*
X103342700Y-78130258D01*
X103342700Y-78191597D01*
X103342521Y-78196306D01*
X103337862Y-78257474D01*
X103339907Y-78273527D01*
X103342203Y-78291560D01*
X103342700Y-78299388D01*
X103342700Y-78782218D01*
X103323015Y-78849257D01*
X103306381Y-78869899D01*
X98122805Y-84053474D01*
X98061482Y-84086959D01*
X98047152Y-84088874D01*
X98047184Y-84089182D01*
X97892360Y-84104925D01*
X97698220Y-84165837D01*
X97698205Y-84165844D01*
X97520300Y-84264589D01*
X97520295Y-84264592D01*
X97365906Y-84397132D01*
X97365904Y-84397134D01*
X97241354Y-84558037D01*
X97241353Y-84558040D01*
X97151740Y-84740728D01*
X97100737Y-84937714D01*
X97090431Y-85140936D01*
X97121242Y-85342063D01*
X97121245Y-85342075D01*
X97191911Y-85532881D01*
X97191915Y-85532888D01*
X97299545Y-85705567D01*
X97299547Y-85705569D01*
X97299548Y-85705571D01*
X97439741Y-85853053D01*
X97546849Y-85927602D01*
X97606749Y-85969294D01*
X97606750Y-85969294D01*
X97606751Y-85969295D01*
X97793742Y-86049540D01*
X97993059Y-86090500D01*
X98488484Y-86090500D01*
X98577558Y-86092757D01*
X98577558Y-86092756D01*
X98577563Y-86092757D01*
X98637953Y-86081932D01*
X98642612Y-86081280D01*
X98684807Y-86076988D01*
X98703638Y-86075074D01*
X98736427Y-86064786D01*
X98744040Y-86062918D01*
X98777853Y-86056858D01*
X98834821Y-86034101D01*
X98839253Y-86032524D01*
X98897788Y-86014159D01*
X98927827Y-85997484D01*
X98934908Y-85994122D01*
X98966817Y-85981377D01*
X99018054Y-85947608D01*
X99022051Y-85945187D01*
X99075702Y-85915409D01*
X99101768Y-85893030D01*
X99108043Y-85888300D01*
X99136719Y-85869402D01*
X99180117Y-85826002D01*
X99183536Y-85822834D01*
X99230095Y-85782866D01*
X99251131Y-85755688D01*
X99256301Y-85749818D01*
X105041687Y-79964433D01*
X105106253Y-79903059D01*
X105141312Y-79852686D01*
X105144125Y-79848957D01*
X105182898Y-79801407D01*
X105198807Y-79770948D01*
X105202867Y-79764248D01*
X105222495Y-79736049D01*
X105246692Y-79679660D01*
X105248698Y-79675435D01*
X105277109Y-79621049D01*
X105286560Y-79588015D01*
X105289191Y-79580628D01*
X105294397Y-79568498D01*
X105302740Y-79549058D01*
X105315093Y-79488940D01*
X105316206Y-79484412D01*
X105333087Y-79425418D01*
X105335695Y-79391155D01*
X105336787Y-79383376D01*
X105343700Y-79349739D01*
X105343700Y-79288401D01*
X105343879Y-79283691D01*
X105346789Y-79245483D01*
X105371508Y-79180132D01*
X105427634Y-79138519D01*
X105470431Y-79130900D01*
X107318016Y-79130900D01*
X107385055Y-79150585D01*
X107430810Y-79203389D01*
X107440754Y-79272547D01*
X107411729Y-79336103D01*
X107405697Y-79342581D01*
X107302329Y-79445949D01*
X107237749Y-79507338D01*
X107237746Y-79507342D01*
X107202699Y-79557694D01*
X107199862Y-79561456D01*
X107161102Y-79608992D01*
X107161099Y-79608997D01*
X107145192Y-79639447D01*
X107141124Y-79646161D01*
X107121502Y-79674354D01*
X107097309Y-79730730D01*
X107095288Y-79734984D01*
X107066891Y-79789351D01*
X107066890Y-79789352D01*
X107057440Y-79822375D01*
X107054807Y-79829771D01*
X107041259Y-79861343D01*
X107028913Y-79921419D01*
X107027790Y-79925995D01*
X107010913Y-79984977D01*
X107010913Y-79984979D01*
X107008303Y-80019241D01*
X107007214Y-80027008D01*
X107001780Y-80053452D01*
X107000300Y-80060658D01*
X107000300Y-80121997D01*
X107000121Y-80126706D01*
X106995462Y-80187874D01*
X106997209Y-80201584D01*
X106999803Y-80221960D01*
X107000300Y-80229788D01*
X107000300Y-87824618D01*
X106980615Y-87891657D01*
X106963981Y-87912299D01*
X106962299Y-87913981D01*
X106900976Y-87947466D01*
X106874618Y-87950300D01*
X102107699Y-87950300D01*
X102018639Y-87948042D01*
X102018635Y-87948042D01*
X101967013Y-87957295D01*
X101958254Y-87958864D01*
X101953595Y-87959518D01*
X101892564Y-87965725D01*
X101892562Y-87965726D01*
X101859780Y-87976010D01*
X101852156Y-87977881D01*
X101844308Y-87979288D01*
X101818349Y-87983941D01*
X101761381Y-88006695D01*
X101756945Y-88008274D01*
X101698414Y-88026640D01*
X101698410Y-88026642D01*
X101668378Y-88043310D01*
X101661284Y-88046679D01*
X101629382Y-88059423D01*
X101629377Y-88059425D01*
X101578156Y-88093181D01*
X101574128Y-88095622D01*
X101520501Y-88125388D01*
X101494434Y-88147765D01*
X101488165Y-88152492D01*
X101459484Y-88171395D01*
X101459479Y-88171399D01*
X101437385Y-88193493D01*
X101416098Y-88214779D01*
X101412657Y-88217969D01*
X101366101Y-88257937D01*
X101345072Y-88285103D01*
X101339882Y-88290997D01*
X101300867Y-88330011D01*
X101212312Y-88438615D01*
X101204502Y-88448193D01*
X101144539Y-88562986D01*
X101110290Y-88628553D01*
X101054312Y-88824184D01*
X101038862Y-89027071D01*
X101040759Y-89041962D01*
X101029701Y-89110951D01*
X100983100Y-89163010D01*
X100915752Y-89181611D01*
X100849039Y-89160847D01*
X100830095Y-89145332D01*
X100821829Y-89137070D01*
X100819551Y-89135551D01*
X100787200Y-89103200D01*
X83436500Y-89103200D01*
X83369461Y-89083515D01*
X83323706Y-89030711D01*
X83312500Y-88979200D01*
X83312500Y-81655200D01*
X85371157Y-81655200D01*
X85378829Y-81747789D01*
X85379150Y-81751656D01*
X85379362Y-81756779D01*
X85379362Y-81779281D01*
X85383065Y-81801482D01*
X85383699Y-81806565D01*
X85391691Y-81903016D01*
X85391691Y-81903018D01*
X85415454Y-81996857D01*
X85416505Y-82001872D01*
X85420207Y-82024054D01*
X85420209Y-82024062D01*
X85427514Y-82045341D01*
X85428976Y-82050253D01*
X85452735Y-82144074D01*
X85452739Y-82144087D01*
X85491615Y-82232715D01*
X85493477Y-82237486D01*
X85500786Y-82258776D01*
X85500788Y-82258779D01*
X85511498Y-82278571D01*
X85513748Y-82283175D01*
X85552627Y-82371808D01*
X85605564Y-82452834D01*
X85608188Y-82457238D01*
X85618895Y-82477023D01*
X85618898Y-82477028D01*
X85632726Y-82494795D01*
X85635703Y-82498965D01*
X85688634Y-82579982D01*
X85688638Y-82579987D01*
X85754193Y-82651200D01*
X85757506Y-82655111D01*
X85771322Y-82672862D01*
X85787880Y-82688105D01*
X85791494Y-82691719D01*
X85857056Y-82762938D01*
X85933451Y-82822399D01*
X85937347Y-82825699D01*
X85943713Y-82831560D01*
X85953899Y-82840937D01*
X85972736Y-82853244D01*
X85976902Y-82856218D01*
X86053291Y-82915674D01*
X86138440Y-82961754D01*
X86142801Y-82964353D01*
X86161655Y-82976671D01*
X86182294Y-82985724D01*
X86186833Y-82987943D01*
X86271990Y-83034028D01*
X86363554Y-83065462D01*
X86368289Y-83067309D01*
X86388916Y-83076357D01*
X86410732Y-83081881D01*
X86415616Y-83083335D01*
X86478424Y-83104897D01*
X86507185Y-83114771D01*
X86540989Y-83120411D01*
X86602666Y-83130703D01*
X86607679Y-83131755D01*
X86629476Y-83137275D01*
X86629478Y-83137275D01*
X86629485Y-83137277D01*
X86651925Y-83139136D01*
X86656969Y-83139764D01*
X86752465Y-83155700D01*
X86752466Y-83155700D01*
X86849248Y-83155700D01*
X86854361Y-83155911D01*
X86870215Y-83157225D01*
X86876798Y-83157771D01*
X86876800Y-83157771D01*
X86876802Y-83157771D01*
X86883384Y-83157225D01*
X86899238Y-83155911D01*
X86904352Y-83155700D01*
X87001130Y-83155700D01*
X87001135Y-83155700D01*
X87096651Y-83139761D01*
X87101662Y-83139137D01*
X87124115Y-83137277D01*
X87145953Y-83131746D01*
X87150905Y-83130708D01*
X87246414Y-83114771D01*
X87337998Y-83083329D01*
X87342842Y-83081888D01*
X87364684Y-83076357D01*
X87385300Y-83067313D01*
X87390034Y-83065465D01*
X87481610Y-83034028D01*
X87566775Y-82987938D01*
X87571305Y-82985724D01*
X87591945Y-82976671D01*
X87610808Y-82964346D01*
X87615137Y-82961766D01*
X87700309Y-82915674D01*
X87776731Y-82856192D01*
X87780818Y-82853273D01*
X87799698Y-82840939D01*
X87816266Y-82825687D01*
X87820141Y-82822404D01*
X87896544Y-82762938D01*
X87962113Y-82691710D01*
X87965697Y-82688125D01*
X87982277Y-82672863D01*
X87996120Y-82655076D01*
X87999381Y-82651226D01*
X88064964Y-82579985D01*
X88117927Y-82498918D01*
X88120853Y-82494820D01*
X88134702Y-82477028D01*
X88145423Y-82457216D01*
X88148033Y-82452836D01*
X88200973Y-82371807D01*
X88239861Y-82283150D01*
X88242099Y-82278575D01*
X88242101Y-82278571D01*
X88252814Y-82258776D01*
X88260136Y-82237446D01*
X88261962Y-82232764D01*
X88300863Y-82144081D01*
X88324626Y-82050241D01*
X88326078Y-82045362D01*
X88333392Y-82024059D01*
X88337096Y-82001858D01*
X88338140Y-81996877D01*
X88361908Y-81903021D01*
X88369904Y-81806521D01*
X88370533Y-81801482D01*
X88374238Y-81779281D01*
X88374888Y-81747789D01*
X88375083Y-81744012D01*
X88382443Y-81655200D01*
X88375084Y-81566390D01*
X88374888Y-81562607D01*
X88374238Y-81531119D01*
X88370533Y-81508914D01*
X88369903Y-81503866D01*
X88361908Y-81407379D01*
X88338141Y-81313527D01*
X88337095Y-81308534D01*
X88333392Y-81286343D01*
X88333391Y-81286340D01*
X88326083Y-81265050D01*
X88324625Y-81260152D01*
X88311923Y-81209993D01*
X88300863Y-81166319D01*
X88261974Y-81077661D01*
X88260129Y-81072934D01*
X88252814Y-81051624D01*
X88242098Y-81031822D01*
X88239852Y-81027229D01*
X88208989Y-80956867D01*
X88200973Y-80938592D01*
X88148031Y-80857558D01*
X88145407Y-80853154D01*
X88137155Y-80837906D01*
X88134702Y-80833372D01*
X88120880Y-80815613D01*
X88117902Y-80811442D01*
X88064966Y-80730418D01*
X88064965Y-80730417D01*
X88064964Y-80730415D01*
X88033446Y-80696177D01*
X87999406Y-80659199D01*
X87996095Y-80655290D01*
X87982277Y-80637537D01*
X87982273Y-80637532D01*
X87965719Y-80622293D01*
X87962101Y-80618676D01*
X87896544Y-80547462D01*
X87820152Y-80488004D01*
X87816244Y-80484693D01*
X87799698Y-80469461D01*
X87780863Y-80457155D01*
X87776697Y-80454181D01*
X87700309Y-80394726D01*
X87700308Y-80394725D01*
X87700305Y-80394723D01*
X87700303Y-80394722D01*
X87615185Y-80348659D01*
X87610781Y-80346035D01*
X87591945Y-80333729D01*
X87571347Y-80324694D01*
X87566740Y-80322442D01*
X87481611Y-80276372D01*
X87481602Y-80276369D01*
X87390059Y-80244942D01*
X87385284Y-80243079D01*
X87385112Y-80243003D01*
X87364684Y-80234043D01*
X87364680Y-80234042D01*
X87364678Y-80234041D01*
X87342876Y-80228519D01*
X87337966Y-80227058D01*
X87246414Y-80195629D01*
X87150938Y-80179696D01*
X87145923Y-80178644D01*
X87124112Y-80173122D01*
X87124116Y-80173122D01*
X87101695Y-80171265D01*
X87096610Y-80170631D01*
X87001136Y-80154700D01*
X87001135Y-80154700D01*
X86904341Y-80154700D01*
X86899227Y-80154488D01*
X86883355Y-80153173D01*
X86876802Y-80152630D01*
X86876798Y-80152630D01*
X86870244Y-80153173D01*
X86854372Y-80154488D01*
X86849259Y-80154700D01*
X86752465Y-80154700D01*
X86656988Y-80170631D01*
X86651903Y-80171265D01*
X86629488Y-80173122D01*
X86629483Y-80173123D01*
X86607680Y-80178644D01*
X86602666Y-80179695D01*
X86507182Y-80195629D01*
X86415634Y-80227056D01*
X86410727Y-80228517D01*
X86388926Y-80234039D01*
X86388916Y-80234043D01*
X86368310Y-80243081D01*
X86363538Y-80244942D01*
X86271994Y-80276370D01*
X86271983Y-80276375D01*
X86186862Y-80322440D01*
X86182258Y-80324691D01*
X86161654Y-80333729D01*
X86161645Y-80333734D01*
X86142823Y-80346031D01*
X86138421Y-80348655D01*
X86053292Y-80394724D01*
X86053289Y-80394727D01*
X85976906Y-80454177D01*
X85972738Y-80457154D01*
X85953899Y-80469463D01*
X85937342Y-80484703D01*
X85933435Y-80488012D01*
X85857055Y-80547462D01*
X85791497Y-80618676D01*
X85787875Y-80622298D01*
X85771329Y-80637530D01*
X85771314Y-80637546D01*
X85757499Y-80655294D01*
X85754190Y-80659201D01*
X85688636Y-80730415D01*
X85635701Y-80811436D01*
X85632725Y-80815604D01*
X85618899Y-80833370D01*
X85618894Y-80833377D01*
X85608186Y-80853164D01*
X85605563Y-80857565D01*
X85552628Y-80938590D01*
X85513753Y-81027215D01*
X85511504Y-81031815D01*
X85500785Y-81051624D01*
X85493476Y-81072914D01*
X85491614Y-81077687D01*
X85465524Y-81137167D01*
X85452739Y-81166316D01*
X85452736Y-81166322D01*
X85428977Y-81260142D01*
X85427516Y-81265050D01*
X85420208Y-81286340D01*
X85416505Y-81308527D01*
X85415454Y-81313542D01*
X85391691Y-81407378D01*
X85391691Y-81407382D01*
X85383698Y-81503834D01*
X85383065Y-81508914D01*
X85379362Y-81531119D01*
X85379362Y-81553619D01*
X85379150Y-81558735D01*
X85378513Y-81566428D01*
X85371315Y-81653295D01*
X85371157Y-81655200D01*
X83312500Y-81655200D01*
X83312500Y-68907700D01*
X83332185Y-68840661D01*
X83384989Y-68794906D01*
X83436500Y-68783700D01*
X90452042Y-68783700D01*
X90519081Y-68803385D01*
G37*
%TD.AperFunction*%
%TA.AperFunction,Conductor*%
G36*
X110435200Y-94103298D02*
G01*
X110327515Y-94054120D01*
X110220963Y-94038800D01*
X110149437Y-94038800D01*
X110042885Y-94054120D01*
X109935200Y-94103298D01*
X109935200Y-92434301D01*
X110042885Y-92483480D01*
X110149437Y-92498800D01*
X110220963Y-92498800D01*
X110327515Y-92483480D01*
X110435200Y-92434301D01*
X110435200Y-94103298D01*
G37*
%TD.AperFunction*%
%TA.AperFunction,Conductor*%
G36*
X109413034Y-79542957D02*
G01*
X109442799Y-79564920D01*
X110146774Y-80268894D01*
X110840348Y-80962468D01*
X110901741Y-81027053D01*
X110901744Y-81027055D01*
X110901747Y-81027058D01*
X110935853Y-81050795D01*
X110952103Y-81062106D01*
X110955844Y-81064926D01*
X111003393Y-81103698D01*
X111033845Y-81119604D01*
X111040558Y-81123672D01*
X111068751Y-81143295D01*
X111125129Y-81167489D01*
X111129378Y-81169507D01*
X111183751Y-81197909D01*
X111211289Y-81205788D01*
X111216774Y-81207358D01*
X111224168Y-81209990D01*
X111255742Y-81223540D01*
X111255745Y-81223540D01*
X111255746Y-81223541D01*
X111315822Y-81235887D01*
X111320400Y-81237010D01*
X111334301Y-81240987D01*
X111379382Y-81253887D01*
X111413639Y-81256495D01*
X111421414Y-81257586D01*
X111455055Y-81264500D01*
X111455059Y-81264500D01*
X111516398Y-81264500D01*
X111521104Y-81264678D01*
X111555862Y-81267325D01*
X111582275Y-81269337D01*
X111582275Y-81269336D01*
X111582276Y-81269337D01*
X111616359Y-81264996D01*
X111624189Y-81264500D01*
X124459943Y-81264500D01*
X124611639Y-81249074D01*
X124805779Y-81188162D01*
X124805780Y-81188161D01*
X124805788Y-81188159D01*
X124983702Y-81089409D01*
X125138095Y-80956866D01*
X125218644Y-80852805D01*
X125275245Y-80811842D01*
X125345008Y-80807982D01*
X125405784Y-80842451D01*
X125438275Y-80904306D01*
X125440700Y-80928707D01*
X125440700Y-85591100D01*
X125421015Y-85658139D01*
X125368211Y-85703894D01*
X125316700Y-85715100D01*
X123202717Y-85715100D01*
X123113637Y-85712843D01*
X123113628Y-85712843D01*
X123053260Y-85723664D01*
X123048595Y-85724318D01*
X122987563Y-85730525D01*
X122987555Y-85730527D01*
X122954781Y-85740810D01*
X122947154Y-85742682D01*
X122913350Y-85748741D01*
X122856384Y-85771494D01*
X122851948Y-85773073D01*
X122793414Y-85791440D01*
X122793412Y-85791441D01*
X122763385Y-85808106D01*
X122756293Y-85811474D01*
X122724383Y-85824221D01*
X122673154Y-85857983D01*
X122669126Y-85860424D01*
X122615502Y-85890188D01*
X122615499Y-85890190D01*
X122589427Y-85912570D01*
X122583160Y-85917295D01*
X122554482Y-85936198D01*
X122554475Y-85936203D01*
X122511116Y-85979562D01*
X122507661Y-85982764D01*
X122461106Y-86022732D01*
X122461105Y-86022733D01*
X122440076Y-86049900D01*
X122434884Y-86055794D01*
X120068699Y-88421981D01*
X120007376Y-88455466D01*
X119981018Y-88458300D01*
X111145958Y-88458300D01*
X111078919Y-88438615D01*
X111058277Y-88421981D01*
X111056602Y-88420306D01*
X111056596Y-88420301D01*
X110871042Y-88290375D01*
X110827417Y-88235798D01*
X110820223Y-88166300D01*
X110851746Y-88103945D01*
X110871042Y-88087225D01*
X110910747Y-88059423D01*
X111056601Y-87957295D01*
X111223695Y-87790201D01*
X111359235Y-87596630D01*
X111459103Y-87382463D01*
X111520263Y-87154208D01*
X111540859Y-86918800D01*
X111520263Y-86683392D01*
X111459103Y-86455137D01*
X111359235Y-86240971D01*
X111247586Y-86081518D01*
X111223694Y-86047397D01*
X111222019Y-86045722D01*
X111221515Y-86044800D01*
X111220214Y-86043249D01*
X111220525Y-86042987D01*
X111188534Y-85984399D01*
X111185700Y-85958041D01*
X111185700Y-85339558D01*
X111205385Y-85272519D01*
X111222019Y-85251877D01*
X111223695Y-85250201D01*
X111359235Y-85056630D01*
X111459103Y-84842463D01*
X111520263Y-84614208D01*
X111540859Y-84378800D01*
X111520263Y-84143392D01*
X111459103Y-83915137D01*
X111359235Y-83700971D01*
X111359151Y-83700850D01*
X111223694Y-83507397D01*
X111056602Y-83340306D01*
X111056595Y-83340301D01*
X110863034Y-83204767D01*
X110863030Y-83204765D01*
X110761080Y-83157225D01*
X110648863Y-83104897D01*
X110648859Y-83104896D01*
X110648855Y-83104894D01*
X110420613Y-83043738D01*
X110420603Y-83043736D01*
X110185201Y-83023141D01*
X110185199Y-83023141D01*
X109949796Y-83043736D01*
X109949786Y-83043738D01*
X109721544Y-83104894D01*
X109721535Y-83104898D01*
X109507371Y-83204764D01*
X109507369Y-83204765D01*
X109313797Y-83340305D01*
X109212981Y-83441122D01*
X109151658Y-83474607D01*
X109081966Y-83469623D01*
X109026033Y-83427751D01*
X109001616Y-83362287D01*
X109001300Y-83353441D01*
X109001300Y-80620251D01*
X109020985Y-80553212D01*
X109029198Y-80541890D01*
X109094498Y-80461807D01*
X109188709Y-80281449D01*
X109244686Y-80085818D01*
X109260137Y-79882924D01*
X109257389Y-79861343D01*
X109234431Y-79681077D01*
X109234328Y-79680633D01*
X109234342Y-79680381D01*
X109233636Y-79674834D01*
X109234669Y-79674702D01*
X109238348Y-79610879D01*
X109279442Y-79554371D01*
X109344562Y-79529051D01*
X109413034Y-79542957D01*
G37*
%TD.AperFunction*%
%TD*%
M02*
